<svg xmlns="http://www.w3.org/2000/svg" xmlns:xlink="http://www.w3.org/1999/xlink" viewBox="0 0 409.26 452.72"><defs><style>.cls-1{fill:#e5e5d6;}.cls-2{fill:#00c9ba;}.cls-3{fill:#32ead8;}.cls-4{fill:#08af9f;}.cls-5{fill:url(#linear-gradient);}.cls-6{fill:#099382;}.cls-7{fill:url(#linear-gradient-2);}.cls-8{fill:url(#linear-gradient-3);}.cls-9{fill:#e8e7ca;}.cls-10{fill:#e5a128;}.cls-11{fill:#bc7b1d;}.cls-12{fill:none;stroke:#e5a128;stroke-miterlimit:10;stroke-width:2px;}.cls-13{fill:#26bc9f;}.cls-14{fill:#fff;}.cls-15{fill:#32ceb0;}.cls-16{fill:#0e756b;}.cls-17{fill:url(#radial-gradient);}.cls-18{fill:#ecc1ba;}.cls-19{fill:#de9595;}.cls-20{fill:#230760;}.cls-21{fill:#d0c6e5;}.cls-22{fill:#492012;}.cls-23{fill:#e1dcef;}</style><linearGradient id="linear-gradient" x1="220.17" y1="432.51" x2="220.17" y2="256.7" gradientUnits="userSpaceOnUse"><stop offset="0.38" stop-color="#fff" stop-opacity="0.7"/><stop offset="1" stop-color="#5083c2" stop-opacity="0"/></linearGradient><linearGradient id="linear-gradient-2" x1="220.17" y1="432.51" x2="220.17" y2="273.03" gradientUnits="userSpaceOnUse"><stop offset="0" stop-color="#642c98"/><stop offset="0.81" stop-color="#5083c2" stop-opacity="0"/></linearGradient><linearGradient id="linear-gradient-3" x1="220.17" x2="220.17" y2="432.51" gradientUnits="userSpaceOnUse"><stop offset="0" stop-color="#094c45" stop-opacity="0.8"/><stop offset="0.67" stop-color="#5083c2" stop-opacity="0"/></linearGradient><radialGradient id="radial-gradient" cx="224.94" cy="96.65" r="53.84" gradientTransform="translate(134.23 -130.75) rotate(45)" gradientUnits="userSpaceOnUse"><stop offset="0.57" stop-color="#00c9ba" stop-opacity="0"/><stop offset="0.65" stop-color="#1ecfb4" stop-opacity="0.06"/><stop offset="0.79" stop-color="#6ddea5" stop-opacity="0.22"/><stop offset="0.98" stop-color="#ecf78c" stop-opacity="0.47"/><stop offset="1" stop-color="#f9f98a" stop-opacity="0.5"/></radialGradient></defs><title>Asset 1a</title><g id="Layer_2" data-name="Layer 2"><g id="OBJECTS"><path class="cls-1" d="M409.26,438.15c.13-6.62-91.37-13.82-204.39-16.09S.13,423.31,0,429.93c-.11,5.24,59.82,10.9,140.91,14.16l141.66,8.63,64.82-7.11C385.69,444.19,409.19,441.58,409.26,438.15Z"/><polygon class="cls-2" points="367.63 151.69 367.63 98.44 381.12 98.44 381.12 73.45 287.68 23.49 287.68 0 220.17 0 152.66 0 152.66 23.49 59.21 73.45 59.21 98.44 72.7 98.44 72.7 151.69 72.7 280.82 72.7 334.07 59.21 334.07 59.21 359.05 152.66 409.02 152.66 432.51 220.17 432.51 287.68 432.51 287.68 409.02 381.12 359.05 381.12 334.07 367.63 334.07 367.63 280.82 367.63 151.69"/><path class="cls-3" d="M72.71,334.07H59.21v25l93.45,50v23.49h135V409l93.44-50v-25H367.63v-169a59.23,59.23,0,0,0-55.15,76.86,42.78,42.78,0,0,0-31.82,27.44,42.74,42.74,0,0,0-60,29.14,38.73,38.73,0,0,0-11.76-1.82c-.83,0-1.65,0-2.47.09a42.7,42.7,0,0,0-65.48-35A42.74,42.74,0,0,0,113.62,242a54.15,54.15,0,0,0-40.91-70.92v163Z"/><path class="cls-4" d="M59.21,334.07v25l93.45,50v23.49h135V409l93.44-50v-25H367.63V307.88C288.78,303,229.14,234.72,174.14,264c-33.84,18-74.41,26.3-101.43,30.08v40Z"/><path class="cls-5" d="M59.21,334.07v25l93.45,50v23.49h135V409l93.44-50v-25H367.63V307.88C288.78,303,229.14,234.72,174.14,264c-33.84,18-74.41,26.3-101.43,30.08v40Z"/><path class="cls-6" d="M59.21,334.07v25l93.45,50v23.49h135V409l93.44-50v-25H367.63V273c-65.3,24.16-124.29,105.58-175,62.06C155.11,303,104.35,289.2,72.71,283.48v50.59Z"/><path class="cls-7" d="M59.21,334.07v25l93.45,50v23.49h135V409l93.44-50v-25H367.63V273c-65.3,24.16-124.29,105.58-175,62.06C155.11,303,104.35,289.2,72.71,283.48v50.59Z"/><polygon class="cls-8" points="367.63 151.69 367.63 98.44 381.12 98.44 381.12 73.45 287.68 23.49 287.68 0 220.17 0 152.66 0 152.66 23.49 59.21 73.45 59.21 98.44 72.7 98.44 72.7 151.69 72.7 280.82 72.7 334.07 59.21 334.07 59.21 359.05 152.66 409.02 152.66 432.51 220.17 432.51 287.68 432.51 287.68 409.02 381.12 359.05 381.12 334.07 367.63 334.07 367.63 280.82 367.63 151.69"/><path class="cls-9" d="M373.63,90.94V78L280.18,28V7.5h-120V28L66.71,78v13H80.2V341.56H66.71v13l93.44,50V425h120V404.53l93.45-50v-13H360.14V90.94Zm-3,253.62v8.21l-93.44,50V422h-114V402.73l-93.44-50v-8.21H83.2V88H69.71V79.74l93.44-50V10.49h114V29.77l93.44,50V88H357.14V344.56Z"/><path class="cls-10" d="M376.21,238.22v-7.74h-5.34C370,216,353.75,209.4,353.75,209.4v-4.59H346v4.59s-16.21,6.61-17.12,21.08h-5.35v7.74h5.3v26.16h-5.3v7.75h52.64v-7.75h-5.29V238.22Z"/><rect class="cls-11" x="328.87" y="260.55" width="42.04" height="3.83"/><rect class="cls-11" x="328.87" y="238.23" width="42.04" height="3.83"/><path class="cls-11" d="M337.45,243.32a3.35,3.35,0,0,0-3.35,3.35v12.54h6.71V246.67A3.35,3.35,0,0,0,337.45,243.32Z"/><path class="cls-11" d="M349.11,243.32a3.36,3.36,0,0,0-3.36,3.35v12.54h6.71V246.67A3.35,3.35,0,0,0,349.11,243.32Z"/><path class="cls-11" d="M361.82,243.32a3.35,3.35,0,0,0-3.35,3.35v12.54h6.71V246.67A3.35,3.35,0,0,0,361.82,243.32Z"/><polygon class="cls-11" points="370.87 229.13 329.09 229.13 328.92 230.48 370.87 230.48 370.87 229.13"/><line class="cls-12" x1="349.89" y1="204.81" x2="349.89" y2="56.77"/><path class="cls-10" d="M116.88,272.33v-7.75h-5.35c-.91-14.47-17.12-21.07-17.12-21.07v-4.59H86.7v4.59s-16.21,6.6-17.12,21.07H64.24v7.75h5.29v26.16H64.24v7.74h52.64v-7.74h-5.3V272.33Z"/><rect class="cls-11" x="69.53" y="294.66" width="42.04" height="3.83"/><rect class="cls-11" x="69.53" y="272.33" width="42.04" height="3.83"/><path class="cls-11" d="M78.12,277.42a3.36,3.36,0,0,0-3.36,3.36v12.54h6.71V280.78A3.36,3.36,0,0,0,78.12,277.42Z"/><path class="cls-11" d="M89.77,277.42a3.36,3.36,0,0,0-3.35,3.36v12.54h6.71V280.78A3.37,3.37,0,0,0,89.77,277.42Z"/><path class="cls-11" d="M102.49,277.42a3.36,3.36,0,0,0-3.36,3.36v12.54h6.71V280.78A3.36,3.36,0,0,0,102.49,277.42Z"/><polygon class="cls-11" points="111.53 263.23 69.75 263.23 69.58 264.58 111.53 264.58 111.53 263.23"/><line class="cls-12" x1="90.56" y1="238.92" x2="90.56" y2="56.83"/><path class="cls-13" d="M276.43,423.74s9.65-26.08,23.31-29.47,16.12,6.83,25.27-.54,17.78-12.44,27.62-11.13,14.79,7.19,28.17,6.85S404.71,394,406.28,403s-12,18.05-20.13,14.81-10.75,9.5-24.4,11.62-16.18-6.48-25.87-1.57S320.81,464.25,276.43,423.74Z"/><path class="cls-14" d="M397.38,412.2c-6.15-7.47-12-10.53-15.87-11.78a69.76,69.76,0,0,1,19.95,3.3.4.4,0,0,0,.49-.24.41.41,0,0,0-.24-.49c-7.11-2.42-15.36-3.41-24.14-3.4-.54,0-.86,0-.93,0a.42.42,0,0,0-.16,0,153.88,153.88,0,0,0-19.86,1.63c2.27-2,7.64-7.8,5-14.52a.38.38,0,1,0-.71.28c3.06,7.83-5.62,14.36-5.71,14.43l0,0c-6.83,1-13.69,2.41-20.34,4h-.26a.34.34,0,0,0-.27.13c-8,1.91-15.65,4.1-22.58,6.28,2.4-2.18,7.25-7.31,8.69-14.12a.37.37,0,0,0-.29-.45.39.39,0,0,0-.46.29c-1.87,8.83-9.69,14.77-9.77,14.83l0,0c-6.49,2.08-12.26,4.11-17,5.86a.36.36,0,0,0-.24.09c-7.76,2.87-12.58,4.94-12.77,5a.37.37,0,0,0-.2.5.35.35,0,0,0,.18.2.4.4,0,0,0,.32,0c.15-.06,3.14-1.34,8.16-3.28l0,0a.31.31,0,0,0,.13,0c.22,0,22,2.07,30.9,15.24a.37.37,0,0,0,.53.11.38.38,0,0,0,.1-.53c-7.9-11.66-25.48-14.79-30.24-15.43,1-.39,2.08-.79,3.22-1.21,1.66.07,19.68,1.19,28.08,15.33a.36.36,0,0,0,.16.14.36.36,0,0,0,.36,0,.39.39,0,0,0,.14-.52c-7.37-12.41-21.92-15-27-15.57A369.4,369.4,0,0,1,334.9,406.2c2.42,0,19.93.81,31.19,16.71a.43.43,0,0,0,.14.13.37.37,0,0,0,.39,0,.38.38,0,0,0,.1-.53,41,41,0,0,0-29.25-16.87c13.19-3,27.09-5.2,39.84-5.25,2.32.17,10.61,1.57,19.48,12.34a.41.41,0,0,0,.13.1.37.37,0,0,0,.41-.05A.38.38,0,0,0,397.38,412.2Z"/><path class="cls-15" d="M250.68,423s-3.79-36.09,10.23-48,22.82-1.32,29.27-15.24,13.6-24.84,25.88-29,21.46-.15,36.91-8.28,30.64-8.46,37.67,1.15-3.65,28.08-15,29-7.09,17.34-21.84,27.71-22.67,1.77-31.17,13.13S326,444.77,250.68,423Z"/><path class="cls-14" d="M385.54,339.59c-11.52-5.19-20.09-5.41-25.38-4.62a91.4,91.4,0,0,1,25.24-7.67.5.5,0,0,0,.43-.56.5.5,0,0,0-.56-.44c-9.72,1.28-19.94,4.89-30.21,10a10.45,10.45,0,0,0-1.1.5.36.36,0,0,0-.16.14,201,201,0,0,0-22.3,13.39c1.47-3.71,4.42-13.54-2.54-19.89a.5.5,0,0,0-.71,0,.51.51,0,0,0,0,.71c8.11,7.39,1.74,20.05,1.68,20.18s0,0,0,0c-7.41,5.15-14.63,10.74-21.5,16.44l-.3.15a.51.51,0,0,0-.25.31c-8.23,6.86-15.93,13.86-22.77,20.41,1.54-3.94,4.25-12.75,2-21.55a.5.5,0,1,0-1,.25c2.92,11.42-2.8,22.89-2.85,23a.1.1,0,0,0,0,.07c-6.39,6.18-12,11.9-16.48,16.67a.45.45,0,0,0-.23.24c-7.42,7.86-11.87,13.06-12,13.27a.5.5,0,0,0,.06.7.51.51,0,0,0,.71-.05c.14-.17,2.9-3.4,7.65-8.57l0,0a.43.43,0,0,0,.19,0c.26-.1,26.89-10.28,45,0a.5.5,0,0,0,.68-.18.52.52,0,0,0-.19-.69c-16-9.07-38.36-2.56-44.31-.56,1-1,2-2.13,3.08-3.28,2-.87,23.71-10,41.71,1.7a.53.53,0,0,0,.27.08.48.48,0,0,0,.42-.23.5.5,0,0,0-.14-.69c-15.79-10.25-34.34-4.91-40.62-2.59A485.07,485.07,0,0,1,309,368.7c2.86-1.37,23.8-10.58,46.17,1.51a.48.48,0,0,0,.24.06.49.49,0,0,0,.43-.26.48.48,0,0,0-.2-.67c-18.84-10.2-36.69-5.55-44-2.83,13.69-11.17,28.69-21.76,43.59-29.19,2.81-1.13,13.32-4.3,29.93,3.18a.52.52,0,0,0,.21,0,.5.5,0,0,0,.2-1Z"/><path class="cls-13" d="M171.51,429.38s1-26.21-9.74-34.08-16.52.17-21.85-9.55-11-17.24-20.09-19.63-15.48.95-27-4.15-22.51-4.6-27.1,2.68,4,20.06,12.23,20.15,6,12.14,17.11,18.9,16.43.16,23.12,7.93S118.24,448.76,171.51,429.38Z"/><path class="cls-14" d="M70.16,375.85c8.06-4.3,14.23-4.88,18.08-4.57A66.33,66.33,0,0,0,69.66,367a.36.36,0,0,1-.34-.38.37.37,0,0,1,.39-.34c7.07.45,14.61,2.54,22.27,5.71a8.18,8.18,0,0,1,.82.31.38.38,0,0,1,.12.09,146.27,146.27,0,0,1,16.74,8.56c-1.24-2.6-3.86-9.54.85-14.46a.36.36,0,0,1,.51,0,.35.35,0,0,1,0,.51c-5.48,5.73-.26,14.55-.21,14.64v0c5.59,3.36,11.08,7,16.31,10.8l.22.1a.33.33,0,0,1,.19.21c6.28,4.54,12.17,9.2,17.43,13.59-1.3-2.77-3.69-9-2.5-15.44a.36.36,0,0,1,.42-.29.38.38,0,0,1,.29.42c-1.54,8.38,3.14,16.37,3.19,16.45s0,0,0,.05c4.91,4.14,9.21,8,12.7,11.2a.42.42,0,0,1,.18.17c5.73,5.3,9.19,8.83,9.33,9a.35.35,0,0,1,0,.51.32.32,0,0,1-.22.1.37.37,0,0,1-.29-.11c-.1-.11-2.25-2.3-5.93-5.79h0a.3.3,0,0,1-.13,0c-.2-.06-19.9-6.09-32.42,2.2a.36.36,0,0,1-.5-.11.37.37,0,0,1,.1-.5c11.08-7.32,27.54-3.73,31.92-2.58-.74-.7-1.53-1.44-2.38-2.22-1.46-.53-17.59-6-30,3.28a.36.36,0,0,1-.5-.07.37.37,0,0,1,.07-.51c10.88-8.17,24.51-5.22,29.16-3.86a351.42,351.42,0,0,0-30.63-25.11c-2.13-.84-17.68-6.46-33.21,3.37a.34.34,0,0,1-.17.05.36.36,0,0,1-.22-.66,38.56,38.56,0,0,1,31.57-4.2c-10.42-7.38-21.75-14.28-32.86-18.9-2.08-.68-9.81-2.45-21.43,3.76a.23.23,0,0,1-.14,0,.34.34,0,0,1-.34-.19A.36.36,0,0,1,70.16,375.85Z"/><path class="cls-15" d="M194.22,438s16.27-30.11,8.31-45.51-19.42-9.35-20.05-23.8-2.93-26.56-12.15-34.59-18.66-7.84-29.22-20.49-23.67-18.39-33.26-12.54-6.9,25.81,2.66,30.66,0,17.66,9.09,32,19.14,9.69,22.47,22.65S120.68,429.89,194.22,438Z"/><path class="cls-14" d="M106.59,316.78c11.91-.39,19.47,2.5,23.8,5.1a86.19,86.19,0,0,0-19.26-15.77.48.48,0,0,1-.18-.65.48.48,0,0,1,.65-.17c8,4.61,15.63,11.43,22.76,19.56a8.9,8.9,0,0,1,.78.84.51.51,0,0,1,.09.18,188.41,188.41,0,0,1,14.64,19.69c0-3.76,1-13.4,9.36-16.44a.47.47,0,0,1,.6.28.48.48,0,0,1-.28.61c-9.73,3.53-8.72,16.87-8.71,17s0,0,0,0c4.61,7.15,8.9,14.63,12.84,22.06l.21.24a.45.45,0,0,1,.1.36c4.72,8.94,8.92,17.81,12.53,26,.08-4,.88-12.65,6-19.52a.47.47,0,0,1,.66-.09.48.48,0,0,1,.1.66c-6.65,8.91-5.79,21-5.78,21.08s0,.05,0,.07c3.36,7.69,6.17,14.68,8.39,20.46a.46.46,0,0,1,.11.29c3.65,9.52,5.65,15.66,5.73,15.9a.47.47,0,0,1-.3.6.49.49,0,0,1-.32,0,.44.44,0,0,1-.27-.29c-.07-.19-1.31-4-3.6-10.21h-.05a.42.42,0,0,1-.14-.09c-.2-.19-19.76-18.64-39.2-16.19a.47.47,0,1,1-.12-.93c17.2-2.17,34.38,11.55,38.85,15.43-.47-1.25-1-2.57-1.51-4-1.41-1.47-17.09-17.23-37-13.51a.5.5,0,0,1-.27,0,.48.48,0,0,1-.28-.35.47.47,0,0,1,.38-.55c17.45-3.27,31.7,8.05,36.36,12.33a458.54,458.54,0,0,0-21.33-47.08c-2-2.22-16.95-17.78-40.8-15.27a.45.45,0,0,1-.23,0,.47.47,0,0,1,.13-.91c20.09-2.11,34,8.35,39.37,13.34-7.92-14.65-17.2-29.28-27.53-41.12-2-2-10.06-8.53-27.24-8a.45.45,0,0,1-.2,0,.49.49,0,0,1-.29-.42A.46.46,0,0,1,106.59,316.78Z"/><polygon class="cls-16" points="306.94 437.06 120.64 427.05 41.24 434.69 22.24 434.52 22.24 436.51 282.57 452.72 351.54 439.46 351.54 437.46 306.94 437.06"/><polygon class="cls-2" points="22.24 434.52 282.57 450.73 351.54 437.46 120.64 425.05 22.24 434.52"/><circle class="cls-17" cx="224.94" cy="96.65" r="53.84" transform="translate(-2.46 187.37) rotate(-45)"/><path class="cls-14" d="M203.5,82a35.08,35.08,0,0,1,9-23.55,36.84,36.84,0,1,0,46.51,52.31A35.22,35.22,0,0,1,203.5,82Z"/><polygon class="cls-14" points="237.64 64.15 243.62 76.28 257 78.22 247.32 87.66 249.6 100.98 237.64 94.69 225.67 100.98 227.96 87.66 218.28 78.22 231.66 76.28 237.64 64.15"/><path class="cls-14" d="M182,38.48a1.67,1.67,0,0,1-3.33,0,1.67,1.67,0,1,1,3.33,0Z"/><path class="cls-14" d="M257.26,21.65a1.5,1.5,0,1,1-1.5-1.5A1.5,1.5,0,0,1,257.26,21.65Z"/><path class="cls-14" d="M246.27,47.8a1,1,0,1,1-1-1A1,1,0,0,1,246.27,47.8Z"/><circle class="cls-14" cx="309.89" cy="111.43" r="1.33"/><path class="cls-14" d="M293.9,63.63a.83.83,0,1,1-.83-.83A.83.83,0,0,1,293.9,63.63Z"/><circle class="cls-14" cx="105.35" cy="77.79" r="1"/><path class="cls-14" d="M160.65,108.93a1.5,1.5,0,1,1-1.5-1.5A1.5,1.5,0,0,1,160.65,108.93Z"/><circle class="cls-14" cx="156.82" cy="69.96" r="1.83"/><path class="cls-14" d="M285.25,133.75a1.34,1.34,0,1,1-1.33-1.33A1.33,1.33,0,0,1,285.25,133.75Z"/><path class="cls-14" d="M195,141.58a1.17,1.17,0,1,1-1.16-1.17A1.17,1.17,0,0,1,195,141.58Z"/><circle class="cls-14" cx="334.46" cy="71.87" r="1.92"/><path class="cls-14" d="M119.34,111.6a1.17,1.17,0,1,1-1.16-1.17A1.16,1.16,0,0,1,119.34,111.6Z"/><path class="cls-14" d="M181.31,76.45A1.34,1.34,0,1,1,180,75.12,1.34,1.34,0,0,1,181.31,76.45Z"/><path class="cls-14" d="M193.85,19.9a1.75,1.75,0,1,1-1.75-1.74A1.75,1.75,0,0,1,193.85,19.9Z"/><path class="cls-14" d="M311.89,147.74a1.67,1.67,0,1,1-1.66-1.66A1.66,1.66,0,0,1,311.89,147.74Z"/><path class="cls-14" d="M275.93,94.6a.84.84,0,1,1-.84-.84A.84.84,0,0,1,275.93,94.6Z"/><circle class="cls-14" cx="183.14" cy="162.57" r="1.83"/><circle class="cls-14" cx="143.16" cy="136.92" r="1.83"/><path class="cls-18" d="M232.44,178.89s-12.82,12.83-14,24,2.83,21.32,5.83,22.48a7.14,7.14,0,0,1,3.66,9.83c-2.16,4.66-5.33,12-5.33,12l-2.16.67s.54-2.08-.21-6.5-3.08-14.95-3.75-14.9-2.54.29-3,4.83a64.89,64.89,0,0,0-.41,7.95,85.8,85.8,0,0,1-5.33-10.54c-1.67-4.37-3.58-10.57-4.88-11.61s-3-.88-3.08.75c0,0-1.16-5.25-4.33-4.21s-1.41,4-1.41,4-2.09-.59-2.75.66a6.07,6.07,0,0,0-.29,3.29s-2.34-.37-2.17,3.5,1.88,13.24,3.37,22.07,4.88,13,9.83,13.45l-36.35,40.93s-4.37-11.24-5.08-21.52-1.75-16.29-1.17-19.95,1.54-8.12-3.25-12.87-7.12-7-7.12-7a71,71,0,0,0-.95-8.64c-.71-3.42-1.34-5.21-2.84-5.62,0,0,.38-4.25-1.62-4.34,0,0,.46-5.12-2.25-5.28,0,0-.12-3.17-2.12-3.29s-1.46,2.79-1.46,2.79-1.87-.46-2.21,4.37-1.08,18.57-.83,20.24,1.46,2.37,4.33,6.37,6.79,6.45,6.62,12.37-.5,27.15-.62,34-1.54,41.27,10.82,43,45.48-28.23,45.48-28.23L210,371.4s-71.79,16.86-80.29,28.36-11.74,19.36-6.5,24.73,40.36,14,79.71,12.87,79.57,1.75,79.7-5.5-1.75-88.57-1.75-88.57L263.34,242.23s-4.5-11.12-4.5-14.74,7.75-.63,10.87-13.5,3.62-22.86-4.87-30.23S242.75,165.28,232.44,178.89Z"/><path class="cls-19" d="M226.26,238.9l22.59-6-10.16-18.08C235.77,227.52,226,226.39,226,226.39,239.17,227.5,226.26,238.9,226.26,238.9Z"/><path class="cls-19" d="M198.5,242.6l3.11,4.5.89,6.87s1.91-11.8,4.57-16.45c-1.53,2-4,5.7-4.57,8.45Z"/><path class="cls-19" d="M207.07,237.52c.69-.92,1.18-1.5,1.18-1.5A5.19,5.19,0,0,0,207.07,237.52Z"/><path class="cls-19" d="M199.05,233c.69.63-3.66-11.64-5.5-16.78a4.05,4.05,0,0,0,.46,1.38,4.32,4.32,0,0,0-1-.13C194.55,221.88,198.35,232.4,199.05,233Z"/><path class="cls-19" d="M200.55,216.55a1.31,1.31,0,0,0-.8,1.28,10,10,0,0,0-.71-2c.29,2.31,4.5,17.65,5.54,18.9S200.62,216.81,200.55,216.55Z"/><path class="cls-19" d="M191,221.57a1.72,1.72,0,0,0-.76.1c1.4,4.28,4.06,12.22,4.67,12.77s-2.65-10.73-3.95-15.1A7.6,7.6,0,0,0,191,221.57Z"/><path class="cls-19" d="M141.87,234.57c-.21-4.46-1.29-8.14,4.08-8.28,0,0-.31-.47-2.11-.51l-.22-4.17-.5,4.38s-2,.46-1.91,4.12.25,13.82,1.16,15.74S146,252,146,252a23.14,23.14,0,0,0-2.79-5.45C142,245.14,142.08,239,141.87,234.57Z"/><path class="cls-19" d="M141.82,216.41l-.45-.08-.25-1.41c0,.11.31,13.19.31,13.19Z"/><path class="cls-19" d="M137.79,215.83h-.31s1.89,18.86,3,22.69L138,213.72A6.68,6.68,0,0,0,137.79,215.83Z"/><path class="cls-20" d="M136.59,388.54s-15.41,7.22-18.41,13.46-8.75,23.49-2,29.24,73.45,11.21,103.19,10.49,85.44-1.55,88.19-4.27,4.5-4.72,4.25-6.72-12.24-16.16-16.41-21.49Z"/><path d="M137.17,394.13l17.06,15.28c-6.37-1.54-14.29-1.41-23.43,2.84a54,54,0,0,1,28.46,1.47l26.33,20.8,2.42-8.4-51.42-37.58Z"/><polygon points="269.75 435.48 249.84 440.84 270.96 437.86 295.4 409.25 269.75 435.48"/><path class="cls-14" d="M223.28,240l34-12.83,7.16,11.33-1,1.5,5,1.83s7,31,14.16,66.3,5.66,83.44,5.66,83.44,2.33,9.5,3,12.33,4.16,5.33,4.16,5.33l-25.65,27.08s-16.66,3.85-31.11,7a64.35,64.35,0,0,1-34.5-2c-5.83-2-11.5-3.78-13.51-3.86-4.67-.19-16.53-13.78-28.48-23.55-9.84-8-24.15-21.15-24.15-21.15l-2-6s66.46-17.82,68-20.48-6.16-50.81-6.16-50.81-31.48,24.32-37.65,26.65-11.32-4.83-13.82-8S140,307.65,140,301.82s4.16-14.66,4.16-14.66l1.31-16.66s7.2-6.28,14.27-.31l2.91,13.64,3,7.66.17,7.33s37.14-43.48,40.14-46,16.65-8,16.65-8Z"/><polygon class="cls-21" points="223.28 240.02 222.61 244.85 247.61 239.52 263.42 240.02 264.42 238.52 257.26 227.19 223.28 240.02"/><path class="cls-21" d="M244.1,358.7s-14.66-6.25-24.4-17.16-17.07-27.07-17.07-27.07l13.07-16.15-17.9,17.15L202.66,349l-2-24.81s.41,3,11.74,26.19S240,381.77,240,381.77c-15.74-9.75-29-46.72-29-46.72C226,355.37,244.1,358.7,244.1,358.7Z"/><path class="cls-21" d="M204.26,365.7l-4.57,2.57c.74,26.59,20.39,42,20.39,42C208.74,399.93,204.26,365.7,204.26,365.7Z"/><path class="cls-21" d="M138,392.76l21.4,18.87,18.74.62c-8-2.5-20.32-5.16-20.32-5.16Z"/><path class="cls-21" d="M165.69,293.32c-5.54,2.41-11.62,19.57-11.62,19.57l11.75-14.07Z"/><polygon class="cls-21" points="291.96 405.61 269.75 436.33 295.4 409.25 291.96 405.61"/><path class="cls-22" d="M233.69,177.39s-11.33,4.67-13.91,9.91c0,0,5.08-2.33,7-2.25,0,0-5.63,9.75-4.79,16.33,0,0,2.5-4.75,4.79-6.25,0,0-4.2,12.41-1,17l9,3.34s-2.08,10.36,2.17,14.94l.74-2.33s4.25,11.41,17.83,9.49,14.74-8.91,14.74-8.91l-3.92,1.67s5.58-5.42,6.5-9.08l-.83,4.41a14.8,14.8,0,0,0,3.42-10.83"/><ellipse class="cls-19" cx="234.69" cy="206.4" rx="10.71" ry="8.22" transform="translate(-77.79 200.12) rotate(-40.18)"/><path class="cls-14" d="M233.36,177.76s8.24-17.23,12.12-18.86,22.48,2.26,32.35,13.56A46.48,46.48,0,0,1,288.7,197l-13.36,17.78s-14.32-.66-30.24-15.4C230.68,186,233.36,177.76,233.36,177.76Z"/><path class="cls-23" d="M245.1,199.38c15.92,14.74,30.24,15.4,30.24,15.4l7.91-10.52c-3.69,4.91-4.42,3.11-10.92-1.13s2.5,5.49-11.4,1-27.57-26.37-27.57-26.37S230.68,186,245.1,199.38Z"/></g></g></svg>