<?xml version="1.0" standalone="no"?>
<!DOCTYPE svg PUBLIC "-//W3C//DTD SVG 20010904//EN"
 "http://www.w3.org/TR/2001/REC-SVG-20010904/DTD/svg10.dtd">
<svg version="1.0" xmlns="http://www.w3.org/2000/svg"
 width="512.000000pt" height="512.000000pt" viewBox="0 0 512.000000 512.000000"
 preserveAspectRatio="xMidYMid meet">
<metadata>
Created by potrace 1.16, written by Peter Selinger 2001-2019
</metadata>
<g transform="translate(0.000000,512.000000) scale(0.100000,-0.100000)"
fill="#000000" stroke="none">
<path d="M3183 5100 c-108 -39 -195 -119 -247 -229 l-31 -66 -3 -234 c-2 -129
-1 -245 3 -258 3 -14 20 -30 40 -40 l35 -17 0 -95 c0 -72 5 -106 19 -137 22
-47 71 -89 119 -99 l32 -7 0 -162 0 -163 -57 -6 c-38 -3 -156 -41 -347 -111
-159 -59 -290 -105 -291 -104 -1 2 -12 21 -23 43 -29 57 -87 109 -157 142 -51
24 -72 28 -145 28 -70 -1 -95 -5 -141 -27 -115 -53 -177 -145 -204 -298 -28
-159 0 -137 -320 -255 -154 -56 -281 -101 -283 -100 -2 1 2 31 7 66 43 265 11
595 -86 873 -62 179 -109 242 -222 295 -47 22 -70 26 -141 26 -71 0 -94 -4
-141 -26 -78 -37 -134 -90 -168 -163 -39 -80 -46 -142 -27 -238 26 -133 29
-234 12 -346 -23 -149 -53 -207 -183 -345 -133 -141 -233 -288 -233 -341 0
-21 5 -46 11 -57 14 -27 56 -42 96 -34 28 5 42 20 97 104 36 54 109 145 163
202 54 58 113 127 130 155 102 158 137 426 89 677 -18 92 -8 137 38 183 43 43
103 61 156 45 68 -20 95 -52 138 -164 92 -236 128 -505 101 -737 -21 -171 -19
-252 7 -286 36 -49 70 -67 131 -72 52 -3 78 4 262 72 112 42 206 74 208 73 2
-2 -22 -29 -53 -60 -41 -41 -84 -69 -162 -107 -252 -123 -459 -293 -631 -519
-34 -44 -85 -99 -114 -120 -129 -97 -311 -157 -535 -177 -103 -8 -132 -27
-132 -84 0 -53 8 -68 43 -86 35 -19 135 -13 287 16 270 51 461 159 591 333 91
121 262 285 376 360 54 36 145 88 203 116 58 28 131 72 162 96 136 108 244
312 294 554 27 131 49 172 112 202 56 27 114 20 164 -21 57 -47 68 -81 68
-215 0 -272 -62 -517 -198 -779 -48 -93 -57 -118 -57 -161 1 -62 30 -114 83
-147 l37 -23 1035 -5 c1001 -5 1037 -6 1065 -24 115 -76 105 -231 -19 -287
-39 -18 -85 -19 -881 -19 -644 -1 -844 -3 -856 -13 -44 -34 -50 -93 -15 -134
l24 -28 1074 -5 1075 -5 37 -29 c49 -37 70 -86 63 -149 -5 -57 -29 -94 -83
-124 l-39 -23 -1058 0 -1059 0 -29 -29 c-44 -44 -35 -116 18 -140 17 -8 268
-11 856 -11 788 0 834 -1 873 -19 111 -51 133 -184 44 -265 -22 -20 -41 -37
-43 -38 -1 -2 -391 -5 -865 -8 l-864 -5 -24 -28 c-32 -38 -32 -90 1 -122 l24
-25 628 0 c589 0 630 -2 668 -19 126 -58 140 -211 26 -288 l-34 -23 -1326 0
c-745 0 -1357 5 -1396 10 -98 13 -190 43 -260 86 -249 152 -414 212 -646 234
-91 9 -114 8 -138 -4 -33 -18 -41 -34 -41 -85 0 -62 26 -77 150 -90 195 -19
344 -70 522 -177 125 -75 192 -105 298 -130 70 -17 169 -18 1466 -21 1385 -4
1392 -4 1447 17 159 60 253 249 203 411 -10 29 -20 60 -22 67 -4 9 17 12 90
12 133 0 191 22 272 104 44 45 66 77 80 116 24 69 24 189 0 244 -9 21 -16 40
-16 41 0 2 46 4 103 7 92 3 110 7 170 36 119 59 180 154 185 292 5 114 -21
184 -92 255 -78 77 -129 98 -259 103 -95 4 -107 6 -102 21 4 9 14 44 22 79 19
74 9 152 -27 228 -30 61 -102 129 -165 155 l-52 22 -6 54 c-4 35 -18 76 -41
119 l-36 65 0 732 0 732 49 18 c91 32 121 92 121 240 0 85 0 87 24 87 41 0
141 -35 210 -74 88 -49 191 -133 306 -250 89 -90 97 -96 136 -96 29 0 46 6 62
23 22 23 22 25 22 489 0 429 -1 467 -17 487 -27 31 -203 134 -307 180 -50 22
-131 52 -181 68 l-90 28 -645 2 c-609 2 -648 1 -697 -17z m1341 -180 c106 -27
226 -76 329 -135 l87 -50 0 -289 0 -288 -52 44 c-120 101 -222 162 -339 206
l-74 27 -697 3 -698 3 0 146 c0 83 5 163 12 185 15 51 77 120 130 147 42 21
53 21 634 21 556 0 595 -1 668 -20z m-344 -740 l0 -80 -510 0 -510 0 0 80 0
80 510 0 510 0 0 -80z m-600 -490 l0 -231 25 -24 c27 -28 88 -34 116 -12 35
27 39 53 39 276 l0 221 125 0 125 0 0 -682 0 -683 -87 0 c-49 0 -98 -4 -109
-8 -18 -6 -26 0 -54 43 -81 125 -261 230 -397 230 l-33 0 0 550 0 550 125 0
125 0 0 -230z m-432 -447 l-3 -166 -65 -24 c-36 -14 -113 -42 -172 -63 l-106
-39 -28 57 c-31 64 -124 161 -172 181 -18 8 -32 17 -32 21 0 11 521 199 553
200 l27 0 -2 -167z m-585 -252 c57 -52 72 -96 70 -203 -2 -91 -1 -97 24 -122
19 -19 36 -26 65 -26 42 0 103 -26 130 -57 10 -10 24 -34 32 -54 25 -60 74
-87 123 -68 13 5 47 34 74 64 117 127 284 149 431 56 57 -36 112 -108 134
-176 29 -91 99 -123 161 -71 15 12 38 28 50 35 31 16 109 14 143 -4 37 -19 78
-73 86 -113 l7 -32 -932 0 -931 0 53 108 c109 217 163 405 192 665 l7 58 26
-17 c15 -9 40 -28 55 -43z m587 -156 c0 -42 -2 -46 -35 -59 -19 -8 -54 -28
-79 -45 l-43 -30 -22 23 c-12 13 -38 32 -56 42 l-35 18 128 48 c70 26 130 47
135 48 4 0 7 -20 7 -45z"/>
<path d="M3634 3240 c-45 -18 -54 -47 -54 -173 0 -112 1 -119 25 -142 30 -31
92 -34 126 -6 23 18 24 27 27 144 3 118 2 125 -20 151 -25 29 -71 40 -104 26z"/>
</g>
</svg>
