<?xml version="1.0" standalone="no"?>
<!DOCTYPE svg PUBLIC "-//W3C//DTD SVG 20010904//EN"
 "http://www.w3.org/TR/2001/REC-SVG-20010904/DTD/svg10.dtd">
<svg version="1.0" xmlns="http://www.w3.org/2000/svg"
 width="512.000000pt" height="512.000000pt" viewBox="0 0 512.000000 512.000000"
 preserveAspectRatio="xMidYMid meet">
<metadata>
Created by potrace 1.16, written by Peter Selinger 2001-2019
</metadata>
<g transform="translate(0.000000,512.000000) scale(0.100000,-0.100000)"
fill="#000000" stroke="none">
<path d="M465 5101 c-223 -65 -392 -238 -449 -458 -21 -80 -21 -246 0 -326 58
-225 244 -410 466 -462 81 -19 235 -19 317 0 269 64 480 326 481 598 0 82 -18
107 -78 107 -46 0 -59 -10 -101 -77 -61 -97 -165 -154 -281 -154 -187 0 -330
144 -330 331 0 117 50 211 147 275 75 51 83 61 83 107 0 62 -25 78 -117 77
-43 0 -105 -8 -138 -18z m-125 -276 c-22 -59 -31 -157 -20 -234 38 -276 288
-466 568 -431 37 5 81 14 97 20 29 11 29 11 -10 -30 -90 -92 -203 -140 -334
-140 -166 0 -311 80 -402 221 -88 137 -93 336 -12 479 21 36 109 140 120 140
1 0 -2 -11 -7 -25z"/>
<path d="M2968 5003 c-112 -126 -209 -193 -618 -433 -481 -281 -693 -430 -875
-614 -118 -119 -184 -208 -246 -331 -68 -138 -89 -216 -96 -357 -11 -228 49
-435 182 -625 39 -55 42 -63 27 -75 -32 -26 -129 -166 -169 -243 -54 -106 -88
-204 -113 -324 -19 -95 -20 -136 -20 -910 0 -798 0 -811 20 -831 19 -19 33
-20 442 -20 l421 0 51 -39 c63 -49 163 -97 230 -111 34 -7 421 -9 1178 -8
l1126 3 43 30 c25 18 53 50 67 78 l25 47 178 0 c166 0 180 1 199 20 20 20 20
33 20 831 0 774 -1 815 -20 910 -25 120 -59 218 -113 324 -40 77 -137 217
-169 243 -15 12 -12 20 28 77 60 86 128 231 156 335 19 71 23 110 23 235 0
182 -14 242 -90 400 -64 131 -128 218 -250 341 -182 184 -394 333 -875 614
-410 240 -513 313 -623 438 -23 26 -36 32 -67 32 -32 0 -44 -7 -72 -37z m135
-236 c88 -75 220 -159 532 -342 481 -281 648 -398 836 -585 213 -210 308 -401
309 -617 0 -193 -86 -413 -220 -563 -60 -66 -56 -92 26 -181 121 -132 212
-296 254 -454 34 -130 40 -276 40 -967 l0 -658 -129 0 -130 0 -20 29 c-30 42
-75 67 -156 87 -101 24 -160 59 -209 124 -50 66 -131 125 -200 145 -34 10 -96
15 -198 15 -81 0 -148 3 -148 6 0 4 14 22 30 41 38 43 83 132 105 206 14 49
16 108 12 464 -3 378 -5 414 -25 489 -49 189 -147 362 -291 516 -45 47 -81 93
-81 100 0 8 25 32 56 53 69 48 127 123 157 201 20 54 22 81 25 320 3 260 3
262 -23 340 -57 173 -179 296 -349 356 -69 24 -97 28 -186 28 -89 0 -117 -4
-186 -28 -169 -59 -287 -177 -346 -346 -28 -81 -28 -82 -28 -339 0 -234 2
-263 21 -320 40 -120 133 -228 244 -282 54 -27 55 -28 55 -72 0 -40 -6 -51
-56 -106 -100 -111 -185 -260 -220 -386 l-17 -61 -156 153 c-172 169 -201 187
-311 187 -113 0 -206 -55 -254 -152 -21 -42 -26 -66 -26 -127 1 -123 7 -132
307 -433 l266 -266 -211 -106 c-185 -94 -219 -114 -275 -170 -73 -71 -138
-188 -157 -283 -18 -85 -8 -254 19 -323 11 -30 21 -56 21 -57 0 -2 -138 -3
-306 -3 l-306 0 5 743 c4 619 7 754 20 812 45 206 130 369 271 524 82 89 84
108 20 186 -72 89 -121 171 -155 258 -124 322 -54 605 219 889 176 182 400
341 867 613 301 176 465 282 540 349 28 25 51 45 53 46 1 0 31 -24 65 -53z
m179 -1049 c77 -36 151 -107 188 -181 53 -106 85 -97 -350 -97 -432 0 -400 -8
-356 87 45 95 137 176 239 209 70 23 210 14 279 -18z m234 -579 c-4 -77 -14
-163 -22 -190 -18 -59 -69 -120 -133 -156 -76 -44 -81 -50 -81 -112 l0 -56
-113 -33 c-61 -18 -115 -32 -119 -32 -5 0 -8 29 -8 65 0 75 -16 97 -84 114
-90 22 -189 118 -217 209 -6 20 -13 103 -16 185 l-6 147 403 0 403 0 -7 -141z
m-110 -752 c122 -128 195 -260 240 -432 24 -94 26 -119 31 -400 8 -435 -8
-517 -121 -631 -66 -65 -136 -100 -231 -114 -39 -5 -217 -10 -397 -10 -315 0
-329 -1 -348 -20 -27 -27 -27 -93 0 -120 20 -20 33 -20 560 -20 l540 0 0 -200
0 -200 -662 0 c-391 0 -692 5 -733 10 -139 21 -252 101 -316 227 -33 64 -34
72 -34 178 0 105 2 114 33 177 53 108 108 150 365 280 l222 112 115 0 c169 1
169 1 443 274 263 262 277 283 277 402 0 62 -5 86 -26 128 -48 97 -141 152
-254 152 -99 0 -143 -23 -254 -129 -104 -102 -106 -101 -61 12 34 86 83 161
151 235 l61 66 154 47 c85 26 159 48 165 48 6 1 42 -32 80 -72z m-1211 -263
c19 -15 35 -29 35 -33 0 -4 -36 -42 -80 -86 l-81 -80 -29 35 c-40 48 -46 82
-23 128 21 44 75 75 116 68 15 -3 43 -18 62 -32z m965 -129 c57 -30 77 -94 46
-153 -21 -40 -405 -417 -445 -437 -49 -25 -128 -16 -178 18 -21 15 -117 105
-213 202 l-175 175 82 82 83 82 148 -147 c152 -151 167 -160 215 -136 12 6 94
83 183 170 174 172 186 179 254 144z m850 -1385 c20 -10 67 -53 106 -97 81
-89 137 -124 239 -149 92 -22 117 -38 113 -72 -6 -48 -28 -52 -340 -52 l-288
0 0 201 0 201 67 -7 c38 -4 84 -15 103 -25z"/>
<path d="M3940 3820 c-13 -13 -20 -33 -20 -60 0 -27 7 -47 20 -60 13 -13 33
-20 60 -20 27 0 47 7 60 20 13 13 20 33 20 60 0 27 -7 47 -20 60 -13 13 -33
20 -60 20 -27 0 -47 -7 -60 -20z"/>
<path d="M1860 3500 c-17 -17 -20 -33 -20 -100 0 -96 16 -120 80 -120 64 0 80
24 80 120 0 96 -16 120 -80 120 -27 0 -47 -7 -60 -20z"/>
<path d="M1620 3260 c-13 -13 -20 -33 -20 -60 0 -64 24 -80 120 -80 96 0 120
16 120 80 0 64 -24 80 -120 80 -67 0 -83 -3 -100 -20z"/>
<path d="M2020 3260 c-13 -13 -20 -33 -20 -60 0 -64 24 -80 120 -80 96 0 120
16 120 80 0 64 -24 80 -120 80 -67 0 -83 -3 -100 -20z"/>
<path d="M1860 3100 c-17 -17 -20 -33 -20 -100 0 -96 16 -120 80 -120 64 0 80
24 80 120 0 96 -16 120 -80 120 -27 0 -47 -7 -60 -20z"/>
<path d="M4340 1980 c-13 -13 -20 -33 -20 -60 0 -53 27 -80 80 -80 53 0 80 27
80 80 0 27 -7 47 -20 60 -13 13 -33 20 -60 20 -27 0 -47 -7 -60 -20z"/>
<path d="M4660 5020 c-17 -17 -20 -33 -20 -100 0 -96 16 -120 80 -120 64 0 80
24 80 120 0 96 -16 120 -80 120 -27 0 -47 -7 -60 -20z"/>
<path d="M4420 4780 c-13 -13 -20 -33 -20 -60 0 -64 24 -80 120 -80 96 0 120
16 120 80 0 64 -24 80 -120 80 -67 0 -83 -3 -100 -20z"/>
<path d="M4820 4780 c-13 -13 -20 -33 -20 -60 0 -64 24 -80 120 -80 96 0 120
16 120 80 0 64 -24 80 -120 80 -67 0 -83 -3 -100 -20z"/>
<path d="M4660 4620 c-17 -17 -20 -33 -20 -100 0 -96 16 -120 80 -120 64 0 80
24 80 120 0 96 -16 120 -80 120 -27 0 -47 -7 -60 -20z"/>
<path d="M660 2460 c-13 -13 -20 -33 -20 -60 0 -53 27 -80 80 -80 27 0 47 7
60 20 13 13 20 33 20 60 0 53 -27 80 -80 80 -27 0 -47 -7 -60 -20z"/>
<path d="M340 1020 c-17 -17 -20 -33 -20 -100 0 -96 16 -120 80 -120 64 0 80
24 80 120 0 96 -16 120 -80 120 -27 0 -47 -7 -60 -20z"/>
<path d="M100 780 c-27 -27 -27 -93 0 -120 17 -17 33 -20 100 -20 96 0 120 16
120 80 0 64 -24 80 -120 80 -67 0 -83 -3 -100 -20z"/>
<path d="M500 780 c-13 -13 -20 -33 -20 -60 0 -64 24 -80 120 -80 96 0 120 16
120 80 0 64 -24 80 -120 80 -67 0 -83 -3 -100 -20z"/>
<path d="M340 620 c-17 -17 -20 -33 -20 -100 0 -96 16 -120 80 -120 64 0 80
24 80 120 0 96 -16 120 -80 120 -27 0 -47 -7 -60 -20z"/>
</g>
</svg>
