<?xml version="1.0" standalone="no"?>
<!DOCTYPE svg PUBLIC "-//W3C//DTD SVG 20010904//EN"
 "http://www.w3.org/TR/2001/REC-SVG-20010904/DTD/svg10.dtd">
<svg version="1.0" xmlns="http://www.w3.org/2000/svg"
 width="512.000000pt" height="512.000000pt" viewBox="0 0 512.000000 512.000000"
 preserveAspectRatio="xMidYMid meet">
<metadata>
Created by potrace 1.16, written by Peter Selinger 2001-2019
</metadata>
<g transform="translate(0.000000,512.000000) scale(0.100000,-0.100000)"
fill="#000000" stroke="none">
<path d="M458 4672 l-438 -437 0 -1576 0 -1575 28 -55 c30 -60 91 -112 150
-129 23 -6 226 -10 545 -10 l509 0 29 29 c39 40 41 97 3 135 l-27 26 -497 0
c-488 0 -498 0 -524 21 l-26 20 0 1490 0 1489 308 0 c302 0 308 1 357 24 62
29 107 76 137 141 22 48 23 62 26 353 l4 302 1072 0 c1027 0 1074 -1 1089 -18
16 -17 17 -85 17 -779 0 -530 3 -770 11 -792 27 -77 138 -80 174 -5 14 30 15
120 13 816 l-3 783 -30 54 c-16 29 -43 64 -60 77 -75 57 -4 54 -1267 54
l-1163 0 -437 -438z m382 -117 l0 -216 -26 -24 c-27 -25 -28 -25 -243 -25
l-216 0 240 240 c132 132 241 240 242 240 2 0 3 -97 3 -215z"/>
<path d="M1285 4445 c-19 -18 -25 -35 -25 -70 0 -63 31 -95 93 -95 61 0 97 35
97 95 0 60 -36 95 -97 95 -33 0 -50 -6 -68 -25z"/>
<path d="M1663 4455 c-34 -24 -47 -76 -29 -118 8 -20 23 -40 34 -46 30 -16
1255 -15 1285 1 34 18 46 40 47 84 0 32 -6 48 -26 68 l-27 26 -631 0 c-546 0
-634 -2 -653 -15z"/>
<path d="M1313 4005 c-39 -16 -53 -42 -53 -92 1 -41 13 -63 47 -81 63 -34 143
12 143 83 0 49 -15 74 -55 91 -41 17 -42 17 -82 -1z"/>
<path d="M1667 3999 c-32 -19 -50 -75 -37 -115 22 -66 2 -64 689 -64 l619 0
31 26 c26 22 31 33 31 70 0 34 -6 51 -25 69 l-24 25 -633 0 c-432 -1 -639 -4
-651 -11z"/>
<path d="M2425 3436 c-109 -50 -165 -150 -165 -292 l0 -72 -242 -4 c-238 -3
-244 -4 -300 -30 -117 -54 -203 -166 -228 -293 -8 -44 -10 -390 -8 -1260 l3
-1200 21 -52 c33 -79 88 -147 156 -192 l60 -41 1382 0 1381 1 287 269 287 270
6 52 c3 29 5 528 3 1108 l-3 1055 -23 58 c-47 115 -139 202 -251 237 -55 17
-92 20 -281 20 l-217 0 -5 88 c-6 107 -34 176 -92 230 -61 57 -119 76 -211 70
-89 -6 -150 -38 -202 -106 -41 -55 -53 -98 -53 -199 l0 -83 -455 0 -455 0 0
88 c0 79 -3 96 -31 150 -50 102 -135 152 -253 152 -43 0 -76 -7 -111 -24z
m172 -190 l28 -24 3 -209 c3 -227 -1 -247 -52 -271 -32 -16 -69 -9 -96 18 -19
19 -20 34 -20 240 l0 221 25 24 c31 32 75 32 112 1z m1468 -1 l25 -24 0 -220
0 -219 -32 -27 c-38 -32 -81 -29 -115 11 -22 24 -23 32 -23 235 l0 211 29 29
c38 37 82 39 116 4z m-1802 -434 c7 -87 37 -151 94 -201 59 -51 128 -74 207
-68 73 6 128 32 177 85 53 55 72 99 77 181 l5 72 453 0 454 0 1 -62 c1 -74 13
-111 55 -170 41 -58 118 -99 199 -106 162 -13 285 98 302 271 l6 67 196 0
c108 0 211 -4 230 -10 48 -13 93 -47 122 -89 23 -35 24 -44 27 -223 l3 -188
-1595 0 -1596 0 0 178 c0 167 2 182 23 222 50 95 96 109 353 110 l201 0 6 -69z
m2607 -1330 l0 -690 -217 -3 c-214 -3 -219 -3 -268 -30 -65 -34 -118 -90 -146
-153 -20 -45 -23 -71 -27 -242 l-5 -193 -1184 0 c-1046 0 -1188 2 -1221 15
-47 20 -79 50 -103 97 -18 36 -19 73 -19 963 l0 925 1595 0 1595 0 0 -689z
m-70 -915 c-19 -18 -114 -107 -210 -197 l-175 -164 -3 152 c-4 237 2 242 258
243 l165 0 -35 -34z"/>
<path d="M3125 1986 c-272 -53 -502 -235 -612 -484 -86 -194 -85 -471 2 -667
83 -187 256 -355 443 -431 117 -47 179 -58 322 -57 116 0 147 4 223 27 239 72
416 224 522 449 58 121 70 183 70 352 0 129 -3 160 -23 225 -48 151 -127 277
-240 381 -105 97 -213 156 -358 194 -82 22 -262 28 -349 11z m309 -202 c231
-59 413 -253 462 -494 62 -309 -119 -617 -428 -726 -73 -26 -194 -36 -276 -24
-490 73 -716 630 -415 1022 151 198 409 284 657 222z"/>
<path d="M3413 1288 l-163 -162 -115 114 c-113 113 -116 115 -161 115 -60 0
-94 -36 -94 -98 0 -40 5 -46 158 -198 159 -160 185 -178 240 -165 17 5 100 80
230 210 199 200 202 203 202 245 0 58 -41 101 -96 101 -35 0 -48 -10 -201
-162z"/>
</g>
</svg>
