<?xml version="1.0" standalone="no"?>
<!DOCTYPE svg PUBLIC "-//W3C//DTD SVG 20010904//EN"
 "http://www.w3.org/TR/2001/REC-SVG-20010904/DTD/svg10.dtd">
<svg version="1.0" xmlns="http://www.w3.org/2000/svg"
 width="512.000000pt" height="512.000000pt" viewBox="0 0 512.000000 512.000000"
 preserveAspectRatio="xMidYMid meet">
<metadata>
Created by potrace 1.16, written by Peter Selinger 2001-2019
</metadata>
<g transform="translate(0.000000,512.000000) scale(0.100000,-0.100000)"
fill="#000000" stroke="none">
<path d="M1090 5109 c-92 -37 -140 -121 -140 -246 l0 -82 -207 -3 c-204 -3
-209 -4 -268 -31 -111 -52 -189 -150 -214 -267 -9 -41 -11 -567 -9 -2126 l3
-2071 40 -79 c47 -91 110 -150 200 -183 l56 -21 2022 2 2022 3 57 27 c75 35
142 104 181 186 l32 67 3 2070 c3 2172 4 2132 -40 2219 -33 65 -112 141 -181
172 -61 29 -65 29 -269 32 l-208 3 0 83 c0 104 -31 174 -98 221 -40 27 -52 30
-136 33 -110 4 -152 -11 -209 -78 -41 -48 -57 -103 -57 -194 l0 -66 -1110 0
-1110 0 0 66 c0 91 -16 146 -57 194 -54 63 -97 80 -195 79 -46 0 -94 -5 -108
-10z m178 -175 c18 -21 22 -37 22 -90 l0 -64 -90 0 -90 0 0 64 c0 81 6 95 44
112 40 18 85 9 114 -22z m2691 25 c42 -15 51 -35 51 -113 l0 -66 -90 0 -90 0
0 64 c0 70 22 111 63 119 12 2 25 5 28 6 3 0 20 -4 38 -10z m-3007 -487 c3
-143 4 -150 31 -190 50 -77 158 -124 226 -101 36 13 51 35 51 77 0 36 -33 67
-82 76 -59 11 -68 32 -68 168 l0 118 1280 0 1280 0 0 -118 c0 -147 15 -204 67
-254 51 -48 97 -70 153 -72 62 -1 90 22 90 76 0 45 -28 78 -66 78 -15 0 -38
12 -55 29 -29 29 -29 31 -29 145 l0 116 353 0 c393 0 397 -1 464 -71 60 -64
63 -83 63 -480 l0 -359 -1609 0 -1608 0 -27 -21 c-35 -28 -36 -80 -1 -114 l24
-25 1611 0 1610 0 0 -982 c0 -972 0 -982 -21 -1024 -12 -26 -36 -53 -57 -66
-36 -22 -46 -23 -352 -28 l-316 -5 -66 -33 c-78 -38 -129 -94 -159 -172 -17
-45 -19 -78 -19 -331 0 -171 -4 -297 -11 -324 -16 -62 -68 -111 -133 -125 -35
-7 -510 -10 -1521 -8 l-1470 3 -48 24 c-52 25 -92 71 -113 128 -11 31 -13 303
-14 1491 l0 1452 419 0 c396 0 420 1 442 19 33 27 33 95 0 122 -22 18 -46 19
-442 19 l-419 0 0 359 c0 397 3 416 63 480 60 63 90 71 294 71 l181 0 4 -148z
m3283 -3542 c-197 -197 -359 -358 -360 -357 0 1 2 139 5 307 5 296 6 306 27
336 13 18 42 41 65 53 41 20 58 21 333 21 l290 0 -360 -360z m465 -609 c-15
-58 -63 -116 -117 -142 l-48 -24 -1939 -3 c-1286 -1 -1958 1 -1995 8 -30 6
-72 21 -93 35 -38 25 -81 89 -92 137 l-6 27 57 -27 58 -27 1630 0 1630 0 60
33 c48 26 143 115 460 432 l400 400 3 -406 c1 -250 -2 -420 -8 -443z"/>
<path d="M780 3242 c-22 -12 -44 -35 -57 -62 -22 -42 -23 -56 -23 -249 0 -237
8 -270 79 -309 36 -21 51 -22 253 -22 234 0 259 5 303 64 19 26 20 42 20 266
0 226 -1 240 -21 267 -42 58 -67 63 -304 63 -189 0 -220 -2 -250 -18z m420
-312 l0 -170 -170 0 -170 0 0 170 0 170 170 0 170 0 0 -170z"/>
<path d="M1802 3243 c-18 -9 -43 -30 -55 -47 -21 -29 -22 -42 -25 -253 -3
-208 -2 -224 18 -262 37 -74 65 -81 311 -81 234 0 260 5 302 64 21 30 22 39
22 268 0 223 -1 238 -21 265 -42 58 -67 63 -304 63 -178 0 -221 -3 -248 -17z
m418 -313 l0 -170 -170 0 -170 0 0 170 0 170 170 0 170 0 0 -170z"/>
<path d="M2821 3242 c-19 -9 -44 -30 -55 -45 -20 -27 -21 -42 -21 -265 0 -229
1 -238 22 -268 42 -59 68 -64 302 -64 246 0 274 7 311 81 20 38 21 54 18 262
-3 211 -4 224 -25 253 -42 59 -67 64 -305 64 -183 0 -218 -2 -247 -18z m419
-312 l0 -170 -170 0 -170 0 0 170 0 170 170 0 170 0 0 -170z"/>
<path d="M3841 3242 c-19 -9 -44 -30 -55 -45 -20 -27 -21 -41 -21 -267 0 -224
1 -240 20 -266 44 -59 69 -64 303 -64 202 0 217 1 253 22 71 39 79 72 79 309
0 193 -1 207 -22 249 -39 75 -58 80 -308 80 -185 0 -220 -2 -249 -18z m419
-312 l0 -170 -170 0 -170 0 0 170 0 170 170 0 170 0 0 -170z"/>
<path d="M770 2308 c-67 -46 -71 -66 -68 -315 3 -206 4 -224 24 -249 50 -68
54 -69 292 -72 211 -3 218 -3 261 20 76 41 81 59 81 313 0 246 -4 264 -72 305
-30 18 -51 20 -259 20 -218 0 -227 -1 -259 -22z m430 -308 l0 -170 -170 0
-170 0 0 170 0 170 170 0 170 0 0 -170z"/>
<path d="M1789 2307 c-63 -42 -69 -67 -69 -301 0 -191 2 -213 21 -252 15 -31
32 -48 63 -63 38 -19 61 -21 246 -21 236 0 269 8 308 79 21 36 22 51 22 252 0
240 -5 264 -69 306 -33 22 -42 23 -261 23 -219 0 -228 -1 -261 -23z m431 -307
l0 -170 -170 0 -170 0 0 170 0 170 170 0 170 0 0 -170z"/>
<path d="M2809 2307 c-64 -42 -69 -66 -69 -306 0 -201 1 -216 22 -252 39 -71
72 -79 308 -79 185 0 208 2 246 21 31 15 48 32 63 63 19 39 21 61 21 252 0
234 -6 259 -69 301 -33 22 -42 23 -261 23 -219 0 -228 -1 -261 -23z m431 -307
l0 -170 -170 0 -170 0 0 170 0 170 170 0 170 0 0 -170z"/>
<path d="M3841 2292 c-19 -9 -44 -30 -55 -45 -20 -27 -21 -41 -21 -267 0 -224
1 -240 20 -266 44 -59 69 -64 303 -64 202 0 217 1 253 22 71 39 79 72 79 309
0 193 -1 207 -22 249 -39 75 -58 80 -308 80 -185 0 -220 -2 -249 -18z m419
-312 l0 -170 -170 0 -170 0 0 170 0 170 170 0 170 0 0 -170z"/>
<path d="M769 1377 c-63 -42 -69 -67 -69 -302 0 -235 6 -260 69 -302 33 -22
41 -23 267 -23 l232 0 32 26 c57 49 60 62 60 299 0 237 -3 250 -60 299 l-32
26 -232 0 c-226 0 -234 -1 -267 -23z m431 -302 l0 -175 -170 0 -170 0 0 175 0
175 170 0 170 0 0 -175z"/>
<path d="M1790 1378 c-64 -43 -70 -67 -70 -303 0 -236 6 -260 70 -303 34 -23
38 -23 271 -20 l237 3 28 25 c49 46 54 72 54 295 0 223 -5 249 -54 295 l-28
25 -237 3 c-233 3 -237 3 -271 -20z m430 -303 l0 -175 -170 0 -170 0 0 175 0
175 170 0 170 0 0 -175z"/>
<path d="M2825 1390 c-27 -11 -61 -49 -74 -83 -6 -16 -11 -64 -11 -108 0 -72
3 -82 25 -104 15 -16 36 -25 55 -25 19 0 40 9 55 25 22 21 25 33 25 90 l0 65
170 0 170 0 0 -175 0 -175 -169 0 -169 0 -6 25 c-4 16 -20 32 -41 42 -33 16
-37 16 -70 0 -59 -28 -60 -110 0 -175 l33 -37 239 -3 c235 -3 239 -3 273 20
64 43 70 67 70 303 0 235 -6 260 -69 302 -33 22 -41 23 -260 22 -124 0 -235
-4 -246 -9z"/>
</g>
</svg>
