<?xml version="1.0" standalone="no"?>
<!DOCTYPE svg PUBLIC "-//W3C//DTD SVG 20010904//EN"
 "http://www.w3.org/TR/2001/REC-SVG-20010904/DTD/svg10.dtd">
<svg version="1.0" xmlns="http://www.w3.org/2000/svg"
 width="512.000000pt" height="512.000000pt" viewBox="0 0 512.000000 512.000000"
 preserveAspectRatio="xMidYMid meet">
<metadata>
Created by potrace 1.16, written by Peter Selinger 2001-2019
</metadata>
<g transform="translate(0.000000,512.000000) scale(0.100000,-0.100000)"
fill="#000000" stroke="none">
<path d="M2165 4450 l-370 -370 -358 0 c-344 0 -358 -1 -377 -20 -19 -19 -20
-33 -20 -377 l0 -358 -370 -370 c-284 -285 -370 -376 -370 -395 0 -19 86 -110
370 -395 l370 -370 0 -358 c0 -344 1 -358 20 -377 19 -19 33 -20 377 -20 l358
0 370 -370 c285 -284 376 -370 395 -370 19 0 110 86 395 370 l370 370 358 0
c344 0 358 1 377 20 19 19 20 33 20 377 l0 358 370 370 c284 285 370 376 370
395 0 19 -86 110 -370 395 l-370 370 0 358 c0 344 -1 358 -20 377 -19 19 -33
20 -377 20 l-358 0 -370 370 c-285 284 -376 370 -395 370 -19 0 -110 -86 -395
-370z m735 -156 c185 -186 349 -342 367 -350 26 -11 99 -14 348 -14 l315 0 0
-321 c0 -214 4 -328 11 -342 6 -12 165 -176 352 -364 l342 -343 -342 -342
c-187 -189 -346 -353 -352 -365 -7 -14 -11 -128 -11 -342 l0 -321 -321 0
c-214 0 -328 -4 -342 -11 -12 -6 -176 -165 -364 -352 l-343 -342 -342 342
c-189 187 -353 346 -365 352 -14 7 -128 11 -342 11 l-321 0 0 321 c0 214 -4
328 -11 342 -6 12 -165 176 -352 365 l-342 342 342 343 c187 188 346 352 352
364 7 14 11 128 11 342 l0 321 315 0 c249 0 322 3 348 14 18 8 182 164 367
350 184 185 337 336 340 336 3 0 156 -151 340 -336z"/>
<path d="M2231 4026 l-296 -295 -252 -3 c-226 -3 -254 -5 -270 -21 -16 -16
-18 -44 -21 -270 l-3 -252 -295 -296 c-268 -270 -294 -298 -294 -329 0 -31 26
-59 294 -329 l295 -296 3 -252 c3 -226 5 -254 21 -270 16 -16 44 -18 270 -21
l252 -3 296 -295 c270 -268 298 -294 329 -294 31 0 59 26 329 294 l296 295
252 3 c226 3 254 5 270 21 16 16 18 44 21 270 l3 252 295 296 c268 270 294
298 294 329 0 31 -26 59 -294 329 l-295 296 -3 252 c-3 226 -5 254 -21 270
-16 16 -44 18 -270 21 l-252 3 -296 295 c-270 268 -298 294 -329 294 -31 0
-59 -26 -329 -294z m1117 -446 l232 0 0 -227 0 -228 282 -282 283 -283 -283
-283 -282 -282 0 -233 0 -232 -232 0 -233 0 -280 -280 -280 -280 -280 280
-280 280 -232 0 -233 0 0 232 0 232 -282 283 -283 283 283 283 282 283 0 227
0 227 232 0 232 0 281 280 280 280 280 -280 280 -280 233 0z"/>
<path d="M2550 3459 c-36 -15 -40 -26 -40 -115 0 -84 8 -101 53 -117 20 -7 68
9 79 26 4 7 8 49 8 94 0 61 -4 86 -16 97 -8 9 -19 16 -24 16 -5 0 -14 2 -22 4
-7 3 -24 0 -38 -5z"/>
<path d="M2280 3110 c-28 -28 -28 -166 -1 -225 22 -47 64 -89 104 -104 44 -17
119 -13 160 8 36 18 38 18 74 0 44 -22 120 -25 166 -5 41 17 88 66 104 108 6
18 12 70 12 116 1 95 -15 122 -72 122 -53 0 -71 -28 -77 -117 -4 -64 -8 -78
-27 -90 -20 -14 -24 -13 -48 11 -22 22 -25 33 -25 94 0 54 -4 72 -18 85 -23
21 -71 22 -100 1 -19 -13 -22 -24 -22 -88 0 -64 -3 -75 -25 -96 -23 -22 -25
-22 -50 -6 -23 15 -25 23 -25 82 0 63 -11 101 -34 116 -22 15 -76 8 -96 -12z"/>
<path d="M1902 2639 c-18 -5 -55 -31 -82 -57 -152 -147 -66 -400 145 -427 60
-8 91 11 101 62 8 42 -30 83 -77 83 -22 0 -41 10 -66 35 -32 32 -35 39 -30 78
10 73 74 111 141 83 60 -25 66 -53 66 -294 0 -132 4 -222 12 -243 61 -180 271
-250 430 -143 l51 35 21 -20 c42 -40 117 -65 191 -65 113 1 197 49 251 146
l29 53 3 312 c3 303 2 313 -17 332 -21 21 -74 28 -98 13 -28 -18 -33 -70 -33
-339 0 -238 -2 -279 -17 -303 -20 -34 -81 -70 -119 -70 -39 0 -90 33 -114 72
-19 31 -20 51 -20 314 0 260 -1 284 -19 305 -13 17 -29 23 -56 23 -27 0 -43
-6 -56 -23 -18 -21 -19 -45 -19 -305 0 -263 -1 -283 -20 -314 -41 -67 -114
-89 -180 -53 -69 37 -74 57 -80 322 l-5 236 -30 49 c-45 73 -109 108 -199 111
-39 1 -86 -2 -104 -8z"/>
<path d="M3246 2615 c-25 -25 -27 -64 -24 -443 l3 -364 24 -19 c30 -25 76 -24
101 1 19 19 20 33 20 410 0 377 -1 391 -20 410 -24 24 -82 27 -104 5z"/>
</g>
</svg>
