<?xml version="1.0" standalone="no"?>
<!DOCTYPE svg PUBLIC "-//W3C//DTD SVG 20010904//EN"
 "http://www.w3.org/TR/2001/REC-SVG-20010904/DTD/svg10.dtd">
<svg version="1.0" xmlns="http://www.w3.org/2000/svg"
 width="512.000000pt" height="512.000000pt" viewBox="0 0 512.000000 512.000000"
 preserveAspectRatio="xMidYMid meet">
<metadata>
Created by potrace 1.16, written by Peter Selinger 2001-2019
</metadata>
<g transform="translate(0.000000,512.000000) scale(0.100000,-0.100000)"
fill="#000000" stroke="none">
<path d="M1331 4854 c-31 -39 -26 -65 26 -155 53 -92 73 -109 124 -109 43 0
79 36 79 78 0 27 -67 150 -103 190 -31 33 -98 31 -126 -4z"/>
<path d="M3742 4862 c-30 -30 -102 -167 -102 -194 0 -41 36 -78 76 -78 53 0
68 12 118 98 50 85 58 131 30 170 -20 29 -95 31 -122 4z"/>
<path d="M2415 4860 c-407 -54 -756 -321 -905 -694 -65 -162 -74 -212 -74
-426 -1 -171 2 -205 22 -277 12 -45 22 -84 22 -87 0 -3 -42 -6 -92 -6 -231 -1
-488 -60 -818 -190 -101 -40 -129 -56 -138 -76 -8 -16 -12 -95 -12 -224 l0
-200 -149 0 c-132 0 -152 -2 -172 -19 l-24 -19 -3 -1175 -2 -1174 21 -26 20
-27 2449 0 2449 0 20 27 21 26 -2 1174 -3 1175 -24 19 c-20 16 -40 19 -152 19
l-129 0 -2 218 -3 217 -85 42 c-243 121 -571 203 -879 220 -98 5 -121 9 -117
20 37 96 56 288 44 438 -42 513 -446 943 -955 1020 -104 16 -230 18 -328 5z
m374 -180 c166 -41 324 -131 452 -259 177 -178 266 -383 276 -640 11 -274 -56
-466 -245 -694 -114 -138 -175 -230 -238 -361 -81 -170 -124 -318 -140 -483
l-7 -73 -38 0 -39 0 0 364 0 364 34 12 c40 13 61 54 51 99 -10 48 -38 61 -128
61 -69 0 -81 -3 -102 -25 l-25 -24 0 -426 0 -425 -55 0 -55 0 0 409 c0 276 -4
418 -11 440 -14 41 -41 51 -134 51 -111 0 -139 -19 -137 -93 1 -39 26 -64 73
-72 l39 -7 0 -364 0 -364 -54 0 c-61 0 -58 -5 -71 115 -14 131 -65 294 -136
438 -63 126 -128 221 -235 338 -47 52 -100 116 -118 144 -185 279 -212 637
-72 941 133 287 396 488 719 550 98 19 287 11 396 -16z m-1195 -1534 c25 -40
82 -114 126 -164 199 -226 300 -425 344 -681 23 -138 22 -161 -18 -219 -59
-88 -57 -235 4 -305 25 -29 28 -41 32 -122 5 -98 23 -147 74 -199 50 -50 107
-69 227 -74 l107 -5 0 -335 0 -334 -32 6 c-379 77 -525 91 -923 91 -364 0
-464 -8 -760 -62 -77 -14 -152 -28 -168 -30 l-27 -5 0 1153 0 1154 108 42
c272 105 523 157 783 162 l77 1 46 -74z m2431 34 c174 -34 331 -82 513 -156
l42 -17 0 -1149 c0 -824 -3 -1148 -11 -1148 -6 0 -55 9 -109 20 -272 55 -530
80 -838 80 -301 0 -578 -27 -838 -80 -53 -11 -100 -20 -105 -20 -5 0 -9 145
-9 334 l0 333 88 5 c187 11 271 92 280 271 4 80 8 94 37 137 54 80 57 192 8
278 -22 38 -24 50 -18 110 11 113 25 183 56 285 58 189 140 335 274 487 37 41
94 117 128 169 l62 93 165 -5 c111 -3 201 -12 275 -27z m-3605 -1635 l0 -976
26 -26 c23 -22 31 -25 77 -20 29 3 104 17 167 31 293 64 596 91 944 83 294 -6
453 -24 744 -84 l132 -27 0 -63 0 -63 -1135 0 -1135 0 0 1060 0 1060 90 0 90
0 0 -975z m4460 -85 l0 -1060 -1105 0 -1105 0 0 69 0 69 71 17 c280 63 531 89
874 89 360 1 579 -22 903 -94 158 -36 162 -36 196 -9 l26 20 0 980 0 979 70 0
70 0 0 -1060z m-1948 523 c21 -19 25 -82 6 -101 -17 -17 -739 -17 -756 0 -17
17 -15 78 5 100 15 17 40 18 371 18 317 0 357 -2 374 -17z m-62 -333 c0 -41
-5 -56 -25 -75 l-24 -25 -261 0 -261 0 -24 25 c-20 19 -25 34 -25 75 l0 50
310 0 310 0 0 -50z"/>
<path d="M1092 2770 c-16 -15 -22 -32 -22 -64 0 -76 2 -76 277 -76 263 0 263
0 278 61 8 31 -15 83 -40 93 -9 3 -119 6 -244 6 -215 0 -228 -1 -249 -20z"/>
<path d="M1125 2283 c-38 -10 -55 -34 -55 -77 0 -84 7 -86 333 -86 308 0 312
1 323 71 5 29 1 41 -19 65 l-25 29 -269 2 c-147 1 -277 -1 -288 -4z"/>
<path d="M1090 1760 c-13 -13 -20 -33 -20 -60 0 -27 7 -47 20 -60 19 -19 33
-20 350 -20 317 0 331 1 350 20 29 29 27 90 -3 118 -23 22 -28 22 -350 22
-314 0 -328 -1 -347 -20z"/>
<path d="M1087 1262 c-25 -28 -22 -96 5 -122 21 -20 33 -20 500 -20 465 0 479
1 498 20 14 14 20 33 20 63 0 81 27 77 -522 77 -457 0 -486 -1 -501 -18z"/>
<path d="M3595 2765 c-35 -34 -30 -101 9 -127 6 -4 118 -8 249 -8 224 0 238 1
257 20 31 31 27 93 -6 119 -25 20 -39 21 -256 21 l-229 0 -24 -25z"/>
<path d="M3514 2276 c-51 -23 -61 -90 -19 -131 l24 -25 279 0 c267 0 280 1
306 21 32 26 36 84 7 120 l-19 24 -274 2 c-215 2 -280 0 -304 -11z"/>
<path d="M3410 1760 c-14 -14 -20 -33 -20 -64 0 -77 -4 -76 372 -76 315 0 329
1 348 20 29 29 27 90 -3 118 -23 22 -28 22 -350 22 -314 0 -328 -1 -347 -20z"/>
<path d="M3100 1253 c-27 -34 -22 -89 11 -115 20 -17 59 -18 494 -18 463 0
473 0 499 21 33 26 37 88 6 119 -19 19 -33 20 -504 20 l-485 0 -21 -27z"/>
<path d="M872 4627 c-25 -26 -30 -83 -9 -109 6 -9 55 -40 107 -69 133 -74 198
-69 216 16 8 45 -22 76 -130 134 -107 58 -150 65 -184 28z"/>
<path d="M4138 4597 c-54 -29 -104 -62 -113 -72 -22 -29 -18 -70 9 -102 36
-42 82 -37 186 21 47 26 95 58 108 72 29 33 29 78 -3 109 -37 38 -76 32 -187
-28z"/>
<path d="M1022 4141 c-61 -5 -77 -10 -93 -30 -26 -31 -24 -74 4 -106 25 -30
45 -32 170 -20 88 9 117 30 117 85 0 69 -45 85 -198 71z"/>
<path d="M4001 4123 c-30 -24 -35 -94 -8 -120 22 -22 214 -35 257 -17 46 20
54 77 18 118 -21 23 -32 26 -133 32 -100 6 -112 5 -134 -13z"/>
</g>
</svg>
