<?xml version="1.0" standalone="no"?>
<!DOCTYPE svg PUBLIC "-//W3C//DTD SVG 20010904//EN"
 "http://www.w3.org/TR/2001/REC-SVG-20010904/DTD/svg10.dtd">
<svg version="1.0" xmlns="http://www.w3.org/2000/svg"
 width="512.000000pt" height="512.000000pt" viewBox="0 0 512.000000 512.000000"
 preserveAspectRatio="xMidYMid meet">
<metadata>
Created by potrace 1.16, written by Peter Selinger 2001-2019
</metadata>
<g transform="translate(0.000000,512.000000) scale(0.100000,-0.100000)"
fill="#000000" stroke="none">
<path d="M2445 5107 c-77 -26 -115 -53 -419 -299 l-305 -248 -561 0 c-547 0
-560 0 -580 -20 -19 -19 -20 -33 -20 -469 l0 -450 -207 -169 c-115 -94 -220
-183 -234 -198 -41 -45 -76 -107 -99 -173 -20 -60 -20 -79 -20 -1375 0 -1262
1 -1317 19 -1375 46 -147 172 -272 320 -315 49 -14 273 -16 2221 -16 1948 0
2172 2 2221 16 148 43 274 168 320 315 18 58 19 113 19 1375 0 1300 0 1315
-21 1376 -24 73 -73 150 -125 199 -22 20 -123 105 -226 188 l-188 152 0 449
c0 437 -1 451 -20 470 -20 20 -33 20 -580 20 l-561 0 -305 248 c-355 288 -383
305 -519 309 -55 2 -105 -2 -130 -10z m213 -179 c23 -13 136 -99 251 -193
l209 -170 -279 -3 c-153 -1 -405 -1 -558 0 l-280 3 210 170 c247 200 271 215
349 215 40 0 69 -7 98 -22z m1742 -1342 l0 -814 -317 -226 -318 -225 -1205 0
-1205 0 -317 225 -318 226 0 814 0 814 1840 0 1840 0 0 -814z m-3840 -447 c0
-197 -3 -249 -12 -243 -74 43 -308 221 -306 232 3 14 295 260 311 261 4 1 7
-112 7 -250z m4148 140 c134 -109 172 -144 172 -159 0 -6 -261 -196 -307 -224
-10 -6 -13 46 -13 243 0 138 2 251 5 251 3 0 67 -50 143 -111z m-3545 -1034
l929 -658 -74 -39 c-40 -21 -456 -310 -925 -643 -469 -333 -856 -605 -861
-605 -17 0 -51 78 -61 140 -12 70 -16 2465 -5 2494 6 15 10 14 38 -7 17 -13
449 -320 959 -682z m3797 -530 c0 -727 -4 -1233 -10 -1269 -10 -62 -45 -146
-61 -146 -5 0 -382 264 -837 587 -455 322 -840 596 -857 607 -16 12 -61 37
-98 57 l-68 36 958 680 c605 430 961 676 965 669 4 -6 8 -555 8 -1221z m-1436
436 c-5 -4 -55 -40 -110 -80 l-101 -71 -753 0 -753 0 -101 71 c-55 40 -105 76
-110 80 -6 5 428 9 964 9 536 0 970 -4 964 -9z m-449 -320 c-6 -4 -64 -46
-130 -92 l-120 -85 -65 13 c-36 7 -126 12 -200 12 -74 0 -164 -5 -200 -12
l-65 -13 -120 85 c-66 46 -124 88 -129 92 -6 5 223 9 514 9 291 0 520 -4 515
-9z m-327 -336 c94 -19 224 -68 293 -109 31 -19 427 -296 879 -617 750 -532
819 -584 798 -594 -32 -14 -4284 -14 -4316 0 -21 10 48 61 795 592 450 319
841 595 870 612 69 43 159 78 268 107 109 28 303 33 413 9z"/>
<path d="M900 4220 c-13 -13 -20 -33 -20 -60 0 -53 27 -80 80 -80 53 0 80 27
80 80 0 53 -27 80 -80 80 -27 0 -47 -7 -60 -20z"/>
<path d="M1221 4221 c-11 -11 -23 -41 -27 -68 -19 -132 -96 -209 -227 -228
-93 -13 -87 27 -87 -565 0 -592 -6 -553 87 -565 131 -17 209 -95 228 -228 3
-27 15 -57 26 -68 19 -19 49 -19 1339 -19 1290 0 1320 0 1339 19 11 11 23 41
26 68 19 133 97 211 228 228 93 12 87 -27 87 565 0 592 6 552 -87 565 -132 19
-209 96 -228 228 -3 27 -15 57 -26 68 -19 19 -49 19 -1339 19 -1290 0 -1320 0
-1339 -19z m2543 -153 c41 -141 146 -257 266 -292 l45 -13 0 -403 0 -403 -45
-13 c-120 -35 -225 -151 -266 -291 -5 -19 -2403 -19 -2408 0 -41 140 -146 256
-266 291 l-45 13 0 402 0 403 53 18 c126 45 212 141 258 288 3 9 252 12 1204
12 952 0 1201 -3 1204 -12z"/>
<path d="M2382 3894 c-176 -59 -298 -182 -357 -357 -33 -100 -35 -242 -4 -343
54 -177 184 -309 362 -369 107 -36 247 -36 354 0 176 60 298 182 358 358 31
92 35 240 9 328 -56 189 -204 337 -393 393 -87 26 -239 21 -329 -10z m297
-160 c104 -33 192 -112 239 -212 24 -50 27 -69 27 -162 0 -93 -3 -111 -27
-163 -35 -74 -121 -160 -195 -195 -52 -24 -70 -27 -163 -27 -99 0 -110 2 -171
32 -80 39 -150 111 -187 191 -24 50 -27 69 -27 162 0 93 3 112 27 162 84 180
290 272 477 212z"/>
<path d="M1415 3581 c-87 -40 -135 -120 -135 -223 1 -142 97 -238 240 -238
144 0 240 96 240 240 0 104 -53 187 -142 224 -52 22 -153 20 -203 -3z m155
-171 c11 -11 20 -33 20 -50 0 -17 -9 -39 -20 -50 -11 -11 -33 -20 -50 -20 -17
0 -39 9 -50 20 -11 11 -20 33 -20 50 0 17 9 39 20 50 11 11 33 20 50 20 17 0
39 -9 50 -20z"/>
<path d="M3495 3581 c-87 -40 -135 -120 -135 -223 1 -142 97 -238 240 -238
144 0 240 96 240 240 0 104 -53 187 -142 224 -52 22 -153 20 -203 -3z m155
-171 c11 -11 20 -33 20 -50 0 -17 -9 -39 -20 -50 -11 -11 -33 -20 -50 -20 -17
0 -39 9 -50 20 -11 11 -20 33 -20 50 0 17 9 39 20 50 11 11 33 20 50 20 17 0
39 -9 50 -20z"/>
<path d="M4100 4220 c-13 -13 -20 -33 -20 -60 0 -27 7 -47 20 -60 13 -13 33
-20 60 -20 27 0 47 7 60 20 13 13 20 33 20 60 0 27 -7 47 -20 60 -13 13 -33
20 -60 20 -27 0 -47 -7 -60 -20z"/>
</g>
</svg>
