<?xml version="1.0" standalone="no"?>
<!DOCTYPE svg PUBLIC "-//W3C//DTD SVG 20010904//EN"
 "http://www.w3.org/TR/2001/REC-SVG-20010904/DTD/svg10.dtd">
<svg version="1.0" xmlns="http://www.w3.org/2000/svg"
 width="512.000000pt" height="512.000000pt" viewBox="0 0 512.000000 512.000000"
 preserveAspectRatio="xMidYMid meet">
<metadata>
Created by potrace 1.16, written by Peter Selinger 2001-2019
</metadata>
<g transform="translate(0.000000,512.000000) scale(0.100000,-0.100000)"
fill="#000000" stroke="none">
<path d="M2440 4783 c-37 -13 -91 -62 -310 -279 l-265 -263 -375 -3 c-359 -3
-377 -4 -421 -24 -67 -31 -124 -87 -156 -152 l-28 -57 -3 -375 -3 -375 -263
-265 c-293 -295 -296 -300 -296 -430 0 -130 3 -135 296 -430 l263 -265 3 -375
c3 -359 4 -377 24 -421 31 -67 87 -124 152 -156 l57 -28 375 -3 375 -3 265
-263 c295 -293 300 -296 430 -296 130 0 135 3 430 296 l265 263 375 3 375 3
57 28 c65 32 121 89 152 156 20 44 21 62 24 421 l3 375 263 265 c293 295 296
300 296 430 0 130 -3 135 -296 430 l-263 265 -3 375 -3 375 -28 57 c-32 65
-89 121 -156 152 -44 20 -62 21 -421 24 l-375 3 -265 263 c-232 230 -271 265
-314 280 -62 20 -176 20 -236 -1z m206 -182 c21 -16 113 -104 204 -195 l165
-166 -317 0 c-211 0 -325 -4 -341 -11 -50 -23 -62 -95 -22 -134 l24 -25 796 0
c778 0 797 0 835 -20 26 -13 47 -34 60 -60 19 -36 20 -58 20 -302 l0 -262
-218 217 c-194 193 -222 217 -250 217 -47 0 -82 -38 -82 -87 0 -37 16 -54 526
-563 289 -289 539 -543 555 -564 22 -30 29 -50 29 -86 0 -62 -18 -85 -224
-290 l-166 -165 0 338 0 339 -29 29 c-31 31 -59 36 -94 17 -48 -25 -46 3 -47
-851 0 -790 0 -809 -20 -847 -13 -26 -34 -47 -60 -60 -36 -19 -58 -20 -302
-20 l-263 0 235 235 c220 220 234 236 234 271 0 46 -39 84 -87 84 -28 0 -87
-55 -592 -559 -308 -307 -571 -566 -585 -575 -14 -9 -45 -16 -71 -16 -61 0
-85 18 -289 224 l-165 166 327 0 327 0 27 24 c39 33 39 89 0 122 l-27 24 -795
0 c-777 0 -796 0 -834 20 -26 13 -47 34 -60 60 -19 36 -20 58 -20 302 l0 263
233 -233 c229 -228 233 -232 274 -232 33 0 46 5 62 26 50 64 72 38 -538 649
-307 308 -566 571 -575 585 -9 14 -16 45 -16 71 0 61 18 85 224 289 l166 165
0 -327 c0 -326 0 -327 23 -353 32 -38 92 -38 124 0 l23 26 0 795 c0 777 0 796
20 834 13 26 34 47 60 60 36 19 58 20 302 20 l262 0 -217 -218 c-236 -237
-242 -247 -196 -306 16 -21 29 -26 62 -26 l42 0 525 526 c289 289 543 539 564
555 54 40 118 40 172 0z"/>
<path d="M2545 3355 l-25 -24 0 -538 c0 -334 -4 -552 -10 -575 -13 -45 -68
-95 -115 -104 -47 -8 -108 18 -138 60 -21 30 -22 40 -27 396 l-5 365 -26 55
c-37 80 -72 115 -147 152 -58 29 -77 33 -142 33 -100 -1 -163 -29 -230 -102
-109 -119 -109 -297 0 -416 72 -79 126 -100 268 -105 l112 -4 0 -174 c0 -200
12 -249 80 -327 101 -114 266 -135 405 -51 l58 34 36 -24 c64 -44 111 -59 191
-59 122 -1 225 62 280 170 l25 48 3 481 c3 539 6 518 -69 530 -29 5 -41 1 -65
-19 l-29 -25 -5 -465 c-5 -454 -6 -466 -26 -494 -12 -15 -42 -37 -68 -47 -45
-19 -47 -19 -92 0 -26 10 -56 32 -68 47 -21 28 -21 39 -26 594 l-5 565 -28 24
c-37 31 -81 31 -112 -1z m-556 -372 c55 -42 66 -68 70 -170 l3 -95 -99 4
c-111 4 -140 16 -173 71 -77 125 82 276 199 190z"/>
<path d="M3280 3152 l-30 -30 0 -562 0 -562 30 -30 c27 -26 36 -30 68 -25 76
13 72 -19 72 617 0 636 4 604 -72 617 -32 5 -41 1 -68 -25z"/>
</g>
</svg>
