<?xml version="1.0" standalone="no"?>
<!DOCTYPE svg PUBLIC "-//W3C//DTD SVG 20010904//EN"
 "http://www.w3.org/TR/2001/REC-SVG-20010904/DTD/svg10.dtd">
<svg version="1.0" xmlns="http://www.w3.org/2000/svg"
 width="512.000000pt" height="512.000000pt" viewBox="0 0 512.000000 512.000000"
 preserveAspectRatio="xMidYMid meet">
<metadata>
Created by potrace 1.16, written by Peter Selinger 2001-2019
</metadata>
<g transform="translate(0.000000,512.000000) scale(0.100000,-0.100000)"
fill="#000000" stroke="none">
<path d="M180 4940 c-19 -19 -20 -33 -20 -540 0 -507 1 -521 20 -540 19 -19
33 -20 217 -20 l197 0 201 -200 c197 -196 202 -200 243 -200 29 0 48 6 62 20
19 19 20 33 20 200 l0 180 1020 0 c1007 0 1020 0 1040 20 19 19 20 33 20 540
0 507 -1 521 -20 540 -20 20 -33 20 -1500 20 -1467 0 -1480 0 -1500 -20z
m2860 -540 l0 -400 -1020 0 c-1007 0 -1020 0 -1040 -20 -18 -18 -20 -33 -20
-137 l0 -117 -138 137 -139 137 -181 0 -182 0 0 400 0 400 1360 0 1360 0 0
-400z"/>
<path d="M480 4560 l0 -80 1200 0 1200 0 0 80 0 80 -1200 0 -1200 0 0 -80z"/>
<path d="M480 4240 l0 -80 240 0 240 0 0 80 0 80 -240 0 -240 0 0 -80z"/>
<path d="M1200 4240 l0 -80 840 0 840 0 0 80 0 80 -840 0 -840 0 0 -80z"/>
<path d="M1680 3661 c-183 -58 -315 -187 -375 -364 -30 -90 -35 -242 -10 -323
8 -27 15 -50 15 -51 0 -2 -42 -3 -92 -3 -51 0 -115 -6 -143 -14 -58 -15 -146
-58 -193 -94 -18 -14 -162 -165 -320 -336 -158 -171 -313 -339 -344 -373 l-58
-62 0 -921 c0 -907 0 -920 20 -940 19 -19 33 -20 300 -20 267 0 281 1 300 20
20 20 20 33 20 657 l0 636 59 -56 c52 -50 65 -57 99 -57 23 0 48 7 60 18 51
43 618 672 647 717 50 78 77 160 82 255 5 76 -4 154 -21 200 -5 13 9 15 99 12
121 -4 182 10 287 65 124 65 229 197 272 342 21 72 21 230 0 302 -54 184 -188
323 -367 384 -95 31 -249 34 -337 6z m323 -184 c74 -34 160 -119 195 -194 24
-52 27 -70 27 -163 0 -93 -3 -111 -27 -163 -35 -74 -121 -160 -195 -195 -52
-24 -70 -27 -163 -27 -93 0 -111 3 -163 27 -74 35 -160 121 -195 195 -24 52
-27 70 -27 163 0 92 3 112 26 160 49 102 138 182 242 216 70 23 210 14 280
-19z m-641 -759 c203 -94 281 -348 161 -525 -25 -38 -548 -615 -562 -621 -4
-1 -50 42 -104 96 l-97 97 250 285 c137 157 249 290 250 296 0 17 -120 118
-129 108 -5 -5 -135 -154 -290 -332 -268 -307 -281 -324 -281 -362 0 -33 7
-48 40 -84 l40 -43 0 -657 0 -656 -160 0 -160 0 0 820 0 820 322 347 c176 192
339 361 360 377 69 50 123 66 218 63 67 -2 97 -8 142 -29z"/>
<path d="M3840 3661 c-183 -58 -315 -187 -375 -364 -31 -92 -35 -241 -9 -328
23 -76 68 -163 110 -209 l36 -40 -54 0 c-112 0 -246 -54 -337 -136 -26 -23
-94 -99 -151 -168 l-104 -126 -176 175 c-175 173 -177 175 -220 175 -43 0 -47
-3 -182 -138 -193 -193 -202 -150 100 -490 204 -229 246 -272 298 -299 82 -44
173 -59 260 -45 108 18 166 53 292 175 l112 110 0 -876 c0 -864 0 -877 20
-897 19 -19 33 -20 540 -20 507 0 521 1 540 20 20 20 20 33 20 560 l0 540 180
0 c167 0 181 1 200 20 19 19 20 33 20 488 0 519 0 515 -67 644 -83 158 -283
288 -446 288 l-49 0 36 40 c42 46 87 133 110 209 21 72 21 230 0 302 -54 184
-188 323 -367 384 -95 31 -249 34 -337 6z m323 -184 c74 -34 160 -119 195
-194 24 -52 27 -70 27 -163 0 -93 -3 -111 -27 -163 -35 -75 -121 -160 -195
-194 -43 -20 -79 -28 -141 -31 -81 -4 -172 11 -172 29 0 5 4 9 9 9 5 0 30 21
55 46 49 51 86 131 86 189 l0 35 -85 0 c-81 0 -85 -1 -85 -22 0 -56 -78 -131
-130 -126 -20 2 -32 16 -55 63 -28 55 -30 68 -30 165 0 92 3 112 26 160 49
102 138 182 242 216 70 23 210 14 280 -19z m282 -927 c95 -14 165 -49 231
-114 65 -66 100 -136 114 -231 5 -39 10 -226 10 -417 l0 -348 -120 0 -120 0 0
400 0 400 -80 0 -80 0 0 -960 0 -960 -160 0 -160 0 0 560 0 560 -80 0 -80 0 0
-560 0 -560 -160 0 -160 0 0 940 c0 927 0 940 -20 960 -14 14 -33 20 -62 20
-41 0 -46 -4 -227 -184 -102 -101 -200 -191 -217 -200 -52 -26 -106 -30 -166
-12 -63 18 -87 41 -322 306 l-146 165 60 60 60 60 178 -178 c171 -170 180
-177 218 -177 22 0 47 6 56 13 9 6 78 86 153 177 76 91 152 177 170 192 51 43
128 78 192 87 83 12 834 13 918 1z"/>
</g>
</svg>
