<?xml version="1.0" standalone="no"?>
<!DOCTYPE svg PUBLIC "-//W3C//DTD SVG 20010904//EN"
 "http://www.w3.org/TR/2001/REC-SVG-20010904/DTD/svg10.dtd">
<svg version="1.0" xmlns="http://www.w3.org/2000/svg"
 width="512.000000pt" height="512.000000pt" viewBox="0 0 512.000000 512.000000"
 preserveAspectRatio="xMidYMid meet">
<metadata>
Created by potrace 1.16, written by Peter Selinger 2001-2019
</metadata>
<g transform="translate(0.000000,512.000000) scale(0.100000,-0.100000)"
fill="#000000" stroke="none">
<path d="M2509 4979 c-93 -14 -161 -66 -201 -154 -19 -43 -23 -71 -26 -202
l-4 -153 -977 0 c-905 0 -980 -1 -1025 -17 -66 -24 -139 -91 -172 -160 -24
-47 -28 -72 -32 -164 -5 -114 5 -160 36 -176 10 -4 220 -10 468 -13 l451 -5
-218 -770 c-120 -423 -222 -787 -229 -807 l-11 -38 -78 0 c-102 0 -111 -9
-111 -112 0 -325 265 -639 604 -713 105 -23 281 -16 381 15 203 63 368 205
460 395 52 107 74 193 77 297 3 106 -8 118 -113 118 l-78 0 -15 53 c-8 28
-108 381 -221 782 -113 402 -210 742 -215 758 l-9 27 515 0 514 0 0 -1360 0
-1360 -81 0 -80 0 -67 -72 c-169 -180 -422 -311 -772 -398 -136 -34 -130 -19
-130 -306 0 -163 4 -251 12 -268 7 -17 24 -30 47 -36 49 -14 2653 -14 2702 0
23 6 40 19 47 36 8 17 12 104 12 263 0 288 3 279 -117 306 -120 26 -331 99
-435 148 -162 79 -285 173 -395 301 -21 24 -29 26 -103 26 l-80 0 0 1360 0
1360 506 0 c401 0 505 -3 502 -12 -2 -7 -105 -372 -229 -810 l-224 -798 -78 0
c-65 0 -80 -3 -98 -21 -20 -20 -21 -29 -16 -108 8 -107 28 -185 72 -276 182
-374 631 -540 1003 -369 256 117 419 345 448 626 13 125 -5 148 -115 148 l-77
0 -222 788 c-123 433 -225 797 -229 810 l-5 22 444 0 c289 0 456 4 476 11 45
16 55 51 50 178 -4 92 -8 117 -32 164 -33 69 -106 136 -172 160 -45 16 -120
17 -1025 17 l-977 0 -4 153 c-3 132 -7 159 -27 205 -50 111 -170 172 -302 151z
m109 -175 c43 -30 52 -64 52 -204 l0 -130 -110 0 -110 0 0 138 c0 142 5 164
50 199 22 17 91 16 118 -3z m2189 -520 c46 -34 73 -82 73 -130 l0 -44 -2320 0
-2320 0 0 40 c0 64 41 125 100 149 16 6 779 9 2232 8 l2207 -2 28 -21z m-2137
-1704 l0 -1360 -110 0 -110 0 0 1360 0 1360 110 0 110 0 0 -1360z m-1340 436
c104 -373 190 -683 190 -687 0 -5 -176 -9 -391 -9 -311 0 -390 3 -386 13 2 7
87 305 187 662 100 358 187 666 193 685 5 19 11 31 13 25 2 -5 89 -316 194
-689z m2824 -2 l193 -689 -385 -3 c-212 -1 -387 0 -390 3 -3 2 82 315 189 694
106 380 194 689 196 687 2 -2 91 -313 197 -692z m-2429 -891 c-21 -113 -111
-264 -203 -340 -102 -83 -261 -143 -382 -143 -269 0 -527 216 -585 488 l-7 32
592 0 592 0 -7 -37z m2825 19 c0 -10 -7 -43 -16 -73 -59 -204 -247 -373 -460
-415 -309 -61 -622 150 -693 469 l-9 37 589 0 c563 0 589 -1 589 -18z m-1570
-1148 c85 -86 176 -153 291 -214 l94 -50 -810 0 -810 0 93 50 c123 65 204 123
288 208 l69 69 360 2 360 1 65 -66z m820 -559 l0 -135 -1240 0 -1240 0 0 135
0 135 1240 0 1240 0 0 -135z"/>
</g>
</svg>
