<?xml version="1.0" standalone="no"?>
<!DOCTYPE svg PUBLIC "-//W3C//DTD SVG 20010904//EN"
 "http://www.w3.org/TR/2001/REC-SVG-20010904/DTD/svg10.dtd">
<svg version="1.0" xmlns="http://www.w3.org/2000/svg"
 width="512.000000pt" height="512.000000pt" viewBox="0 0 512.000000 512.000000"
 preserveAspectRatio="xMidYMid meet">
<metadata>
Created by potrace 1.16, written by Peter Selinger 2001-2019
</metadata>
<g transform="translate(0.000000,512.000000) scale(0.100000,-0.100000)"
fill="#000000" stroke="none">
<path d="M1260 4649 c-337 -26 -641 -173 -878 -424 -247 -260 -382 -603 -382
-965 0 -148 20 -248 79 -406 23 -59 41 -109 41 -111 0 -2 -14 -3 -31 -3 -48 0
-89 -47 -89 -102 0 -78 46 -108 164 -108 l73 0 39 -62 c301 -489 966 -1183
1742 -1816 236 -193 230 -189 297 -184 21 2 255 186 460 361 173 148 485 433
496 452 5 10 9 35 9 57 0 70 -73 118 -138 90 -17 -7 -95 -72 -174 -143 -251
-229 -638 -558 -672 -571 -18 -7 -243 178 -551 451 -517 460 -945 916 -1189
1268 l-67 97 446 0 c471 0 500 3 523 47 5 10 46 146 91 303 45 157 84 292 87
300 3 8 115 -335 248 -762 134 -428 249 -784 256 -793 30 -36 130 -36 160 0 7
8 74 212 149 453 l137 437 240 5 c250 5 256 6 291 50 7 8 13 34 13 58 0 35 -6
49 -29 73 l-29 29 -301 0 c-297 0 -300 0 -326 -22 -28 -25 -36 -47 -150 -415
-38 -123 -72 -223 -75 -223 -3 0 -113 348 -245 773 -265 851 -255 827 -334
827 -30 0 -48 -7 -71 -27 -28 -25 -40 -63 -136 -398 -58 -203 -114 -400 -125
-437 l-20 -68 -464 0 -464 0 -34 73 c-88 191 -117 303 -117 457 0 487 319 943
774 1105 129 46 247 67 386 67 303 0 555 -104 802 -329 104 -96 132 -96 236 0
189 173 377 271 598 313 101 18 287 21 387 5 335 -55 641 -270 821 -577 41
-70 100 -213 120 -289 l13 -52 -136 -6 c-254 -10 -443 -96 -618 -280 -90 -95
-152 -200 -195 -331 -32 -98 -33 -106 -33 -266 0 -184 11 -239 70 -367 115
-250 321 -422 592 -494 110 -30 315 -30 426 0 315 83 557 319 642 626 23 82
31 298 15 389 -46 265 -231 512 -476 634 l-61 31 -12 63 c-100 511 -445 913
-924 1073 -146 49 -257 66 -427 66 -88 0 -180 -6 -235 -16 -228 -40 -464 -152
-647 -307 l-38 -31 -37 31 c-168 141 -371 244 -578 292 -72 17 -116 22 -275
34 -25 2 -88 0 -140 -5z m3124 -1364 c39 -8 108 -34 155 -57 111 -55 238 -177
293 -283 61 -117 81 -209 76 -345 -7 -186 -63 -314 -193 -445 -82 -82 -169
-135 -280 -172 -68 -22 -98 -26 -195 -26 -97 0 -127 4 -195 26 -111 37 -198
90 -280 172 -130 131 -186 259 -193 445 -4 97 -1 129 17 195 35 125 84 208
181 305 134 135 281 198 465 199 44 0 111 -6 149 -14z"/>
<path d="M4200 3089 c-54 -21 -60 -41 -60 -206 l0 -153 -145 0 c-108 0 -153
-4 -174 -15 -57 -29 -65 -119 -15 -166 24 -23 33 -24 180 -27 l154 -4 0 -150
0 -150 29 -29 c23 -23 38 -29 71 -29 33 0 48 6 71 29 l29 29 0 150 0 150 154
4 c147 3 156 4 180 27 50 47 42 137 -15 166 -21 11 -66 15 -174 15 l-145 0 0
150 c0 167 -7 190 -62 209 -37 13 -45 13 -78 0z"/>
<path d="M3401 1694 c-31 -22 -53 -77 -45 -112 15 -62 84 -97 144 -72 99 41
70 200 -37 200 -21 0 -49 -7 -62 -16z"/>
</g>
</svg>
