<?xml version="1.0" standalone="no"?>
<!DOCTYPE svg PUBLIC "-//W3C//DTD SVG 20010904//EN"
 "http://www.w3.org/TR/2001/REC-SVG-20010904/DTD/svg10.dtd">
<svg version="1.0" xmlns="http://www.w3.org/2000/svg"
 width="512.000000pt" height="512.000000pt" viewBox="0 0 512.000000 512.000000"
 preserveAspectRatio="xMidYMid meet">
<metadata>
Created by potrace 1.16, written by Peter Selinger 2001-2019
</metadata>
<g transform="translate(0.000000,512.000000) scale(0.100000,-0.100000)"
fill="#000000" stroke="none">
<path d="M1735 4931 c-86 -49 -134 -145 -121 -243 l7 -48 -711 0 c-697 0 -710
0 -730 -20 -19 -19 -20 -33 -20 -220 0 -187 1 -201 20 -220 11 -11 29 -20 40
-20 20 0 20 -7 20 -910 0 -1004 -3 -949 63 -1019 38 -40 100 -70 145 -71 l32
0 0 -458 c0 -526 2 -541 87 -712 40 -81 62 -109 148 -195 86 -86 114 -108 195
-148 162 -80 204 -87 562 -87 l310 0 -27 -31 c-55 -67 -69 -107 -73 -220 -4
-98 -2 -109 17 -128 l21 -21 1160 0 1160 0 21 21 c19 19 21 30 17 128 -7 178
-55 242 -248 331 -9 4 -36 88 -72 221 -32 118 -58 217 -58 222 0 4 7 7 16 7
36 0 206 65 315 121 321 166 578 449 785 864 41 82 83 158 94 170 32 34 50 91
50 157 0 74 -23 129 -71 175 -71 67 19 63 -1338 63 l-1231 0 -4 23 c-3 12 -53
490 -111 1062 -69 677 -111 1055 -122 1084 -35 98 -115 151 -229 151 -58 0
-77 -5 -119 -29z m172 -163 c20 -21 30 -103 130 -1073 l109 -1050 -69 -3 c-38
-2 -72 0 -75 3 -4 4 -215 1995 -222 2086 0 4 9 18 21 33 27 34 77 36 106 4z
m-307 -368 l0 -80 -640 0 -640 0 0 80 0 80 640 0 640 0 0 -80z m-80 -1115 c0
-965 2 -932 -60 -954 -46 -16 -954 -16 -1000 0 -62 22 -60 -11 -60 954 l0 875
560 0 560 0 0 -875z m245 -50 c41 -401 75 -772 75 -822 l0 -93 -82 0 -83 0 4
842 c2 464 5 834 7 823 2 -11 38 -348 79 -750z m2980 -769 c37 -16 52 -48 41
-92 -14 -56 44 -54 -1431 -54 l-1355 0 0 80 0 80 1355 0 c1155 0 1361 -2 1390
-14z m-3783 -723 l3 -418 29 -60 c38 -77 114 -153 191 -191 l60 -29 403 -3
c310 -2 403 -6 399 -15 -2 -7 -22 -79 -43 -160 l-39 -149 -390 5 c-329 4 -399
7 -450 21 -183 53 -333 176 -414 341 -62 126 -64 138 -68 628 l-5 447 161 0
160 0 3 -417z m3667 340 c-193 -356 -441 -612 -720 -742 -266 -125 -447 -147
-1138 -138 -379 4 -436 7 -519 25 -201 44 -385 122 -553 233 -128 85 -307 266
-372 376 -48 80 -98 210 -111 286 l-7 37 1731 0 1731 0 -42 -77z m-3394 -419
c103 -145 303 -317 493 -422 l77 -43 -245 3 c-271 4 -293 8 -359 71 -69 65
-75 95 -79 352 l-3 230 34 -61 c18 -34 55 -93 82 -130z m1678 -619 c540 0 618
-2 622 -15 2 -8 34 -125 70 -258 36 -134 70 -252 75 -262 9 -17 65 -40 99 -40
22 0 85 -39 104 -65 9 -13 20 -38 23 -55 l7 -30 -1032 0 c-975 0 -1031 1
-1031 18 0 22 35 80 63 103 12 10 47 23 77 30 98 20 84 -8 181 356 l62 232 31
-7 c17 -4 309 -7 649 -7z"/>
<path d="M855 3981 c-87 -40 -135 -120 -135 -223 1 -143 97 -238 242 -238 103
1 186 54 223 143 13 30 20 37 33 31 9 -4 36 -9 59 -12 32 -3 46 1 62 17 21 21
28 71 15 106 -4 9 -55 40 -113 70 -59 29 -114 61 -122 71 -43 52 -185 71 -264
35z m155 -171 c11 -11 20 -33 20 -50 0 -17 -9 -39 -20 -50 -43 -43 -120 -11
-120 50 0 38 32 70 70 70 17 0 39 -9 50 -20z"/>
<path d="M2827 4708 c-9 -7 -27 -43 -41 -81 -53 -143 -150 -240 -293 -293 -78
-29 -93 -44 -93 -94 0 -50 15 -65 93 -94 143 -53 240 -150 293 -293 29 -78 44
-93 94 -93 50 0 65 15 94 93 53 143 150 240 293 293 78 29 93 44 93 94 0 50
-15 65 -93 94 -143 53 -240 150 -293 293 -29 78 -44 93 -94 93 -20 0 -44 -6
-53 -12z m96 -338 c21 -27 60 -66 87 -87 27 -21 49 -40 49 -43 0 -3 -22 -22
-49 -43 -27 -21 -66 -60 -87 -87 -21 -27 -40 -49 -43 -49 -3 0 -22 22 -43 49
-21 27 -60 66 -87 87 -27 21 -49 40 -49 43 0 3 22 22 49 43 27 21 66 60 87 87
21 27 40 49 43 49 3 0 22 -22 43 -49z"/>
<path d="M4340 3980 c-16 -16 -20 -33 -20 -80 l0 -60 -60 0 c-75 0 -100 -20
-100 -80 0 -60 25 -80 100 -80 l60 0 0 -60 c0 -75 20 -100 80 -100 60 0 80 25
80 100 l0 60 60 0 c75 0 100 20 100 80 0 60 -25 80 -100 80 l-60 0 0 60 c0 75
-20 100 -80 100 -27 0 -47 -7 -60 -20z"/>
<path d="M3392 3593 c-7 -3 -29 -38 -48 -79 -47 -99 -119 -171 -217 -218 -77
-36 -87 -48 -87 -96 0 -48 10 -60 87 -96 98 -47 170 -119 217 -217 36 -77 48
-87 96 -87 48 0 60 10 96 87 47 98 119 170 217 217 77 36 87 48 87 96 0 48
-10 60 -87 96 -98 47 -170 119 -217 217 -19 41 -42 77 -51 81 -19 7 -74 7 -93
-1z m110 -328 l65 -65 -64 -63 -63 -64 -63 64 -64 63 61 64 c34 34 61 64 62
65 0 0 30 -28 66 -64z"/>
</g>
</svg>
