<?xml version="1.0" standalone="no"?>
<!DOCTYPE svg PUBLIC "-//W3C//DTD SVG 20010904//EN"
 "http://www.w3.org/TR/2001/REC-SVG-20010904/DTD/svg10.dtd">
<svg version="1.0" xmlns="http://www.w3.org/2000/svg"
 width="512.000000pt" height="512.000000pt" viewBox="0 0 512.000000 512.000000"
 preserveAspectRatio="xMidYMid meet">
<metadata>
Created by potrace 1.16, written by Peter Selinger 2001-2019
</metadata>
<g transform="translate(0.000000,512.000000) scale(0.100000,-0.100000)"
fill="#000000" stroke="none">
<path d="M1983 5020 c-135 -25 -253 -90 -355 -198 -114 -121 -168 -261 -168
-432 0 -155 42 -282 129 -396 l39 -51 -783 -783 c-645 -645 -788 -793 -812
-839 -26 -51 -28 -65 -28 -166 0 -102 2 -114 29 -168 36 -71 108 -140 184
-175 49 -23 70 -27 152 -27 82 0 103 4 152 27 l58 27 2 -772 3 -772 30 -54
c16 -29 50 -69 74 -88 89 -68 -36 -63 1891 -61 l1745 3 46 21 c55 26 111 79
141 137 l23 42 3 772 2 772 58 -27 c49 -23 70 -27 152 -27 82 0 103 4 152 27
76 35 148 104 184 175 27 54 29 66 29 168 0 168 6 160 -372 538 l-319 317 -45
0 c-24 0 -54 -7 -66 -15 -31 -22 -47 -77 -34 -118 7 -22 106 -127 307 -327
162 -162 302 -307 310 -322 18 -35 18 -111 -1 -148 -35 -67 -125 -105 -196
-81 -25 8 -248 225 -814 791 l-780 780 90 91 c50 50 103 100 118 111 l29 21
166 -166 c92 -90 177 -170 189 -176 39 -20 80 -13 115 18 28 25 33 36 33 75
l0 46 -177 177 -176 178 38 50 c88 113 130 240 130 395 0 171 -54 311 -168
432 -81 86 -155 135 -258 170 -210 72 -448 32 -617 -105 l-57 -47 -56 45 c-64
52 -145 96 -224 119 -67 20 -226 29 -297 16z m199 -211 c86 -18 158 -59 239
-136 124 -118 152 -119 273 -4 94 87 164 126 264 143 184 31 371 -71 455 -249
39 -84 49 -207 24 -294 -31 -104 -71 -150 -477 -541 -216 -208 -396 -378 -400
-378 -4 0 -184 170 -400 378 -406 391 -446 437 -477 541 -25 87 -15 210 24
294 88 186 281 287 475 246z m-279 -1129 l112 -109 -780 -781 c-566 -566 -789
-783 -814 -791 -71 -24 -161 14 -196 81 -18 34 -20 112 -4 143 12 25 1550
1567 1562 1567 4 0 58 -49 120 -110z m317 -306 c25 -25 102 -100 172 -165 120
-112 129 -119 168 -119 46 0 58 9 283 230 l107 105 690 -690 690 -690 0 -845
c-1 -648 -3 -849 -13 -861 -26 -35 -54 -39 -241 -39 l-186 0 0 523 c0 516 -4
592 -36 692 -24 79 -101 182 -176 239 l-65 50 18 40 c58 132 41 319 -42 447
-139 217 -427 292 -653 171 -67 -35 -167 -135 -199 -197 -63 -125 -75 -274
-33 -398 l23 -67 -36 -27 c-20 -14 -57 -47 -83 -72 l-48 -45 -47 45 c-27 25
-64 58 -84 73 l-37 27 20 52 c32 81 36 227 10 314 -91 299 -423 439 -704 297
-97 -49 -197 -163 -233 -264 -40 -113 -38 -260 4 -356 l19 -41 -61 -44 c-89
-65 -159 -167 -195 -284 -13 -42 -16 -143 -19 -612 l-4 -563 -189 0 c-188 0
-189 0 -219 26 l-31 26 0 846 0 847 687 687 c379 379 690 688 693 688 3 0 26
-21 50 -46z m-154 -1093 c238 -113 210 -453 -44 -527 -68 -20 -127 -13 -199
22 -179 87 -211 324 -61 459 89 80 197 97 304 46z m1197 13 c109 -37 190 -152
190 -269 1 -182 -182 -322 -355 -271 -200 58 -274 300 -141 456 74 86 199 121
306 84z m-1575 -689 c137 -90 331 -95 493 -13 l77 40 44 -30 c45 -31 94 -80
87 -85 -2 -2 -20 -13 -40 -25 -53 -32 -117 -106 -145 -167 -43 -93 -49 -175
-22 -283 l11 -43 -55 -49 c-61 -55 -110 -138 -127 -218 -6 -29 -11 -138 -11
-242 l0 -190 -280 0 -280 0 0 520 c0 601 3 624 78 715 26 31 109 95 124 95 5
0 25 -11 46 -25z m1246 -10 c154 -85 361 -80 500 12 39 26 40 26 74 7 45 -24
109 -89 132 -133 37 -74 40 -129 40 -661 l0 -520 -280 0 -280 0 0 190 c0 104
-5 213 -11 242 -17 80 -66 163 -127 218 l-55 49 11 43 c28 111 20 203 -24 290
-31 61 -101 138 -149 164 -19 10 -35 21 -35 24 0 14 115 109 132 110 4 0 36
-16 72 -35z m-306 -271 c84 -35 133 -126 111 -208 -22 -84 -98 -146 -179 -146
-113 0 -207 119 -179 225 30 112 144 172 247 129z m-264 -513 c107 -66 281
-66 394 0 l34 19 38 -30 c68 -54 75 -79 78 -302 l3 -198 -350 0 -351 0 0 188
c0 176 2 190 24 238 19 41 76 103 95 104 2 0 18 -9 35 -19z"/>
<path d="M3989 3301 c-39 -39 -41 -109 -5 -146 32 -32 85 -41 124 -21 40 21
52 44 52 99 0 38 -5 49 -31 71 -44 37 -101 36 -140 -3z"/>
</g>
</svg>
