<?xml version="1.0" standalone="no"?>
<!DOCTYPE svg PUBLIC "-//W3C//DTD SVG 20010904//EN"
 "http://www.w3.org/TR/2001/REC-SVG-20010904/DTD/svg10.dtd">
<svg version="1.0" xmlns="http://www.w3.org/2000/svg"
 width="512.000000pt" height="512.000000pt" viewBox="0 0 512.000000 512.000000"
 preserveAspectRatio="xMidYMid meet">
<metadata>
Created by potrace 1.16, written by Peter Selinger 2001-2019
</metadata>
<g transform="translate(0.000000,512.000000) scale(0.100000,-0.100000)"
fill="#000000" stroke="none">
<path d="M1875 4835 c-398 -175 -657 -293 -668 -307 -17 -20 -18 -62 -14 -787
3 -742 4 -768 24 -836 60 -202 135 -329 269 -455 91 -86 992 -732 1036 -743
24 -6 52 -6 76 0 44 11 932 647 1030 738 138 128 214 255 275 460 20 68 21 94
24 837 l4 768 -23 23 c-34 33 -1307 587 -1349 587 -22 0 -258 -98 -684 -285z
m1294 -166 l582 -254 -4 -705 c-3 -642 -5 -710 -21 -765 -43 -145 -120 -271
-224 -366 -32 -30 -257 -197 -500 -372 l-442 -318 -447 322 c-247 178 -472
346 -502 374 -99 92 -175 219 -217 360 -16 55 -18 123 -21 765 l-3 705 587
257 c324 142 597 256 609 255 11 -2 283 -118 603 -258z"/>
<path d="M2050 4539 c-326 -143 -482 -217 -497 -234 l-23 -26 0 -602 c0 -671
1 -682 66 -814 60 -121 121 -174 543 -477 338 -244 388 -276 421 -276 33 0 83
32 421 276 422 303 483 356 543 477 65 132 66 143 66 814 l0 602 -22 26 c-30
34 -966 445 -1012 444 -17 0 -242 -93 -506 -210z m936 -163 l419 -184 3 -538
c1 -318 -2 -560 -8 -591 -12 -68 -50 -148 -95 -200 -20 -23 -195 -157 -390
-298 l-355 -256 -355 257 c-195 140 -371 274 -390 297 -45 52 -83 132 -95 200
-6 31 -9 273 -8 591 l3 538 415 183 c228 101 420 183 426 184 5 1 199 -82 430
-183z"/>
<path d="M3022 4084 c-13 -9 -163 -226 -334 -482 -171 -257 -314 -470 -317
-475 -4 -4 -70 40 -147 98 -119 89 -144 105 -177 105 -68 0 -109 -70 -77 -131
6 -11 95 -82 197 -159 190 -143 214 -155 268 -134 9 4 175 244 368 533 387
579 388 581 333 635 -29 30 -79 34 -114 10z"/>
<path d="M223 2879 c-138 -24 -230 -142 -221 -286 3 -63 16 -96 167 -428 184
-405 221 -481 264 -545 16 -25 164 -180 328 -345 l299 -301 -20 -39 c-19 -37
-20 -58 -20 -425 0 -381 1 -385 23 -425 12 -22 38 -50 57 -62 l34 -23 536 2
537 3 35 27 c68 52 69 65 66 500 l-3 386 -31 39 c-20 24 -49 45 -82 58 l-52
20 0 102 c0 281 -82 503 -246 669 -65 66 -85 79 -237 153 -191 92 -293 154
-421 259 -109 88 -161 117 -246 132 -76 14 -145 6 -223 -25 l-59 -23 -27 61
c-15 34 -59 136 -97 225 -74 176 -110 229 -177 263 -49 26 -128 37 -184 28z
m114 -202 c11 -12 72 -141 134 -286 65 -152 133 -296 162 -340 35 -54 123
-150 300 -328 241 -243 253 -253 290 -253 53 0 87 35 87 91 0 41 -4 45 -255
299 -140 142 -255 263 -255 269 0 13 44 36 88 46 65 14 122 -11 227 -96 145
-118 244 -181 426 -268 184 -89 228 -122 293 -220 85 -128 125 -273 126 -458
l0 -103 -348 0 -348 0 -340 343 c-279 280 -346 353 -373 405 -78 149 -371 809
-371 835 0 84 98 124 157 64z m1793 -2162 l0 -335 -465 0 -465 0 0 335 0 335
465 0 465 0 0 -335z"/>
<path d="M1725 568 c-22 -26 -26 -39 -21 -67 10 -62 34 -76 131 -76 97 0 121
14 131 76 5 28 1 41 -21 67 -26 31 -29 32 -110 32 -81 0 -84 -1 -110 -32z"/>
<path d="M4756 2874 c-34 -11 -65 -31 -100 -67 -44 -45 -60 -74 -120 -217 -38
-91 -82 -193 -97 -227 l-27 -61 -60 24 c-112 45 -230 41 -333 -10 -27 -14 -82
-53 -122 -87 -116 -98 -250 -182 -431 -269 -155 -75 -174 -87 -240 -154 -165
-166 -246 -388 -246 -671 l0 -103 -32 -7 c-48 -10 -97 -52 -119 -99 -17 -38
-19 -71 -19 -416 0 -420 2 -432 71 -481 l34 -24 533 -3 c591 -3 565 -6 619 65
l28 36 3 395 c3 379 2 396 -18 436 l-20 41 299 300 c164 165 312 320 328 345
44 65 90 161 269 555 154 340 159 352 162 426 4 85 -12 137 -63 197 -63 75
-196 109 -299 76z m134 -179 c35 -18 50 -43 50 -82 0 -26 -293 -686 -371 -835
-27 -52 -94 -125 -373 -405 l-340 -343 -348 0 -348 0 0 103 c1 185 41 330 125
457 67 101 107 131 297 224 188 91 289 155 429 270 98 80 152 103 216 91 46
-8 93 -32 93 -46 0 -6 -115 -127 -255 -269 -247 -250 -255 -259 -255 -297 0
-54 38 -93 88 -93 34 0 53 17 280 243 306 304 320 325 472 680 62 144 120 270
129 281 32 36 68 43 111 21z m-970 -2180 l0 -335 -465 0 -465 0 0 335 0 335
465 0 465 0 0 -335z"/>
<path d="M3175 568 c-22 -26 -26 -39 -21 -67 10 -62 34 -76 131 -76 97 0 121
14 131 76 5 28 1 41 -21 67 -26 31 -29 32 -110 32 -81 0 -84 -1 -110 -32z"/>
</g>
</svg>
