<?xml version="1.0" standalone="no"?>
<!DOCTYPE svg PUBLIC "-//W3C//DTD SVG 20010904//EN"
 "http://www.w3.org/TR/2001/REC-SVG-20010904/DTD/svg10.dtd">
<svg version="1.0" xmlns="http://www.w3.org/2000/svg"
 width="512.000000pt" height="512.000000pt" viewBox="0 0 512.000000 512.000000"
 preserveAspectRatio="xMidYMid meet">
<metadata>
Created by potrace 1.16, written by Peter Selinger 2001-2019
</metadata>
<g transform="translate(0.000000,512.000000) scale(0.100000,-0.100000)"
fill="#000000" stroke="none">
<path d="M3410 5105 c-473 -80 -871 -356 -1067 -741 -28 -55 -56 -117 -63
-139 -7 -22 -14 -43 -16 -47 -2 -3 -35 9 -72 27 -89 44 -190 72 -314 85 -160
18 -208 0 -208 -77 0 -56 24 -69 134 -76 121 -8 209 -29 304 -73 178 -81 315
-218 397 -397 67 -147 79 -255 61 -542 l-8 -140 -79 157 c-60 120 -85 161
-106 171 -17 9 -77 17 -148 20 -276 14 -487 103 -710 301 -97 87 -99 88 -143
83 -25 -3 -53 -13 -64 -24 -13 -13 -37 -90 -73 -234 -61 -237 -88 -303 -167
-396 l-53 -62 -8 47 c-4 26 -9 133 -10 237 -2 211 6 257 67 390 42 91 58 104
96 82 40 -24 82 -21 108 6 28 29 29 80 2 114 -11 14 -20 32 -20 39 0 17 90 89
151 120 75 38 99 91 64 141 -27 39 -77 40 -142 3 -132 -75 -217 -155 -229
-214 -5 -29 -14 -39 -50 -56 -52 -26 -72 -52 -124 -162 -64 -137 -84 -230 -84
-394 l-1 -142 -80 -4 c-131 -7 -221 -63 -269 -167 -29 -63 -28 -200 2 -283 56
-155 182 -272 337 -313 32 -8 59 -16 59 -17 1 -2 12 -43 24 -93 26 -107 76
-215 137 -301 45 -62 171 -194 187 -194 12 0 10 -150 -3 -209 -6 -27 -24 -68
-40 -90 -55 -76 -87 -90 -417 -173 -209 -53 -329 -88 -380 -113 -183 -87 -317
-247 -372 -447 -18 -66 -20 -102 -20 -419 l0 -346 23 -21 23 -22 1738 0 1737
0 25 25 25 25 -3 358 -3 357 -30 84 c-38 110 -104 210 -195 294 -115 107 -181
134 -548 227 -173 43 -321 85 -330 91 -101 76 -125 124 -130 261 l-4 106 72
68 c129 122 218 275 263 449 18 72 26 90 42 93 88 13 203 76 266 144 50 53 64
44 66 -43 7 -280 341 -432 570 -259 49 37 110 124 120 173 3 15 7 27 10 27 38
0 220 26 288 41 121 28 155 64 124 133 -20 43 -54 49 -149 27 -96 -23 -231
-41 -301 -41 -64 0 -105 -33 -114 -93 -27 -170 -211 -238 -330 -123 -52 50
-67 97 -59 187 8 81 -8 110 -72 135 -32 12 -43 21 -39 32 22 59 23 215 1 250
-2 4 257 6 576 4 l579 -2 31 30 c25 26 29 36 24 63 -9 45 -39 67 -92 67 l-44
0 0 158 c0 215 -23 304 -108 416 l-29 39 38 51 c76 100 99 194 99 407 l0 149
41 0 c32 0 47 6 71 30 25 26 29 36 24 63 -13 70 17 67 -633 67 l-584 0 -24
-25 c-57 -56 -10 -135 80 -135 l35 0 0 -157 c0 -219 23 -308 106 -410 19 -23
30 -44 25 -47 -19 -12 -79 -113 -101 -171 -21 -53 -24 -82 -28 -247 l-4 -188
-45 0 c-33 0 -50 -6 -68 -25 -14 -13 -25 -29 -25 -35 0 -6 -17 2 -37 19 -51
39 -120 61 -196 61 l-62 0 -1 133 c-2 264 -85 473 -261 658 l-73 77 30 84
c148 408 551 717 1030 788 166 25 418 9 580 -36 467 -129 826 -493 905 -919
26 -135 17 -349 -19 -470 -34 -114 -91 -235 -158 -333 -61 -89 -199 -229 -282
-287 -140 -97 -141 -98 -144 -142 -2 -32 2 -46 19 -62 39 -36 75 -27 184 46
187 126 367 332 458 526 82 172 117 331 117 534 0 349 -131 647 -395 901 -222
214 -502 350 -815 398 -116 17 -395 17 -500 -1z m588 -863 c-3 -166 -3 -168
-35 -233 -19 -38 -52 -84 -78 -107 -85 -79 -85 -117 1 -199 33 -32 65 -75 82
-110 25 -55 27 -68 30 -230 l4 -173 -337 0 -337 0 4 173 c3 162 5 175 30 230
15 31 49 78 76 105 91 88 91 115 1 209 -92 96 -102 126 -107 331 l-4 172 337
0 337 0 -4 -168z m-2557 -759 c27 -32 166 -129 244 -170 158 -82 324 -128 502
-139 l100 -7 125 -251 125 -251 -9 -113 c-9 -129 -27 -208 -68 -298 -115 -255
-358 -421 -640 -440 -306 -20 -616 182 -729 476 -30 79 -46 161 -56 296 l-6
82 66 128 c36 71 88 156 116 189 71 83 120 194 164 368 21 81 41 147 45 147 4
0 14 -8 21 -17z m-581 -653 c7 -121 10 -223 8 -226 -10 -9 -94 35 -136 72 -69
58 -125 199 -108 268 8 31 53 85 80 96 12 5 48 9 82 9 l61 1 13 -220z m2008
206 c63 -33 87 -88 71 -169 -20 -109 -90 -200 -187 -245 -29 -13 -55 -22 -57
-21 -1 2 3 92 11 199 7 107 13 207 14 223 0 26 1 27 60 27 34 0 73 -6 88 -14z
m-673 -1494 c10 -26 24 -56 32 -67 7 -11 13 -22 13 -26 0 -3 -103 -74 -229
-158 l-229 -152 -229 154 c-212 142 -229 155 -217 172 26 35 54 126 60 195 4
39 8 70 10 70 2 0 42 -13 91 -29 204 -69 445 -62 625 17 l43 18 6 -73 c4 -41
15 -95 24 -121z m-705 -402 c244 -162 277 -181 304 -176 17 4 141 80 276 169
135 90 256 171 270 180 23 14 28 14 58 -2 l33 -17 -323 -215 -323 -216 -155
104 c-162 108 -193 119 -237 88 -27 -19 -37 -61 -23 -94 7 -17 73 -67 197
-149 166 -110 190 -123 222 -120 27 3 135 70 444 276 l407 272 203 -51 c111
-28 231 -64 267 -81 84 -40 195 -150 238 -234 56 -111 62 -154 62 -453 l0
-271 -244 0 -245 0 -3 199 c-3 179 -5 201 -22 220 -26 28 -88 29 -116 1 -19
-19 -20 -33 -20 -220 l0 -200 -1025 0 -1025 0 0 194 c0 180 -1 195 -21 220
-26 33 -88 37 -119 6 -19 -19 -20 -33 -20 -220 l0 -200 -200 0 -200 0 0 218
c0 256 12 372 45 453 50 123 148 231 265 289 24 12 139 47 255 76 l210 53 97
-64 c79 -53 105 -65 137 -65 47 0 71 26 71 78 0 34 -21 61 -70 93 l-24 16 29
16 c17 9 35 15 41 12 6 -2 134 -85 284 -185z"/>
<path d="M3500 4293 c-44 -17 -50 -33 -50 -136 0 -88 3 -105 26 -147 15 -27
42 -57 64 -71 38 -24 38 -25 42 -98 3 -65 6 -76 31 -97 34 -29 66 -30 101 -3
24 19 26 26 26 94 0 71 1 75 28 89 79 41 112 111 112 235 0 137 2 136 -202
138 -89 1 -170 -1 -178 -4z"/>
<path d="M3630 3597 c-36 -19 -50 -54 -50 -133 0 -116 22 -154 89 -154 59 0
71 26 71 148 0 91 -3 111 -17 125 -26 23 -65 29 -93 14z"/>
<path d="M1801 2864 c-18 -23 -21 -41 -21 -133 0 -70 -4 -113 -12 -124 -7 -9
-35 -21 -62 -26 -58 -11 -76 -30 -76 -81 0 -55 27 -75 101 -73 73 1 137 36
177 95 26 39 27 48 30 184 4 133 3 143 -17 163 -32 32 -93 29 -120 -5z"/>
<path d="M1419 2251 c-26 -27 -30 -37 -25 -64 8 -39 24 -56 101 -102 168 -101
382 -106 556 -14 88 47 119 80 119 128 0 31 -6 44 -26 60 -38 30 -62 26 -130
-18 -85 -55 -145 -74 -234 -74 -85 0 -149 21 -223 72 -70 47 -99 50 -138 12z"/>
<path d="M2929 2221 c-54 -11 -100 -42 -134 -89 -40 -57 -48 -158 -17 -218 68
-133 234 -166 342 -68 109 99 88 287 -40 350 -53 26 -102 34 -151 25z"/>
</g>
</svg>
