<?xml version="1.0" standalone="no"?>
<!DOCTYPE svg PUBLIC "-//W3C//DTD SVG 20010904//EN"
 "http://www.w3.org/TR/2001/REC-SVG-20010904/DTD/svg10.dtd">
<svg version="1.0" xmlns="http://www.w3.org/2000/svg"
 width="512.000000pt" height="512.000000pt" viewBox="0 0 512.000000 512.000000"
 preserveAspectRatio="xMidYMid meet">
<metadata>
Created by potrace 1.16, written by Peter Selinger 2001-2019
</metadata>
<g transform="translate(0.000000,512.000000) scale(0.100000,-0.100000)"
fill="#000000" stroke="none">
<path d="M2717 5096 c-108 -45 -191 -136 -218 -238 l-13 -48 -101 0 c-58 0
-126 -6 -160 -15 -175 -46 -317 -188 -371 -370 -15 -52 -17 -98 -15 -346 2
-259 0 -287 -15 -300 -9 -8 -28 -36 -40 -64 -22 -45 -24 -64 -24 -200 0 -125
4 -157 19 -191 43 -94 151 -163 270 -172 l66 -4 3 -84 c4 -113 32 -220 89
-334 39 -77 65 -112 136 -185 l87 -90 -2 -144 -3 -143 -344 -128 c-189 -70
-359 -136 -378 -146 -56 -30 -111 -93 -333 -383 l-210 -273 0 148 c0 156 -12
209 -53 243 -15 12 -17 37 -17 180 0 189 -11 244 -60 303 -98 118 -297 102
-377 -32 l-33 -54 0 -157 0 -157 -47 -7 c-83 -12 -131 -44 -167 -110 -20 -39
-21 -51 -21 -425 0 -377 0 -386 22 -426 23 -44 79 -98 112 -109 18 -5 20 -17
23 -183 3 -177 3 -178 35 -243 39 -79 102 -140 181 -177 51 -24 69 -27 167
-27 101 0 114 2 163 28 78 41 107 71 332 344 l205 249 5 -296 c4 -231 8 -301
19 -313 12 -16 132 -17 1531 -17 l1517 0 19 21 c18 20 19 44 22 434 l3 413
-24 28 c-32 37 -90 39 -118 5 -18 -22 -19 -46 -19 -387 l0 -364 -230 0 -229 0
-3 514 c-3 489 -4 515 -22 535 -14 15 -31 21 -61 21 -55 0 -75 -22 -75 -83 l0
-47 -1085 0 -1085 0 0 34 c0 46 -18 94 -40 106 -31 16 -79 11 -100 -10 -18
-18 -20 -34 -20 -177 l-1 -158 -268 -323 c-147 -177 -283 -333 -301 -347 -41
-30 -119 -55 -169 -55 -44 0 -108 29 -138 61 -44 49 -53 89 -53 249 l0 150
115 0 115 0 0 -59 c0 -52 3 -62 26 -80 30 -24 52 -26 87 -10 35 16 47 49 47
129 0 62 3 74 33 115 30 44 32 52 35 153 l4 106 279 362 c154 199 294 375 312
391 39 34 731 298 750 286 7 -4 100 -73 208 -154 107 -80 204 -149 216 -153
34 -11 65 7 274 165 l202 151 41 -12 c211 -62 910 -287 941 -303 63 -31 93
-57 130 -111 50 -74 65 -145 65 -312 0 -159 7 -179 67 -190 27 -5 37 -1 64 25
l31 32 -4 177 c-5 159 -8 184 -31 246 -45 122 -131 222 -237 276 -20 10 -239
82 -486 160 -247 78 -464 146 -481 151 l-33 11 0 142 0 143 78 79 c142 146
216 314 229 520 l6 92 66 4 c113 8 215 71 264 162 20 37 22 56 22 201 0 155
-1 162 -27 212 -15 28 -32 54 -38 58 -6 4 -10 57 -10 131 0 111 -2 126 -20
144 -12 12 -33 20 -55 20 -59 0 -75 -26 -75 -120 l0 -81 -552 3 c-550 3 -553
3 -595 25 -51 27 -96 82 -112 132 -7 26 -11 156 -11 393 l0 354 28 55 c34 67
86 105 167 120 39 7 157 9 340 6 227 -4 290 -8 335 -22 183 -57 321 -195 374
-373 8 -29 18 -105 22 -169 6 -93 11 -120 26 -135 25 -25 82 -24 109 3 20 20
21 29 17 168 -4 132 -7 153 -35 227 -75 201 -214 340 -415 417 l-83 32 -375 2
-375 3 -58 -24z m-237 -732 c0 -311 -4 -340 -52 -399 -57 -69 -92 -79 -277
-83 l-163 -4 4 239 c5 264 12 300 79 387 79 102 172 145 317 146 l92 0 0 -286z
m127 -544 c55 -48 112 -77 182 -90 31 -6 221 -10 443 -10 l389 0 -4 -382 c-4
-416 -3 -412 -65 -535 -60 -118 -177 -218 -322 -275 -95 -38 -172 -51 -290
-50 -203 1 -362 64 -493 193 -60 60 -85 94 -111 150 -53 116 -56 146 -56 539
l0 360 28 5 c100 21 171 56 222 110 13 14 25 25 28 25 2 0 24 -18 49 -40z
m-487 -305 l0 -205 -50 0 c-58 0 -99 18 -129 56 -19 24 -21 40 -21 150 0 118
1 124 27 154 33 40 54 49 121 49 l52 1 0 -205z m1797 185 c51 -31 63 -65 63
-180 0 -65 -5 -113 -14 -135 -20 -48 -68 -75 -133 -75 l-53 0 0 205 0 205 53
0 c34 0 63 -7 84 -20z m-1165 -1384 c148 -30 372 -16 498 33 30 11 56 21 58
21 1 0 2 -48 2 -107 l-1 -108 -179 -133 c-125 -94 -183 -131 -193 -125 -8 4
-89 64 -181 133 l-166 125 0 107 0 107 43 -19 c23 -10 77 -26 119 -34z m-1851
-305 c23 -18 24 -26 27 -160 l4 -141 -76 0 -76 0 0 140 c0 127 2 142 20 160
25 25 71 26 101 1z m73 -482 c22 -18 26 -28 26 -75 l0 -54 -124 0 c-117 0
-127 -2 -152 -24 -37 -31 -39 -90 -5 -117 20 -16 41 -19 152 -19 l129 0 0 -74
0 -74 -130 -4 c-118 -3 -131 -5 -152 -25 -31 -31 -30 -89 1 -114 20 -16 41
-19 152 -19 l129 0 0 -57 c0 -93 0 -93 -226 -93 l-193 0 -20 26 c-20 26 -21
38 -21 350 0 337 3 363 44 382 12 6 96 11 192 11 159 1 173 -1 198 -20z m2986
-834 l0 -235 -664 0 -665 0 -20 -26 c-12 -15 -21 -37 -21 -49 0 -12 9 -34 21
-49 l20 -26 665 0 664 0 0 -80 0 -80 -1085 0 -1085 0 0 80 0 80 298 0 c289 0
300 1 317 20 11 12 19 36 19 55 0 19 -8 43 -19 55 -17 19 -28 20 -317 20
l-298 0 0 235 0 235 1085 0 1085 0 0 -235z"/>
<path d="M2576 3589 c-25 -19 -26 -25 -26 -109 0 -84 1 -90 26 -109 30 -24 52
-26 88 -10 30 14 46 55 46 119 0 64 -16 105 -46 119 -36 16 -58 14 -88 -10z"/>
<path d="M3232 3600 c-32 -13 -44 -55 -40 -139 3 -62 7 -76 27 -92 30 -25 72
-24 105 2 24 19 26 26 26 105 0 77 -2 87 -25 109 -25 26 -54 30 -93 15z"/>
<path d="M2700 3073 c-41 -52 -11 -170 62 -242 67 -67 176 -91 276 -61 96 29
173 134 176 237 1 46 -3 58 -23 74 -30 24 -85 25 -109 1 -11 -11 -22 -37 -25
-59 -9 -51 -40 -90 -80 -101 -61 -17 -123 26 -134 90 -9 59 -37 88 -83 88 -30
0 -43 -6 -60 -27z"/>
<path d="M539 3876 c-57 -20 -96 -53 -126 -104 l-28 -47 -3 -495 c-2 -272 0
-519 3 -547 9 -76 55 -140 124 -175 l55 -28 367 0 367 0 53 28 c79 41 109 89
122 196 l11 86 125 0 c155 0 175 8 179 68 l3 43 -155 158 -156 157 0 210 c0
115 -4 236 -10 268 -12 73 -48 128 -109 164 l-46 27 -370 2 c-286 2 -378 0
-406 -11z m743 -160 c33 -25 38 -65 38 -319 l0 -252 97 -97 98 -98 -76 0
c-109 0 -119 -12 -119 -134 0 -101 -12 -151 -40 -166 -11 -6 -154 -10 -353
-10 -315 0 -336 1 -358 19 l-24 19 0 507 0 507 24 19 c22 18 43 19 360 19 260
-1 340 -4 353 -14z"/>
<path d="M988 3283 l-138 -137 -58 57 c-49 49 -63 57 -95 57 -49 0 -77 -28
-77 -77 0 -33 9 -46 98 -135 139 -139 121 -143 344 79 167 166 178 180 178
214 0 45 -36 79 -83 79 -26 0 -52 -21 -169 -137z"/>
</g>
</svg>
