<?xml version="1.0" standalone="no"?>
<!DOCTYPE svg PUBLIC "-//W3C//DTD SVG 20010904//EN"
 "http://www.w3.org/TR/2001/REC-SVG-20010904/DTD/svg10.dtd">
<svg version="1.0" xmlns="http://www.w3.org/2000/svg"
 width="512.000000pt" height="512.000000pt" viewBox="0 0 512.000000 512.000000"
 preserveAspectRatio="xMidYMid meet">
<metadata>
Created by potrace 1.16, written by Peter Selinger 2001-2019
</metadata>
<g transform="translate(0.000000,512.000000) scale(0.100000,-0.100000)"
fill="#000000" stroke="none">
<path d="M670 5101 c-19 -10 -42 -29 -52 -42 -31 -41 -128 -292 -128 -329 0
-44 36 -118 70 -142 19 -13 2889 -1195 3223 -1326 37 -15 67 -30 67 -33 0 -3
-42 -22 -92 -43 -119 -48 -161 -76 -181 -119 -30 -61 -22 -116 35 -254 61
-147 81 -179 128 -204 75 -40 97 -34 554 157 232 97 447 190 479 207 106 55
162 156 155 277 -4 57 -26 117 -193 515 -103 248 -198 464 -211 481 -13 17
-38 39 -57 48 -62 29 -112 21 -257 -40 -164 -69 -174 -75 -201 -130 -29 -61
-23 -114 30 -238 23 -54 41 -99 39 -101 -2 -1 -241 96 -533 215 -2686 1101
-2733 1120 -2788 1120 -32 0 -66 -7 -87 -19z m1825 -846 c935 -383 1714 -699
1730 -702 44 -7 85 28 85 73 0 20 -32 112 -80 226 -44 106 -77 195 -73 199 10
10 218 99 231 99 13 0 382 -884 382 -916 0 -35 -28 -92 -54 -109 -27 -17 -877
-375 -891 -375 -10 0 -106 213 -105 235 0 6 86 46 191 90 105 43 202 88 216
98 33 27 30 92 -7 118 -14 10 -797 334 -1740 720 -943 386 -1719 705 -1723
709 -5 4 13 60 40 124 45 111 49 117 73 112 14 -2 790 -318 1725 -701z"/>
<path d="M240 3655 c-62 -20 -113 -65 -144 -127 l-26 -52 0 -1645 c0 -1583 1
-1648 19 -1686 10 -22 36 -57 57 -77 71 -68 72 -68 477 -68 l363 0 52 26 c29
14 66 42 82 62 62 75 60 28 60 1244 l0 1109 -25 24 c-32 33 -78 33 -110 0
l-25 -24 0 -1103 c0 -1076 -1 -1104 -20 -1135 -30 -51 -63 -55 -406 -51 l-304
3 -32 33 -33 32 -3 1586 c-1 1099 1 1598 8 1625 8 28 21 46 43 60 30 18 48 19
359 17 l328 -3 27 -28 28 -27 5 -391 5 -391 24 -19 c33 -27 77 -24 107 6 l25
25 -3 402 c-3 391 -4 404 -25 443 -25 47 -74 95 -123 121 -32 17 -65 19 -390
21 -284 2 -364 -1 -400 -12z"/>
<path d="M1532 3041 c-66 -23 -124 -77 -152 -142 -20 -48 -20 -51 -18 -1386
l3 -1338 22 -40 c28 -52 68 -89 123 -114 43 -19 64 -21 409 -21 349 0 366 1
408 21 56 27 117 98 132 151 9 32 11 382 9 1378 -3 1223 -4 1338 -20 1365 -24
43 -76 93 -122 118 -40 21 -53 22 -391 24 -320 3 -355 1 -403 -16z m749 -179
l29 -32 0 -1304 c0 -1298 0 -1303 -20 -1329 -12 -15 -38 -31 -58 -37 -49 -13
-585 -13 -634 0 -20 6 -46 22 -58 37 -20 26 -20 31 -20 1328 l0 1302 21 27
c12 15 31 32 43 36 11 5 166 8 344 7 l324 -2 29 -33z"/>
<path d="M2860 2439 c-98 -20 -188 -110 -204 -206 -8 -50 -8 -1976 0 -2026 11
-61 63 -138 118 -172 l49 -30 366 -3 c236 -2 379 1 402 7 57 17 112 63 144
122 l30 54 0 248 0 249 -24 19 c-30 25 -72 24 -105 -2 l-26 -20 0 -216 c0
-235 -6 -267 -57 -294 -38 -20 -648 -20 -686 0 -59 32 -57 -11 -57 1050 0
1078 -3 1028 64 1056 52 22 620 22 672 0 65 -27 64 -11 64 -729 l0 -645 26
-20 c49 -39 114 -18 129 41 3 13 4 318 3 678 l-3 655 -30 54 c-32 57 -68 90
-131 118 -34 16 -77 18 -369 20 -181 1 -350 -3 -375 -8z"/>
<path d="M4104 1816 c-50 -22 -106 -78 -130 -131 l-24 -50 0 -714 c0 -518 3
-724 12 -753 15 -51 77 -121 131 -147 41 -20 59 -21 401 -21 243 0 371 4 397
12 51 15 114 69 142 122 l22 41 3 718 c2 480 -1 731 -8 757 -16 60 -68 121
-129 153 l-55 27 -365 0 c-283 -1 -373 -4 -397 -14z m763 -170 l28 -24 3 -700
c2 -693 2 -699 -18 -725 -12 -14 -38 -31 -58 -37 -49 -13 -585 -13 -634 0 -20
6 -46 22 -58 37 -20 25 -20 36 -20 720 l0 695 29 29 29 29 336 0 335 0 28 -24z"/>
</g>
</svg>
