<?xml version="1.0" standalone="no"?>
<!DOCTYPE svg PUBLIC "-//W3C//DTD SVG 20010904//EN"
 "http://www.w3.org/TR/2001/REC-SVG-20010904/DTD/svg10.dtd">
<svg version="1.0" xmlns="http://www.w3.org/2000/svg"
 width="512.000000pt" height="512.000000pt" viewBox="0 0 512.000000 512.000000"
 preserveAspectRatio="xMidYMid meet">
<metadata>
Created by potrace 1.16, written by Peter Selinger 2001-2019
</metadata>
<g transform="translate(0.000000,512.000000) scale(0.100000,-0.100000)"
fill="#000000" stroke="none">
<path d="M1800 5100 c-275 -72 -489 -289 -560 -566 -20 -75 -21 -109 -20 -710
0 -597 1 -635 20 -709 55 -217 204 -404 398 -503 l74 -37 -5 -54 c-8 -81 -37
-149 -86 -203 -91 -101 -177 -123 -561 -143 -310 -16 -386 -25 -499 -56 -197
-53 -357 -183 -444 -359 -53 -108 -80 -201 -102 -345 -12 -81 -15 -222 -15
-741 0 -608 1 -642 18 -657 17 -16 185 -17 2214 -17 2114 0 2196 1 2211 18 15
17 17 74 17 613 l0 594 45 29 c205 129 433 315 573 468 49 54 57 102 22 133
-11 10 -136 58 -278 107 -473 164 -1324 448 -1340 448 -8 0 -68 -52 -132 -115
-69 -68 -124 -115 -136 -115 -49 0 -206 40 -258 66 -119 58 -196 192 -196 343
0 35 4 41 57 76 152 101 266 266 314 454 18 69 19 118 19 706 0 598 -1 636
-20 710 -66 257 -250 457 -507 549 l-88 31 -330 2 c-300 2 -337 1 -405 -17z
m725 -145 c169 -47 324 -171 402 -321 40 -77 73 -178 73 -225 l0 -22 -22 20
c-52 47 -109 67 -193 66 -83 0 -105 -6 -377 -106 -194 -72 -293 -69 -401 12
-119 90 -266 134 -378 113 -80 -15 -142 -47 -209 -109 l-56 -51 7 74 c15 151
73 271 188 384 49 48 101 88 146 112 132 68 199 78 520 73 185 -3 254 -7 300
-20z m-705 -645 c25 -12 77 -45 115 -72 133 -92 292 -99 503 -22 299 110 316
115 365 111 31 -3 56 -12 71 -26 37 -35 83 -128 112 -230 l26 -92 -5 -382 c-5
-429 -7 -440 -80 -581 -56 -108 -155 -207 -263 -263 -138 -72 -172 -77 -479
-78 -304 0 -331 4 -464 67 -113 54 -229 167 -284 278 -68 137 -69 150 -74 595
l-5 400 26 59 c52 118 142 220 228 256 40 17 158 6 208 -20z m804 -1837 c40
-209 164 -349 354 -399 37 -9 71 -21 76 -25 16 -14 -257 -185 -451 -283 -466
-233 -1117 -413 -1757 -485 -48 -6 -94 -16 -102 -22 -12 -10 -14 -104 -14
-565 l0 -554 -295 0 -295 0 0 468 c1 754 15 889 113 1092 40 82 140 184 222
227 127 67 236 84 654 103 261 12 346 27 459 80 145 69 221 171 260 346 l17
79 310 -2 c236 -2 323 1 365 11 30 8 58 14 61 15 3 1 13 -38 23 -86z m1286
-359 c195 -68 362 -127 370 -130 43 -16 -349 -323 -620 -486 -706 -425 -1652
-686 -2631 -726 l-159 -7 0 188 0 187 35 0 c62 0 325 40 525 80 248 50 433 98
635 165 590 194 1041 451 1360 774 71 72 94 90 110 85 11 -4 180 -62 375 -130z
m783 -270 l215 -76 -84 -78 c-152 -144 -408 -327 -640 -458 -132 -75 -421
-213 -559 -267 -360 -142 -809 -264 -1175 -320 -128 -19 -159 -31 -171 -62
-10 -26 -3 -69 14 -90 15 -19 87 -16 247 12 349 61 776 176 1043 280 16 7 17
-12 17 -319 l0 -326 -1365 0 -1365 0 0 240 0 240 83 0 c101 0 322 15 522 35
938 95 1774 379 2455 835 158 106 324 236 433 341 51 49 97 88 104 89 6 0 108
-34 226 -76z m-373 -1204 l0 -500 -290 0 -290 0 0 353 0 354 108 47 c123 55
370 181 428 219 21 14 40 26 42 26 1 1 2 -224 2 -499z"/>
<path d="M3255 1715 c-87 -42 -163 -81 -167 -88 -13 -20 -9 -61 8 -85 28 -40
83 -30 248 44 148 68 176 89 176 139 0 26 -46 65 -77 65 -15 0 -100 -34 -188
-75z"/>
<path d="M2446 1355 c-225 -102 -417 -192 -427 -201 -23 -21 -24 -62 -3 -92
33 -47 69 -36 504 158 229 102 413 189 423 201 37 46 3 119 -56 119 -20 0
-192 -73 -441 -185z"/>
</g>
</svg>
