<?xml version="1.0" standalone="no"?>
<!DOCTYPE svg PUBLIC "-//W3C//DTD SVG 20010904//EN"
 "http://www.w3.org/TR/2001/REC-SVG-20010904/DTD/svg10.dtd">
<svg version="1.0" xmlns="http://www.w3.org/2000/svg"
 width="512.000000pt" height="512.000000pt" viewBox="0 0 512.000000 512.000000"
 preserveAspectRatio="xMidYMid meet">
<metadata>
Created by potrace 1.16, written by Peter Selinger 2001-2019
</metadata>
<g transform="translate(0.000000,512.000000) scale(0.100000,-0.100000)"
fill="#000000" stroke="none">
<path d="M3885 4310 c-22 -5 -96 -24 -163 -44 -275 -80 -388 -94 -860 -106
-528 -14 -779 -52 -1206 -185 -196 -61 -325 -91 -469 -110 -156 -20 -347 -21
-409 -2 -111 35 -194 108 -260 232 -58 108 -101 138 -202 143 -82 4 -130 -13
-177 -65 -62 -66 -60 -43 -57 -621 3 -523 3 -527 26 -576 50 -109 156 -208
253 -237 l39 -12 0 -694 0 -694 -25 -33 c-58 -76 -73 -208 -34 -311 97 -260
501 -260 598 0 39 103 24 235 -34 311 -19 25 -25 45 -25 83 l0 51 1680 0 1680
0 0 -51 c0 -38 -6 -58 -25 -83 -58 -76 -73 -208 -34 -311 97 -260 501 -260
598 0 39 103 24 235 -34 311 l-25 33 0 729 0 730 38 7 c55 10 148 63 187 106
19 21 47 62 62 91 24 47 28 66 31 174 8 237 -65 477 -208 689 -209 308 -465
457 -785 454 -66 -1 -138 -5 -160 -9z m372 -190 c107 -34 198 -93 294 -190
145 -147 239 -310 290 -500 18 -67 23 -112 24 -211 0 -117 -2 -128 -25 -161
-13 -20 -42 -48 -65 -63 -50 -33 -108 -30 -208 9 -133 51 -300 52 -467 0 -61
-18 -116 -27 -195 -31 -99 -4 -113 -2 -143 16 -18 12 -41 35 -53 53 -19 31
-20 44 -15 183 3 108 12 183 31 270 14 66 28 131 31 145 5 25 3 27 -71 44 -42
10 -80 14 -85 10 -19 -22 -66 -269 -76 -404 l-7 -87 -70 -7 c-156 -14 -298
-55 -478 -136 -174 -79 -245 -94 -424 -94 -204 1 -280 20 -490 125 -170 84
-227 103 -369 120 -135 16 -272 -3 -389 -55 -29 -13 -101 -60 -162 -105 -131
-99 -182 -126 -283 -152 -101 -26 -344 -27 -421 -2 -68 22 -132 79 -162 145
l-24 53 0 471 c0 511 -1 504 55 504 32 0 48 -17 81 -83 61 -125 190 -235 331
-281 68 -23 94 -26 218 -26 252 0 465 35 745 121 457 142 735 185 1252 194
426 8 591 29 858 111 66 20 149 39 185 43 90 9 206 -3 287 -29z m-2571 -1081
c93 -13 209 -54 292 -102 84 -49 222 -103 317 -122 54 -11 133 -17 245 -18
232 -1 262 7 573 137 103 44 254 84 346 92 l66 6 22 -49 c27 -60 91 -125 153
-156 40 -20 60 -22 185 -22 116 0 155 5 225 24 144 40 130 44 130 -38 l0 -71
-1682 0 -1683 1 92 34 c107 38 163 71 271 157 148 118 268 152 448 127z m2822
-196 l52 -16 0 -693 0 -694 -80 0 -80 0 0 716 0 716 28 -6 c15 -4 51 -14 80
-23z m-3788 -768 l0 -635 -80 0 -80 0 0 635 0 635 80 0 80 0 0 -635z m3520
165 l0 -320 -1680 0 -1680 0 0 320 0 320 1680 0 1680 0 0 -320z m0 -560 l0
-80 -1680 0 -1680 0 0 80 0 80 1680 0 1680 0 0 -80z m-3522 -430 c130 -79 74
-280 -78 -280 -85 0 -150 65 -150 150 0 85 65 150 150 150 27 0 58 -8 78 -20z
m3840 0 c130 -79 74 -280 -78 -280 -85 0 -150 65 -150 150 0 85 65 150 150
150 27 0 58 -8 78 -20z"/>
<path d="M3918 3925 c-38 -25 -68 -48 -68 -51 0 -16 65 -97 113 -140 91 -83
210 -134 314 -134 l43 0 0 84 0 83 -48 5 c-94 9 -190 70 -262 166 l-25 33 -67
-46z"/>
<path d="M2390 3575 c0 -91 -112 -204 -202 -205 l-28 0 0 -86 0 -87 61 6 c165
15 321 171 336 336 l6 61 -87 0 c-85 0 -86 0 -86 -25z"/>
<path d="M920 3303 c-177 -123 -291 -125 -413 -5 l-47 47 -63 -63 -62 -63 60
-56 c87 -82 167 -116 281 -121 64 -3 107 0 147 12 69 20 271 151 261 169 -27
45 -86 127 -92 126 -4 0 -36 -21 -72 -46z"/>
</g>
</svg>
