<?xml version="1.0" standalone="no"?>
<!DOCTYPE svg PUBLIC "-//W3C//DTD SVG 20010904//EN"
 "http://www.w3.org/TR/2001/REC-SVG-20010904/DTD/svg10.dtd">
<svg version="1.0" xmlns="http://www.w3.org/2000/svg"
 width="512.000000pt" height="512.000000pt" viewBox="0 0 512.000000 512.000000"
 preserveAspectRatio="xMidYMid meet">
<metadata>
Created by potrace 1.16, written by Peter Selinger 2001-2019
</metadata>
<g transform="translate(0.000000,512.000000) scale(0.100000,-0.100000)"
fill="#000000" stroke="none">
<path d="M126 5100 c-56 -29 -76 -49 -102 -105 l-24 -50 0 -1972 c0 -1907 1
-1973 19 -2032 48 -154 176 -274 338 -316 44 -12 121 -15 334 -15 l278 0 3
-212 c3 -211 3 -213 30 -259 32 -54 77 -95 133 -120 38 -18 96 -19 1107 -19
l1067 0 20 26 c36 45 20 105 -32 124 -20 7 -367 10 -1061 10 -1134 0 -1058 -4
-1091 60 -23 44 -22 1217 0 1260 33 64 -70 60 1535 60 1605 0 1502 4 1535 -60
22 -43 23 -1216 0 -1260 -30 -59 -37 -60 -301 -60 -145 0 -253 -4 -272 -11
-52 -18 -67 -93 -26 -133 13 -14 54 -16 292 -16 246 0 281 2 317 19 56 25 101
66 133 120 27 46 27 48 30 259 l3 212 266 0 c295 0 321 4 384 59 55 46 79 100
79 179 0 100 -40 171 -122 213 l-38 19 0 470 0 470 38 19 c48 25 87 66 106
113 13 31 16 87 16 317 0 173 -4 290 -11 308 -15 40 -67 92 -114 114 -56 26
-163 26 -214 -1 -37 -18 -83 -64 -94 -92 -3 -8 -288 269 -688 668 -750 748
-716 719 -839 719 -121 0 -102 15 -703 -584 l-547 -546 -368 368 c-333 333
-371 367 -400 367 -44 0 -82 -38 -82 -82 0 -30 36 -69 408 -440 379 -380 410
-408 442 -408 32 0 72 37 615 579 621 620 607 608 676 578 21 -9 322 -303 769
-751 696 -697 737 -736 770 -736 61 0 80 22 81 93 1 84 10 110 43 125 22 11
33 11 57 2 45 -19 51 -56 47 -308 l-3 -224 -28 -24 c-28 -24 -29 -24 -268 -24
-281 0 -298 4 -299 76 0 48 24 61 118 66 74 3 86 6 103 27 11 13 19 39 19 59
0 35 -31 68 -692 730 -381 382 -706 700 -721 706 -16 7 -41 11 -55 8 -19 -3
-196 -173 -607 -583 -573 -572 -581 -579 -621 -579 -22 0 -51 7 -64 16 -14 9
-328 319 -697 688 l-673 671 0 100 0 99 183 -182 c203 -202 213 -207 268 -153
56 57 54 60 -211 326 l-240 241 0 195 c0 108 -5 220 -10 250 -13 67 -48 121
-102 156 -35 24 -53 28 -122 31 -65 2 -89 -2 -120 -18z m180 -186 c12 -28 14
-334 14 -1945 0 -1909 0 -1911 21 -1948 11 -20 36 -48 56 -61 36 -25 38 -25
305 -28 l268 -3 0 -80 0 -80 -287 3 -288 3 -57 28 c-67 33 -121 90 -157 166
l-26 56 -3 1918 c-2 1348 1 1930 8 1958 21 76 116 85 146 13z m1484 -2368 c41
-19 71 -26 120 -26 126 0 114 -9 715 590 l540 540 594 -594 593 -593 -45 -26
c-113 -66 -131 -255 -34 -355 62 -65 70 -67 310 -70 l217 -4 0 -459 0 -459
-205 0 -205 0 0 193 c0 215 -8 255 -61 320 -17 20 -52 49 -77 65 l-47 27
-1525 0 -1525 0 -47 -27 c-25 -16 -60 -45 -77 -65 -53 -65 -61 -105 -61 -320
l0 -193 -242 2 -243 3 -3 1365 -2 1365 627 -627 c535 -534 636 -631 683 -652z
m3144 -1637 c20 -16 26 -29 26 -59 0 -30 -6 -43 -26 -59 -25 -20 -39 -21 -285
-21 l-259 0 0 80 0 80 259 0 c246 0 260 -1 285 -21z"/>
<path d="M2834 1304 c-12 -3 -30 -14 -40 -26 -18 -19 -19 -46 -22 -397 -2
-207 0 -391 3 -409 3 -17 16 -41 27 -52 20 -18 36 -20 199 -20 l177 0 63 33
c99 51 149 138 149 257 0 65 -32 140 -78 186 l-32 30 20 39 c41 80 22 204 -44
282 -51 60 -101 76 -260 79 -77 1 -151 0 -162 -2z m271 -168 c59 -25 74 -93
31 -143 -23 -26 -30 -28 -115 -31 l-91 -4 0 96 0 96 70 0 c39 0 86 -6 105 -14z
m91 -378 c39 -43 45 -91 18 -138 -30 -49 -61 -60 -178 -60 l-106 0 0 121 0
121 116 -4 116 -3 34 -37z"/>
<path d="M2203 1288 c-42 -20 -44 -44 -41 -457 l3 -393 24 -19 c21 -17 41 -19
211 -19 169 0 190 2 211 19 34 27 32 86 -5 117 -25 23 -35 24 -157 24 l-129 0
0 105 0 105 123 0 c116 0 125 1 145 23 32 34 30 89 -4 116 -24 19 -40 21 -145
21 l-119 0 0 105 0 105 131 0 c72 0 139 4 149 10 47 25 43 116 -6 139 -32 14
-360 14 -391 -1z"/>
<path d="M3440 1282 c-33 -27 -31 -89 5 -119 22 -20 37 -23 101 -23 l74 0 0
-346 c0 -202 4 -353 10 -363 5 -10 23 -24 40 -31 35 -15 84 0 100 31 6 10 10
161 10 363 l0 346 70 0 c38 0 80 5 94 11 50 23 57 103 13 134 -18 12 -66 15
-258 15 -213 0 -239 -2 -259 -18z"/>
<path d="M1391 1254 c-20 -26 -21 -37 -21 -406 0 -411 2 -431 54 -444 14 -3
94 -4 178 -2 143 3 157 5 209 31 134 65 219 225 219 412 0 195 -95 362 -235
414 -48 18 -78 21 -220 21 l-164 0 -20 -26z m371 -163 c154 -98 140 -428 -21
-511 -31 -15 -60 -20 -126 -20 l-85 0 0 280 0 280 93 0 c86 0 97 -2 139 -29z"/>
</g>
</svg>
