<?xml version="1.0" standalone="no"?>
<!DOCTYPE svg PUBLIC "-//W3C//DTD SVG 20010904//EN"
 "http://www.w3.org/TR/2001/REC-SVG-20010904/DTD/svg10.dtd">
<svg version="1.0" xmlns="http://www.w3.org/2000/svg"
 width="512.000000pt" height="512.000000pt" viewBox="0 0 512.000000 512.000000"
 preserveAspectRatio="xMidYMid meet">
<metadata>
Created by potrace 1.16, written by Peter Selinger 2001-2019
</metadata>
<g transform="translate(0.000000,512.000000) scale(0.100000,-0.100000)"
fill="#000000" stroke="none">
<path d="M899 5022 c-132 -44 -246 -140 -302 -254 -24 -51 -32 -58 -70 -69
-107 -28 -206 -113 -255 -217 -22 -47 -27 -75 -30 -153 -3 -84 -1 -104 21
-158 l25 -61 -43 -31 c-56 -40 -99 -95 -133 -167 -24 -51 -27 -68 -27 -172 0
-108 2 -119 31 -180 17 -36 51 -87 76 -115 43 -47 45 -54 50 -122 7 -98 50
-187 126 -262 32 -31 72 -63 88 -69 23 -10 37 -28 59 -80 54 -124 154 -206
295 -242 l65 -16 3 -100 2 -99 -58 -37 c-181 -116 -322 -306 -388 -523 l-28
-90 -4 -365 c-3 -338 -2 -373 17 -467 91 -445 429 -780 881 -875 129 -27 367
-21 479 11 330 97 577 345 673 677 23 78 23 84 23 664 l0 585 -29 60 c-38 76
-114 153 -190 190 -46 23 -77 30 -141 33 -99 5 -143 -7 -198 -57 -56 -50 -77
-101 -77 -186 l0 -70 -80 80 -80 80 0 236 0 237 98 4 c83 3 107 8 157 33 77
37 153 113 191 190 l29 60 3 232 3 231 30 12 c37 16 94 79 114 126 8 20 15 66
15 104 0 62 -4 75 -55 173 -49 94 -95 228 -95 277 0 10 17 24 42 36 56 25 128
98 158 159 22 44 25 64 25 155 0 89 -3 112 -23 151 -50 102 -143 172 -262 199
-50 12 -59 18 -100 73 -55 74 -147 139 -236 167 -117 36 -278 24 -378 -27
l-39 -20 -91 30 c-118 39 -279 48 -367 19z m339 -194 l124 -40 81 38 c70 33
94 39 164 42 72 4 89 1 140 -23 68 -31 110 -69 164 -147 22 -32 45 -58 51 -58
6 0 47 -10 91 -21 123 -34 177 -91 177 -189 0 -58 -15 -93 -57 -131 -52 -49
-70 -53 -238 -57 -182 -5 -229 6 -241 52 -16 64 28 106 111 106 l35 0 0 80 0
80 -72 0 c-49 0 -86 -6 -113 -19 -41 -18 -98 -75 -117 -117 -11 -23 -16 -24
-105 -24 -250 0 -464 -160 -533 -399 -23 -80 -24 -81 -56 -81 -101 0 -224 -91
-263 -195 -28 -74 -28 -175 0 -249 37 -101 144 -184 250 -194 l49 -5 0 -223
c0 -123 -4 -224 -8 -224 -5 0 -30 7 -57 17 -75 25 -127 84 -159 180 l-26 80
-55 22 c-59 25 -128 91 -151 146 -7 19 -17 73 -20 122 l-7 88 -59 62 c-70 74
-88 113 -88 191 0 108 37 162 171 253 l88 59 -49 102 c-44 88 -50 109 -50 163
0 109 71 196 183 226 23 5 59 15 79 20 34 9 39 14 53 63 39 133 147 228 280
245 70 9 94 5 233 -41z m317 -636 c17 -25 49 -60 73 -77 44 -30 44 -30 205
-33 l162 -3 18 -91 c19 -99 61 -209 107 -282 32 -50 39 -101 18 -128 -7 -9
-32 -28 -56 -42 -24 -15 -52 -43 -64 -62 l-20 -34 -240 0 -240 0 4 -98 c3 -83
8 -107 33 -157 37 -77 114 -154 190 -190 48 -23 78 -29 147 -33 l87 -4 -14
-27 c-20 -40 -87 -97 -131 -112 -44 -16 -367 -20 -418 -6 -16 4 -58 36 -93 70
l-64 61 -62 -63 -62 -62 67 -64 c92 -87 133 -107 236 -113 l82 -5 0 -174 c0
-96 -3 -173 -7 -171 -5 2 -60 29 -123 60 -103 51 -227 95 -317 113 l-33 7 0
482 0 483 -99 5 c-74 4 -107 10 -132 24 -106 62 -106 206 0 268 25 14 58 20
130 24 l98 5 11 93 c14 120 44 187 116 260 83 82 182 120 321 122 37 1 42 -3
70 -46z m445 -993 l0 -82 -66 7 c-37 4 -83 14 -103 22 -42 17 -96 67 -117 107
l-15 27 151 0 150 0 0 -81z m-748 -970 c146 -61 304 -172 406 -284 l51 -55
-15 -37 c-12 -28 -15 -68 -12 -178 2 -94 0 -141 -7 -138 -5 3 -65 40 -132 82
l-123 76 75 75 c41 42 75 80 75 85 0 6 -103 71 -228 145 l-227 136 -17 59
c-27 97 -27 97 35 78 28 -8 82 -28 119 -44z m-120 -305 l167 -100 -77 -77
c-67 -67 -75 -79 -62 -91 8 -7 165 -107 347 -221 l333 -207 -6 -41 c-17 -115
-58 -189 -138 -244 -59 -40 -103 -53 -186 -53 -84 0 -167 38 -228 104 -64 69
-73 101 -82 266 -7 151 -18 192 -68 275 -24 39 -111 135 -122 135 -8 0 -100
-126 -100 -137 0 -4 8 -13 18 -20 28 -17 81 -101 93 -147 6 -23 14 -102 18
-176 6 -123 9 -141 38 -200 81 -170 244 -270 442 -270 139 0 236 37 333 128
88 82 148 207 148 308 l0 44 161 0 162 0 -7 -132 c-9 -165 -27 -249 -78 -358
-80 -173 -210 -304 -383 -386 -118 -55 -212 -76 -350 -75 -345 1 -662 198
-830 514 -86 162 -115 323 -115 647 0 218 15 366 46 459 45 135 130 258 248
358 l51 44 30 -123 31 -123 166 -101z m1043 207 c50 -23 98 -73 122 -126 15
-35 18 -79 21 -342 l4 -303 -181 0 -180 0 -36 53 c-93 138 -112 392 -31 413
64 16 106 -28 106 -111 l0 -35 80 0 80 0 0 73 c0 48 -6 85 -19 112 -18 41 -75
98 -117 117 -19 9 -24 19 -24 49 0 46 15 90 37 107 24 18 92 14 138 -7z"/>
<path d="M1360 3850 c0 -82 17 -130 63 -179 47 -49 100 -71 177 -71 77 0 130
22 177 71 46 49 63 97 63 179 l0 70 -80 0 -80 0 0 -35 c0 -83 -42 -127 -106
-111 -30 8 -54 57 -54 111 l0 35 -80 0 -80 0 0 -70z"/>
<path d="M4027 5026 c-88 -32 -168 -115 -183 -191 -5 -27 -12 -33 -47 -42 -61
-17 -128 -72 -162 -134 -28 -50 -30 -61 -30 -156 l0 -103 -110 0 c-124 0 -159
-13 -195 -72 -19 -32 -20 -52 -20 -700 l0 -668 -320 0 -320 0 0 -80 0 -80 348
0 c329 0 349 1 380 20 18 11 41 34 52 52 19 32 20 52 20 701 l0 667 83 0 82 0
0 -103 c0 -95 2 -106 30 -156 34 -62 101 -117 161 -133 36 -10 42 -16 52 -52
16 -60 71 -127 133 -161 50 -28 62 -30 154 -30 80 0 108 4 140 20 l40 20 59
-24 c51 -20 73 -23 145 -19 71 3 95 9 140 33 62 34 117 101 133 161 10 36 16
42 52 52 60 16 127 71 161 133 41 75 47 193 16 279 l-22 60 22 60 c31 86 25
204 -16 279 -34 62 -101 117 -161 133 -36 10 -42 16 -52 52 -16 60 -71 127
-133 161 -50 28 -62 30 -154 30 -80 0 -108 -4 -140 -20 l-40 -20 -55 22 c-64
26 -182 30 -243 9z m176 -167 c12 -6 43 -32 69 -57 l47 -46 55 52 c60 57 86
67 154 59 36 -4 53 -12 74 -36 15 -17 28 -35 28 -40 0 -4 -22 -22 -49 -38 -27
-17 -77 -66 -115 -113 l-67 -83 -68 2 c-42 1 -82 -3 -104 -12 l-35 -15 -69 56
c-91 74 -106 95 -111 156 -3 42 0 56 18 79 13 16 32 33 44 37 31 13 104 12
129 -1z m-316 -278 c17 -27 66 -77 113 -115 l83 -67 -2 -68 c-1 -42 3 -82 12
-104 l15 -35 -56 -69 c-74 -91 -95 -106 -157 -111 -46 -4 -56 -1 -85 25 -25
22 -33 39 -37 75 -8 68 2 94 59 154 l51 54 -51 54 c-57 60 -67 86 -59 154 4
36 12 53 36 74 17 15 35 28 40 28 4 0 22 -22 38 -49z m944 21 c24 -21 32 -38
36 -74 8 -68 -2 -94 -59 -154 l-51 -54 51 -54 c57 -60 67 -86 59 -154 -4 -36
-12 -53 -36 -74 -17 -15 -35 -28 -40 -28 -4 0 -22 22 -38 49 -17 27 -66 77
-113 115 l-83 67 2 68 c1 43 -3 82 -12 104 l-15 35 60 73 c68 85 105 109 165
109 33 0 50 -7 74 -28z m-461 -232 c11 -11 20 -33 20 -50 0 -17 -9 -39 -20
-50 -11 -11 -33 -20 -50 -20 -17 0 -39 9 -50 20 -11 11 -20 33 -20 50 0 17 9
39 20 50 11 11 33 20 50 20 17 0 39 -9 50 -20z m165 -333 c71 -58 95 -97 95
-154 0 -61 -39 -103 -102 -110 -68 -8 -94 2 -154 59 l-54 51 -54 -51 c-60 -57
-86 -67 -154 -59 -36 4 -53 12 -74 36 -15 17 -28 35 -28 40 0 4 22 22 49 38
27 17 77 66 115 113 l67 83 72 -1 c42 -1 85 4 102 12 34 15 28 18 120 -57z"/>
<path d="M4160 3261 c-244 -78 -400 -285 -400 -530 l0 -91 -560 0 -560 0 0
-80 0 -80 580 0 580 0 25 -50 c14 -27 50 -87 80 -134 77 -117 85 -143 92 -265
7 -130 29 -195 86 -254 63 -64 126 -91 222 -95 106 -5 177 21 245 88 64 65 86
125 93 261 7 123 15 146 96 272 67 104 107 185 127 260 19 72 18 240 -2 308
-54 184 -188 323 -367 384 -95 31 -249 34 -337 6z m323 -184 c74 -34 160 -120
194 -194 21 -46 28 -78 31 -149 5 -118 -16 -185 -99 -313 -71 -110 -98 -162
-114 -216 l-12 -40 -163 0 -163 0 -12 40 c-16 54 -43 106 -114 216 -83 128
-104 195 -99 313 3 71 10 103 30 146 47 100 129 176 231 212 78 28 213 21 290
-15z m-13 -1099 c0 -64 -76 -128 -150 -128 -74 0 -150 64 -150 128 0 22 1 22
150 22 149 0 150 0 150 -22z"/>
<path d="M4240 2880 l0 -80 -80 0 -80 0 0 -80 0 -80 80 0 80 0 0 -80 0 -80 80
0 80 0 0 80 0 80 80 0 80 0 0 80 0 80 -80 0 -80 0 0 80 0 80 -80 0 -80 0 0
-80z"/>
<path d="M2640 2240 l0 -80 320 0 320 0 0 -667 c0 -649 1 -669 20 -701 41 -66
62 -72 281 -72 l196 0 23 -52 c20 -43 82 -111 312 -343 l288 -290 284 285
c346 348 351 355 351 525 0 97 -3 116 -24 160 -33 66 -100 131 -169 163 -45
21 -75 27 -147 30 -105 4 -173 -16 -249 -74 l-46 -35 -46 35 c-76 58 -144 78
-249 74 -72 -3 -102 -9 -147 -30 -101 -47 -178 -145 -194 -247 l-7 -41 -158 0
-159 0 0 668 c0 648 -1 668 -20 700 -11 18 -34 41 -52 52 -31 19 -51 20 -380
20 l-348 0 0 -80z m1556 -1220 c15 -6 67 -50 116 -97 l88 -87 83 81 c96 95
128 113 197 113 74 0 144 -40 176 -102 20 -38 17 -125 -5 -173 -12 -25 -100
-120 -235 -255 l-216 -215 -216 215 c-135 135 -223 230 -235 255 -22 48 -25
135 -5 173 17 33 50 64 91 85 34 19 121 22 161 7z"/>
</g>
</svg>
