<?xml version="1.0" standalone="no"?>
<!DOCTYPE svg PUBLIC "-//W3C//DTD SVG 20010904//EN"
 "http://www.w3.org/TR/2001/REC-SVG-20010904/DTD/svg10.dtd">
<svg version="1.0" xmlns="http://www.w3.org/2000/svg"
 width="512.000000pt" height="512.000000pt" viewBox="0 0 512.000000 512.000000"
 preserveAspectRatio="xMidYMid meet">
<metadata>
Created by potrace 1.16, written by Peter Selinger 2001-2019
</metadata>
<g transform="translate(0.000000,512.000000) scale(0.100000,-0.100000)"
fill="#000000" stroke="none">
<path d="M1715 4961 c-196 -23 -382 -79 -585 -177 -229 -111 -474 -271 -617
-405 -62 -58 -64 -79 -17 -168 128 -245 298 -477 483 -660 l136 -134 -111
-112 c-317 -320 -479 -742 -460 -1200 13 -316 101 -586 277 -851 99 -148 284
-334 432 -432 134 -89 289 -166 335 -166 54 0 87 54 66 109 -4 8 -52 38 -108
66 -55 28 -130 69 -166 91 l-65 39 3 101 c5 153 -32 300 -106 427 -24 41 -25
47 -13 89 6 25 37 97 67 161 113 236 136 317 114 394 -21 77 -76 122 -205 166
-49 17 -99 36 -111 42 -21 11 -76 98 -154 244 -24 44 -56 100 -73 124 l-30 44
42 81 c70 134 150 245 261 359 57 60 112 113 122 118 13 7 30 2 66 -21 136
-83 337 -159 465 -175 l59 -8 -52 -45 c-64 -56 -143 -166 -171 -241 -30 -79
-37 -218 -14 -296 62 -215 201 -315 434 -315 36 0 140 11 231 25 163 24 165
24 181 5 28 -32 39 -136 39 -351 0 -263 14 -448 41 -536 36 -114 121 -183 230
-183 219 0 520 297 537 532 2 37 -3 128 -13 202 -27 210 -11 288 82 387 41 44
243 189 263 189 12 0 31 -138 37 -260 15 -327 -93 -669 -297 -937 -218 -289
-532 -485 -903 -565 -83 -17 -138 -22 -296 -23 -218 -1 -221 -2 -221 -77 0
-57 24 -68 172 -75 271 -13 555 49 803 173 303 153 574 423 724 723 188 376
221 827 91 1236 -100 312 -311 606 -577 804 l-72 53 72 55 c40 31 82 64 93 75
21 19 22 19 96 -40 249 -198 458 -483 573 -782 79 -204 114 -380 122 -610 16
-508 -164 -977 -515 -1341 -252 -261 -539 -431 -880 -520 -742 -192 -1526 94
-1975 721 -264 369 -382 816 -337 1271 14 146 11 171 -25 187 -36 17 -59 15
-85 -6 -29 -24 -49 -174 -50 -374 -1 -552 217 -1062 616 -1448 163 -157 313
-262 516 -360 277 -134 570 -200 885 -200 548 0 1059 218 1443 616 157 163
262 313 360 516 233 483 265 1052 87 1548 -19 52 -37 102 -41 111 -6 13 10 22
86 48 359 125 642 340 764 583 65 128 79 201 79 398 0 195 -12 269 -72 450
-45 136 -154 365 -181 379 -34 18 -71 13 -197 -30 -391 -131 -676 -349 -799
-610 -59 -125 -71 -184 -71 -364 0 -88 4 -185 8 -215 l8 -54 -94 91 c-51 50
-131 118 -177 152 -77 58 -88 70 -148 174 -113 196 -253 389 -297 409 -45 20
-105 -24 -105 -76 0 -8 37 -65 83 -127 88 -121 177 -257 177 -271 0 -4 -6 -8
-12 -8 -38 2 -600 118 -607 126 -16 17 -591 804 -591 809 0 5 72 -2 150 -16
172 -31 376 -133 534 -266 48 -40 87 -43 121 -8 40 39 33 76 -22 125 -114 100
-313 214 -452 259 -148 48 -348 69 -496 52z m258 -538 c152 -207 276 -378 274
-379 -1 -1 -120 21 -264 49 l-262 52 -201 274 c-110 150 -200 276 -200 280 0
16 286 100 346 101 30 0 45 -19 307 -377z m-638 -11 c86 -118 155 -215 153
-218 -3 -3 -499 91 -725 137 l-53 10 28 23 c97 82 403 269 429 264 7 -2 82
-99 168 -216z m3182 196 c-23 -58 -298 -712 -304 -723 -5 -8 -42 68 -102 216
-75 183 -91 232 -82 243 45 54 215 161 361 228 109 49 136 57 127 36z m215
-208 c59 -171 94 -372 67 -382 -8 -3 -108 -45 -223 -92 -115 -47 -210 -85
-211 -84 -1 2 66 166 149 365 l151 361 19 -41 c10 -23 31 -80 48 -127z m-719
-462 c59 -145 107 -267 107 -271 0 -9 -175 -429 -189 -454 -11 -21 -82 158
-117 299 -35 140 -44 342 -19 452 16 72 88 236 103 236 4 0 56 -118 115 -262z
m-2914 173 c201 -39 365 -72 367 -74 3 -3 -414 -307 -430 -313 -19 -7 -146
149 -257 315 -49 73 -89 138 -89 143 0 6 10 8 23 5 12 -3 186 -38 386 -76z
m876 -171 c142 -28 260 -52 261 -53 1 -1 -162 -122 -363 -269 l-365 -268 -72
38 c-71 37 -187 119 -259 183 l-38 34 268 197 c187 137 274 195 288 192 11 -2
137 -27 280 -54z m795 -155 c162 -32 296 -58 298 -59 4 -4 -148 -111 -243
-171 -49 -31 -153 -88 -230 -125 -251 -122 -436 -172 -645 -173 -113 -1 -279
18 -266 30 37 37 765 560 776 558 8 -2 148 -29 310 -60z m2026 23 c-9 -58 -55
-163 -100 -231 -52 -78 -197 -211 -300 -275 -89 -56 -304 -157 -314 -148 -3 3
40 113 94 243 l100 238 254 107 c140 59 259 107 264 107 5 1 6 -18 2 -41z
m-1766 -437 c88 -62 250 -220 318 -310 30 -41 76 -110 102 -155 45 -78 120
-243 120 -263 0 -5 -53 -41 -117 -79 -84 -49 -140 -92 -198 -149 -147 -146
-178 -263 -139 -537 20 -142 15 -192 -26 -273 -61 -120 -181 -230 -296 -271
-43 -15 -56 -16 -82 -5 -67 28 -81 112 -87 500 -6 334 -16 414 -62 491 -20 32
-43 52 -77 69 l-49 25 -191 -27 c-219 -31 -272 -33 -344 -12 -67 20 -114 62
-149 133 -24 49 -28 69 -28 142 0 76 4 92 32 146 39 74 111 155 187 209 32 22
77 55 102 73 33 25 63 36 122 47 219 38 506 151 697 274 68 43 62 44 165 -28z
m-2087 -1127 c32 -31 63 -48 127 -69 109 -36 157 -60 164 -83 8 -25 -21 -107
-97 -269 -115 -244 -120 -291 -51 -425 47 -93 84 -216 84 -277 l-1 -36 -82 85
c-139 145 -247 328 -316 535 -88 263 -102 516 -44 788 l16 77 78 -142 c50 -91
95 -158 122 -184z"/>
</g>
</svg>
