<?xml version="1.0" standalone="no"?>
<!DOCTYPE svg PUBLIC "-//W3C//DTD SVG 20010904//EN"
 "http://www.w3.org/TR/2001/REC-SVG-20010904/DTD/svg10.dtd">
<svg version="1.0" xmlns="http://www.w3.org/2000/svg"
 width="512.000000pt" height="512.000000pt" viewBox="0 0 512.000000 512.000000"
 preserveAspectRatio="xMidYMid meet">
<metadata>
Created by potrace 1.16, written by Peter Selinger 2001-2019
</metadata>
<g transform="translate(0.000000,512.000000) scale(0.100000,-0.100000)"
fill="#000000" stroke="none">
<path d="M641 4874 c-125 -34 -228 -120 -289 -243 l-37 -75 -5 -1281 -5 -1282
-57 -52 c-101 -93 -111 -124 -159 -496 -48 -376 -49 -456 -5 -547 36 -76 106
-144 185 -181 53 -25 80 -31 161 -35 l97 -5 5 -101 c4 -91 8 -108 38 -164 39
-73 83 -115 160 -151 47 -22 68 -26 145 -25 104 1 158 20 224 79 58 52 77 88
125 232 l43 128 192 5 c188 5 193 6 212 29 26 32 24 77 -6 106 l-24 25 -618 0
c-405 0 -631 4 -656 11 -47 13 -112 70 -138 120 -11 23 -19 59 -19 90 0 67 66
601 82 659 15 58 87 131 144 148 60 18 4188 18 4248 0 57 -17 129 -90 144
-148 16 -58 82 -592 82 -659 0 -31 -8 -67 -19 -90 -26 -50 -91 -107 -138 -120
-26 -8 -443 -11 -1306 -11 l-1268 0 -24 -25 c-30 -29 -32 -74 -6 -106 l19 -24
843 -5 842 -5 43 -128 c48 -144 67 -180 125 -232 66 -59 120 -78 224 -79 83
-1 96 2 157 32 123 60 180 156 186 313 l4 96 99 5 c85 4 107 9 163 37 81 40
146 104 182 179 44 91 43 171 -5 547 -47 370 -58 404 -156 493 l-55 51 0 1213
c0 725 -5 1243 -10 1288 -36 275 -298 454 -565 385 -129 -34 -231 -119 -293
-244 l-37 -75 -3 -208 -3 -209 -62 7 c-97 10 -245 51 -325 89 -41 19 -133 70
-205 114 -314 188 -440 225 -757 225 -317 0 -443 -37 -757 -225 -72 -44 -164
-95 -205 -114 -78 -37 -226 -78 -320 -89 l-58 -6 0 137 c-1 191 -13 273 -54
358 -92 194 -315 296 -525 239z m207 -159 c68 -20 151 -96 183 -167 l24 -53 3
-853 3 -854 -60 -63 c-71 -77 -135 -199 -156 -300 -9 -44 -15 -128 -15 -227
l0 -158 -180 0 -180 0 0 1233 0 1232 24 50 c13 29 45 70 76 98 80 72 173 93
278 62z m3600 0 c68 -20 151 -96 183 -167 l24 -53 3 -1227 3 -1228 -186 0
-185 0 0 158 c0 99 -6 183 -15 227 -20 97 -85 223 -150 294 l-55 59 0 863 0
864 24 50 c13 29 45 70 76 98 80 72 173 93 278 62z m-1628 -320 c115 -25 221
-72 375 -163 295 -177 408 -219 658 -247 l57 -6 0 -295 0 -294 -361 0 c-211 0
-368 -4 -378 -10 -31 -16 -46 -65 -31 -100 7 -17 21 -35 31 -40 10 -6 167 -10
378 -10 l361 0 0 -173 0 -173 -72 25 -73 26 -490 0 -490 0 -66 -31 c-36 -18
-87 -52 -113 -76 l-46 -45 -45 44 c-54 51 -120 86 -195 103 -40 8 -182 11
-510 8 -438 -3 -457 -4 -520 -26 -36 -12 -66 -22 -67 -22 -2 0 -3 77 -3 170
l0 170 709 0 c701 0 709 0 735 21 20 16 26 29 26 59 0 30 -6 43 -26 59 -26 21
-34 21 -735 21 l-709 0 0 294 0 295 48 6 c268 34 354 67 644 239 205 121 311
161 503 190 63 9 332 -4 405 -19z m-518 -1625 c56 -16 119 -69 147 -125 26
-49 26 -52 29 -327 l3 -278 -746 0 -745 0 0 145 c0 79 5 168 11 197 38 182
191 340 372 384 67 16 873 19 929 4z m1430 -1 c187 -39 348 -200 387 -387 6
-29 11 -118 11 -197 l0 -145 -745 0 -746 0 3 278 c3 274 3 278 28 326 29 56
80 101 136 121 50 18 843 21 926 4z m-2664 -2179 c-37 -113 -62 -149 -118
-177 -53 -28 -101 -29 -155 -4 -75 34 -105 92 -105 201 l0 70 204 0 205 0 -31
-90z m3362 20 c0 -109 -30 -167 -105 -201 -54 -25 -102 -24 -155 4 -56 28 -81
64 -118 177 l-31 90 205 0 204 0 0 -70z"/>
<path d="M2869 3380 c-29 -17 -43 -66 -29 -100 22 -53 77 -66 124 -29 37 29
37 89 0 118 -28 22 -68 27 -95 11z"/>
<path d="M1855 815 c-50 -49 -15 -135 55 -135 19 0 40 9 55 25 16 15 25 36 25
55 0 19 -9 40 -25 55 -15 16 -36 25 -55 25 -19 0 -40 -9 -55 -25z"/>
</g>
</svg>
