<?xml version="1.0" standalone="no"?>
<!DOCTYPE svg PUBLIC "-//W3C//DTD SVG 20010904//EN"
 "http://www.w3.org/TR/2001/REC-SVG-20010904/DTD/svg10.dtd">
<svg version="1.0" xmlns="http://www.w3.org/2000/svg"
 width="512.000000pt" height="512.000000pt" viewBox="0 0 512.000000 512.000000"
 preserveAspectRatio="xMidYMid meet">
<metadata>
Created by potrace 1.16, written by Peter Selinger 2001-2019
</metadata>
<g transform="translate(0.000000,512.000000) scale(0.100000,-0.100000)"
fill="#000000" stroke="none">
<path d="M1520 4884 c-76 -14 -173 -40 -233 -65 -298 -120 -522 -391 -604
-731 -28 -114 -25 -365 5 -478 93 -346 365 -614 723 -712 73 -20 107 -23 254
-22 155 0 178 3 260 28 179 54 307 129 437 254 180 175 290 404 305 638 7 108
1 138 -34 170 -20 18 -37 24 -72 24 -59 0 -82 -16 -132 -95 -122 -193 -355
-296 -569 -251 -164 34 -303 140 -379 286 -58 111 -98 134 -155 89 -38 -30
-35 -79 11 -170 48 -95 189 -239 280 -287 276 -145 593 -110 819 91 30 27 54
45 54 40 0 -24 -35 -124 -62 -178 -199 -394 -674 -580 -1080 -424 -226 88
-414 286 -490 519 -39 120 -49 289 -25 415 57 301 267 554 542 654 47 17 90
31 96 31 5 0 -15 -29 -46 -65 -84 -99 -155 -256 -155 -341 0 -56 61 -90 113
-63 29 16 34 24 53 89 38 133 138 260 259 331 46 27 63 43 71 69 15 44 2 96
-31 129 -23 23 -34 26 -108 28 -45 0 -93 -1 -107 -3z"/>
<path d="M2571 4794 c-24 -30 -26 -52 -10 -88 23 -50 103 -57 134 -13 21 31
19 83 -5 107 -31 31 -93 27 -119 -6z"/>
<path d="M2147 4623 c-25 -7 -47 -56 -47 -108 l0 -45 -55 0 c-69 0 -95 -22
-95 -79 0 -54 34 -81 101 -81 l49 0 0 -49 c0 -67 27 -101 81 -101 57 0 79 26
79 94 l0 54 61 4 c49 4 66 9 80 27 27 33 24 77 -6 106 -20 21 -34 25 -80 25
l-55 0 0 59 c0 52 -3 62 -26 80 -26 20 -49 24 -87 14z"/>
<path d="M3526 2969 c-76 -18 -170 -74 -245 -143 -338 -312 -655 -625 -697
-687 -25 -38 -47 -69 -49 -69 -1 0 -59 14 -128 30 -206 49 -294 38 -391 -51
-88 -80 -100 -118 -106 -339 l-5 -184 -33 -7 c-37 -8 -68 -32 -88 -71 -10 -18
-44 -41 -116 -77 -175 -86 -248 -170 -248 -285 0 -70 25 -121 87 -182 55 -52
183 -120 310 -164 l93 -33 0 -81 c1 -130 36 -186 159 -246 115 -57 329 -102
636 -132 176 -17 954 -17 1130 0 414 41 646 104 737 200 45 48 58 87 58 182
l0 77 92 33 c272 95 398 204 398 344 0 112 -68 196 -223 277 -63 33 -77 44
-71 57 5 10 10 114 12 233 3 169 0 229 -12 282 -18 75 -62 169 -113 239 -45
62 -711 695 -769 731 -90 56 -140 70 -264 73 -63 2 -133 -1 -154 -7z m299
-187 c36 -20 109 -80 185 -152 l125 -120 -67 -62 c-36 -35 -69 -75 -73 -90
-14 -56 39 -109 96 -95 13 3 55 35 94 70 l70 64 154 -146 c243 -230 275 -296
276 -566 0 -108 -5 -176 -14 -208 -18 -62 -82 -134 -146 -163 -47 -22 -62 -24
-231 -24 l-182 0 -4 103 c-3 82 -8 112 -28 152 -31 64 -101 134 -165 164 -87
41 -150 39 -415 -14 -251 -51 -303 -55 -447 -35 -180 25 -272 3 -365 -88 -26
-25 -51 -43 -55 -39 -4 4 -6 65 -6 135 1 141 21 240 69 334 40 78 60 101 222
255 l147 140 142 -131 c149 -140 217 -184 318 -211 114 -29 291 -14 320 28 22
31 19 83 -6 108 -19 19 -28 20 -123 13 -174 -11 -218 9 -412 194 l-119 113
120 115 c178 170 228 196 370 191 79 -3 97 -7 150 -35z m-1453 -839 l116 -28
-6 -30 c-4 -16 -7 -112 -7 -212 l0 -183 -171 0 c-94 0 -186 3 -203 6 l-32 7 3
183 c3 203 6 213 78 262 43 29 80 28 222 -5z m1471 -379 c46 -23 66 -44 89
-87 17 -35 19 -56 16 -211 -3 -168 -4 -174 -30 -213 -16 -25 -44 -49 -72 -63
l-46 -22 -459 30 c-498 33 -493 32 -549 96 -38 44 -45 77 -40 204 3 95 5 102
34 139 62 76 118 88 290 63 130 -18 217 -12 439 34 234 49 282 53 328 30z
m-1813 -219 c60 -10 156 -15 323 -15 l237 0 0 -65 0 -65 -242 0 c-167 -1 -268
-5 -323 -15 -44 -8 -83 -15 -86 -15 -3 0 -1 22 5 49 6 34 6 64 -1 95 -6 25 -7
46 -4 46 3 0 44 -7 91 -15z m2778 -122 c91 -45 152 -99 152 -135 0 -33 -69
-97 -147 -136 -208 -105 -570 -182 -1053 -224 -188 -16 -792 -16 -980 0 -489
43 -854 122 -1072 233 -61 31 -128 97 -128 127 0 38 102 123 176 146 21 6 22
4 17 -57 -6 -72 9 -113 54 -145 45 -31 81 -33 203 -12 93 16 160 20 355 20
l240 0 48 -55 c47 -54 100 -88 162 -107 44 -13 932 -70 984 -64 137 18 266
141 287 275 l6 40 207 3 c235 4 282 15 363 88 24 22 45 39 47 40 3 0 38 -17
79 -37z m-2601 -582 c329 -62 628 -85 1073 -85 454 1 786 29 1101 93 l89 18 0
-47 c0 -55 -12 -69 -90 -103 -103 -45 -297 -84 -555 -109 -177 -17 -924 -17
-1105 0 -325 31 -562 88 -632 150 -24 20 -26 117 -3 109 8 -4 63 -15 122 -26z"/>
<path d="M160 2151 c-107 -33 -160 -104 -160 -215 0 -36 23 -338 50 -671 53
-641 54 -647 114 -749 51 -88 166 -165 275 -186 70 -13 352 -13 422 0 147 28
276 140 323 284 16 46 115 1157 118 1316 3 143 -80 220 -247 228 -81 4 -93 2
-117 -18 -22 -17 -28 -30 -28 -61 0 -62 24 -79 114 -79 76 0 112 -15 117 -50
4 -20 -11 -239 -18 -267 l-5 -23 -468 0 -467 0 -6 28 c-3 16 -9 85 -13 154 -9
169 -27 158 267 158 l228 0 20 26 c35 45 26 95 -20 119 -22 12 -74 15 -251 14
-123 0 -234 -4 -248 -8z m945 -708 c-3 -32 -19 -214 -35 -405 -31 -371 -36
-396 -95 -466 -15 -18 -51 -45 -79 -60 -50 -27 -53 -27 -246 -27 -193 0 -196
0 -246 27 -28 15 -64 42 -79 60 -59 69 -63 92 -95 475 -16 197 -32 379 -35
406 l-6 47 461 0 461 0 -6 -57z"/>
</g>
</svg>
