<?xml version="1.0" standalone="no"?>
<!DOCTYPE svg PUBLIC "-//W3C//DTD SVG 20010904//EN"
 "http://www.w3.org/TR/2001/REC-SVG-20010904/DTD/svg10.dtd">
<svg version="1.0" xmlns="http://www.w3.org/2000/svg"
 width="512.000000pt" height="512.000000pt" viewBox="0 0 512.000000 512.000000"
 preserveAspectRatio="xMidYMid meet">
<metadata>
Created by potrace 1.16, written by Peter Selinger 2001-2019
</metadata>
<g transform="translate(0.000000,512.000000) scale(0.100000,-0.100000)"
fill="#000000" stroke="none">
<path d="M1050 5099 c-477 -102 -843 -483 -927 -964 -23 -134 -14 -368 20
-498 148 -566 689 -946 1262 -888 287 29 507 129 712 326 438 418 496 1087
136 1570 -164 220 -393 372 -673 447 -116 31 -402 35 -530 7z m372 -144 c37
-3 107 -17 155 -31 354 -102 625 -381 720 -742 21 -81 26 -121 27 -237 1 -193
-27 -312 -111 -477 -236 -461 -773 -677 -1256 -505 -271 97 -468 277 -593 541
-64 137 -85 226 -91 392 -8 205 22 338 116 518 157 301 472 513 813 545 46 4
99 7 118 5 19 -2 65 -6 102 -9z"/>
<path d="M1655 4420 c-11 -4 -122 -111 -247 -237 l-228 -230 -55 50 c-44 39
-65 51 -99 54 -59 7 -80 -6 -184 -118 -145 -156 -142 -171 69 -369 82 -78 165
-148 184 -156 48 -20 141 -18 190 5 22 10 85 65 143 123 92 94 102 109 102
142 0 48 -28 76 -78 76 -34 0 -46 -9 -137 -100 -78 -79 -106 -100 -127 -100
-22 0 -55 25 -148 112 l-121 112 47 47 47 48 26 -19 c14 -10 37 -30 50 -44 29
-31 82 -47 124 -39 23 5 87 64 261 240 l230 234 48 -48 48 -47 -100 -102 c-93
-94 -100 -104 -100 -141 0 -46 20 -70 68 -79 31 -6 39 0 158 117 142 140 159
165 151 222 -5 34 -19 54 -99 134 -51 52 -105 101 -120 109 -30 15 -72 17
-103 4z"/>
<path d="M3600 5105 c-42 -8 -116 -28 -165 -46 -742 -261 -1035 -1136 -601
-1789 80 -120 237 -272 358 -348 397 -247 912 -237 1299 25 41 28 85 63 99 77
32 36 33 91 1 117 -39 32 -77 24 -150 -30 -309 -228 -707 -271 -1045 -113
-115 54 -187 103 -279 191 -161 154 -260 332 -309 556 -7 35 -12 119 -12 200
1 116 6 156 27 237 148 560 705 890 1261 748 44 -11 131 -45 191 -75 293 -143
494 -407 560 -734 14 -65 16 -116 12 -225 -6 -181 -28 -262 -112 -431 -36 -71
-65 -140 -65 -153 0 -34 43 -72 81 -72 40 0 72 34 126 136 145 273 175 632 78
929 -132 404 -475 709 -892 794 -120 25 -343 27 -463 6z"/>
<path d="M3298 4451 l-118 -118 0 -59 0 -59 145 -139 145 -140 -145 -146 -145
-147 0 -53 0 -53 112 -114 c172 -174 180 -173 388 26 l145 139 145 -143 c201
-197 215 -198 383 -26 111 113 128 145 113 208 -5 17 -61 81 -147 167 l-140
140 143 143 143 143 0 53 0 53 -100 108 c-110 119 -135 136 -194 136 -48 0
-64 -13 -232 -178 l-116 -114 -151 146 -151 146 -53 0 -53 0 -117 -119z m327
-208 c85 -82 165 -151 177 -154 42 -10 71 11 220 158 81 79 152 143 156 141 5
-1 32 -28 60 -59 l51 -55 -155 -155 c-204 -203 -204 -176 3 -376 l158 -152
-60 -60 -59 -61 -157 155 c-201 199 -188 197 -338 53 -58 -57 -130 -125 -159
-153 l-52 -50 -58 58 -57 57 155 155 c205 205 205 179 -2 380 l-157 151 57 57
c31 31 58 57 60 57 2 0 73 -66 157 -147z"/>
<path d="M190 2993 c-81 -41 -114 -93 -118 -187 -3 -55 0 -81 13 -107 10 -19
173 -272 364 -564 438 -672 453 -688 726 -791 l110 -41 3 -162 2 -162 -31 -27
c-68 -56 -69 -62 -69 -509 0 -390 1 -404 20 -423 31 -31 93 -27 119 6 20 26
21 37 21 408 0 284 3 385 12 394 18 18 941 17 956 -1 8 -9 12 -140 14 -399 3
-363 4 -387 22 -407 26 -28 88 -29 116 -1 19 19 20 33 20 425 0 423 -2 450
-43 484 -15 12 -17 43 -17 261 0 263 -9 347 -49 448 -41 103 -142 236 -204
268 -56 29 -117 -6 -117 -68 0 -20 17 -46 58 -92 128 -141 152 -223 152 -528
l0 -218 -410 0 -410 0 0 123 0 122 33 15 c40 19 55 57 38 98 -14 35 -18 36
-225 113 -183 68 -230 93 -303 162 -70 66 -763 1121 -763 1160 0 34 32 67 65
67 24 0 170 -121 669 -556 148 -129 160 -143 174 -189 12 -44 33 -69 171 -207
143 -145 159 -158 192 -158 46 0 79 33 79 80 0 30 -16 50 -139 174 -172 175
-177 184 -145 251 19 41 73 69 114 60 17 -4 117 -78 235 -176 188 -154 210
-169 245 -169 60 0 98 59 70 110 -14 27 -403 346 -453 372 -32 17 -59 22 -117
22 -86 0 -136 -21 -193 -79 -19 -19 -37 -35 -41 -35 -4 0 -167 138 -362 308
-195 169 -372 316 -392 327 -21 11 -62 21 -97 23 -50 3 -69 -1 -115 -25z"/>
<path d="M4741 3006 c-39 -14 -27 -4 -443 -363 -180 -156 -330 -283 -334 -283
-4 0 -23 16 -42 36 -74 76 -206 102 -300 60 -62 -28 -726 -579 -783 -649 -26
-32 -61 -86 -78 -121 -59 -120 -64 -155 -68 -461 -4 -256 -6 -282 -23 -300
-38 -41 -40 -67 -40 -478 0 -459 -2 -447 74 -447 31 0 48 6 62 21 18 20 19 44
22 407 2 257 7 390 14 399 15 18 938 19 956 1 9 -9 12 -110 12 -394 0 -371 1
-382 21 -408 27 -34 88 -37 119 -4 19 21 20 33 20 422 0 446 -1 452 -69 508
l-31 27 2 161 3 162 110 42 c274 104 288 119 728 793 191 293 355 549 363 570
26 61 16 162 -21 215 -57 82 -178 119 -274 84z m130 -167 c15 -15 20 -30 17
-52 -5 -39 -679 -1071 -741 -1135 -69 -71 -146 -116 -298 -171 -221 -81 -236
-89 -250 -123 -17 -41 -2 -79 38 -98 l33 -15 0 -122 0 -123 -410 0 -410 0 0
218 c0 237 10 302 56 395 15 28 42 71 60 93 48 59 701 595 739 607 44 13 98
-13 119 -58 32 -67 27 -76 -145 -251 -123 -124 -139 -144 -139 -174 0 -47 33
-80 79 -80 33 0 49 13 192 158 138 138 159 163 171 207 16 55 10 49 575 536
257 221 272 230 314 188z"/>
</g>
</svg>
