<?xml version="1.0" standalone="no"?>
<!DOCTYPE svg PUBLIC "-//W3C//DTD SVG 20010904//EN"
 "http://www.w3.org/TR/2001/REC-SVG-20010904/DTD/svg10.dtd">
<svg version="1.0" xmlns="http://www.w3.org/2000/svg"
 width="512.000000pt" height="512.000000pt" viewBox="0 0 512.000000 512.000000"
 preserveAspectRatio="xMidYMid meet">
<metadata>
Created by potrace 1.16, written by Peter Selinger 2001-2019
</metadata>
<g transform="translate(0.000000,512.000000) scale(0.100000,-0.100000)"
fill="#000000" stroke="none">
<path d="M1290 4164 c-674 -526 -1240 -970 -1257 -987 -29 -27 -33 -38 -33
-81 l0 -50 203 -202 c217 -216 228 -224 299 -199 l38 13 0 -1229 0 -1229 -244
0 -243 0 -27 -26 c-37 -38 -37 -110 0 -148 l27 -26 2507 0 2507 0 27 26 c37
38 37 110 0 148 l-27 26 -243 0 -244 0 0 489 0 488 -26 27 c-38 37 -110 37
-148 0 l-26 -27 0 -488 0 -489 -1580 0 -1580 0 0 494 0 493 -26 27 c-38 37
-110 37 -148 0 l-26 -27 0 -493 0 -494 -140 0 -140 0 1 1313 0 1312 905 705
c497 388 909 705 914 705 5 0 417 -317 914 -705 l905 -705 0 -496 1 -496 26
-27 c38 -37 110 -37 148 0 l26 27 0 412 0 413 38 -13 c71 -25 82 -17 300 199
l202 202 0 51 c0 63 8 55 -363 343 l-277 215 0 521 0 521 -26 27 -27 26 -337
0 -337 0 -26 -26 -27 -26 -2 -215 -3 -214 -545 426 c-534 416 -546 425 -590
425 -44 0 -59 -11 -1270 -956z m2411 -169 c618 -483 1131 -884 1139 -891 13
-12 2 -27 -85 -114 -55 -55 -103 -100 -108 -100 -4 0 -457 350 -1005 778 -548
428 -1008 786 -1022 795 -31 22 -89 22 -120 0 -14 -9 -474 -367 -1022 -795
-548 -428 -1000 -778 -1005 -778 -5 0 -53 45 -108 101 l-100 100 35 28 c275
223 2258 1760 2266 1757 6 -2 517 -399 1135 -881z m579 190 c0 -201 -2 -365
-5 -365 -3 0 -86 63 -185 141 l-180 140 0 225 0 224 185 0 185 0 0 -365z"/>
<path d="M1526 2914 l-26 -27 0 -1007 0 -1007 26 -27 27 -26 1007 0 1007 0 27
26 26 27 0 1007 0 1007 -26 27 -27 26 -1007 0 -1007 0 -27 -26z m934 -554 l0
-380 -380 0 -380 0 0 380 0 380 380 0 380 0 0 -380z m960 0 l0 -380 -380 0
-380 0 0 380 0 380 380 0 380 0 0 -380z m-960 -960 l0 -380 -380 0 -380 0 0
380 0 380 380 0 380 0 0 -380z m960 0 l0 -380 -380 0 -380 0 0 380 0 380 380
0 380 0 0 -380z"/>
<path d="M1074 1631 c-34 -15 -54 -52 -54 -99 0 -35 6 -49 29 -73 66 -66 171
-20 171 75 0 60 -30 96 -85 101 -22 3 -50 1 -61 -4z"/>
<path d="M4406 1554 c-21 -21 -26 -36 -26 -74 0 -38 5 -53 26 -74 21 -21 36
-26 74 -26 38 0 53 5 74 26 21 21 26 36 26 74 0 38 -5 53 -26 74 -21 21 -36
26 -74 26 -38 0 -53 -5 -74 -26z"/>
</g>
</svg>
