<?xml version="1.0" standalone="no"?>
<!DOCTYPE svg PUBLIC "-//W3C//DTD SVG 20010904//EN"
 "http://www.w3.org/TR/2001/REC-SVG-20010904/DTD/svg10.dtd">
<svg version="1.0" xmlns="http://www.w3.org/2000/svg"
 width="512.000000pt" height="512.000000pt" viewBox="0 0 512.000000 512.000000"
 preserveAspectRatio="xMidYMid meet">
<metadata>
Created by potrace 1.16, written by Peter Selinger 2001-2019
</metadata>
<g transform="translate(0.000000,512.000000) scale(0.100000,-0.100000)"
fill="#000000" stroke="none">
<path d="M2040 5093 c-52 -19 -69 -94 -30 -133 33 -33 85 -30 118 6 55 62 -10
156 -88 127z"/>
<path d="M1586 4849 c-33 -26 -37 -88 -6 -119 31 -31 93 -27 119 6 62 78 -35
175 -113 113z"/>
<path d="M915 4665 c-335 -73 -568 -363 -568 -705 0 -128 20 -216 73 -325 90
-184 253 -319 455 -376 101 -29 267 -31 365 -6 90 23 213 86 286 146 156 127
264 345 264 533 0 63 -3 72 -29 99 -22 22 -39 29 -68 29 -49 0 -72 -17 -123
-90 -73 -103 -170 -154 -295 -155 -71 0 -88 4 -147 33 -129 63 -201 178 -202
322 0 61 5 86 26 132 30 64 93 138 147 170 68 40 88 91 59 153 -25 54 -113 69
-243 40z m-79 -232 c-35 -53 -65 -149 -72 -230 -27 -305 244 -575 551 -549 78
6 167 33 232 71 l43 26 -11 -28 c-18 -49 -100 -153 -152 -195 -235 -187 -563
-168 -762 43 -104 111 -155 233 -157 376 -3 213 106 401 293 503 29 16 55 27
57 25 2 -2 -8 -20 -22 -42z"/>
<path d="M3257 4658 c-126 -16 -261 -113 -319 -229 -15 -30 -60 -175 -100
-324 -69 -259 -72 -275 -72 -385 -1 -109 1 -119 30 -180 72 -150 207 -247 397
-285 l27 -5 0 -355 c0 -286 -3 -355 -13 -355 -7 0 -146 49 -308 110 -205 76
-307 110 -337 110 -44 0 -89 -18 -111 -44 -11 -13 -18 -13 -64 1 -86 25 -128
52 -214 134 -75 72 -86 79 -123 79 -56 0 -99 -24 -116 -66 -19 -46 -22 -225
-5 -279 20 -59 43 -85 214 -248 l155 -148 462 -173 461 -172 -21 -27 -21 -27
-457 0 c-497 0 -536 -4 -634 -57 -67 -37 -143 -121 -181 -200 l-32 -68 -3
-283 c-2 -180 1 -301 8 -335 23 -112 114 -233 212 -283 107 -54 103 -54 913
-55 l750 0 60 -71 c32 -39 74 -77 92 -84 21 -9 72 -14 145 -14 94 0 118 3 145
20 49 29 67 65 67 128 l-1 54 42 19 c67 30 160 103 204 161 67 89 95 162 116
302 l6 38 75 -4 c115 -5 106 13 185 -400 38 -194 68 -369 69 -389 0 -26 -7
-42 -26 -60 l-26 -24 -2348 0 -2348 0 -26 24 c-19 18 -26 34 -26 60 1 20 31
195 69 389 57 295 71 357 90 375 l22 22 641 3 c642 2 642 2 665 24 29 27 30
77 4 109 l-19 24 -638 3 c-705 3 -709 2 -780 -60 -19 -17 -44 -49 -55 -70 -25
-49 -159 -743 -159 -823 0 -95 47 -171 135 -218 l40 -22 2385 0 2385 0 40 22
c88 47 135 123 135 218 0 80 -134 774 -159 823 -44 87 -134 132 -263 132 l-68
0 0 523 c0 541 -7 689 -39 835 -90 411 -373 787 -677 898 l-74 27 34 46 c52
71 80 135 120 266 82 276 87 396 20 529 -70 140 -139 185 -390 256 -204 58
-278 69 -367 58z m293 -204 c191 -52 215 -63 265 -112 62 -62 80 -106 80 -197
-1 -44 -5 -87 -10 -96 -9 -14 -59 -1 -417 104 -315 93 -408 124 -408 136 1 57
76 153 146 186 89 42 113 41 344 -21z m-114 -460 c219 -64 400 -118 402 -120
9 -6 -53 -162 -82 -207 -73 -115 -205 -207 -346 -243 -83 -21 -212 -14 -291
15 -66 25 -137 91 -169 157 -40 82 -38 147 14 343 25 95 46 175 46 178 0 3 6
3 13 0 7 -3 193 -58 413 -123z m358 -650 c251 -65 503 -350 610 -693 60 -191
61 -203 61 -956 0 -785 3 -754 -83 -866 -47 -62 -167 -148 -183 -132 -4 5 -24
49 -43 100 -48 127 -69 165 -112 203 -59 52 -97 64 -223 70 l-115 5 -8 32
c-11 42 -60 90 -106 103 -22 6 -174 10 -374 10 l-338 0 0 205 0 205 163 0
c136 0 168 3 202 19 52 23 93 65 116 117 17 38 23 42 66 49 97 14 205 82 253
159 27 44 140 345 140 374 0 35 -43 72 -83 72 -48 0 -67 -26 -122 -175 -26
-71 -56 -147 -66 -167 -30 -58 -110 -108 -176 -108 -20 0 -345 118 -859 312
l-62 23 54 144 c30 80 56 146 58 148 2 2 154 -53 338 -122 184 -69 347 -125
360 -125 50 0 65 28 172 314 62 164 114 288 128 303 69 74 181 70 242 -9 42
-56 43 -85 5 -198 l-33 -100 20 -27 c27 -36 66 -48 101 -31 22 10 36 33 63 98
62 151 45 287 -48 383 -59 62 -124 90 -218 95 -72 4 -88 1 -141 -23 -62 -27
-129 -87 -156 -140 -15 -29 -16 -24 -17 105 l0 135 67 13 c36 7 103 30 147 52
92 44 114 46 200 24z m-1554 -739 c25 -12 64 -28 88 -36 47 -14 47 -7 8 -111
l-22 -57 -107 101 c-114 106 -137 138 -137 187 l0 31 63 -46 c34 -25 82 -56
107 -69z m480 -1179 l0 -204 -101 -4 c-92 -3 -103 -5 -120 -27 -25 -30 -24
-72 2 -105 l20 -26 512 -2 512 -3 3 -192 2 -193 -638 0 c-718 0 -704 -1 -786
71 -89 78 -91 86 -94 387 -3 221 -1 271 13 312 29 86 109 159 200 181 17 4
130 7 253 8 l222 1 0 -204z m1201 -539 c29 -20 42 -45 105 -205 l72 -182 -62
0 -62 0 -59 71 c-76 91 -88 99 -152 99 l-53 0 0 120 0 120 89 0 c75 0 93 -3
122 -23z"/>
<path d="M3663 1720 c-28 -11 -43 -40 -43 -81 0 -27 20 -52 153 -186 188 -192
214 -207 271 -162 20 16 26 29 26 61 0 40 -6 47 -152 196 -180 181 -200 194
-255 172z"/>
<path d="M1953 4480 c-47 -19 -58 -92 -20 -128 53 -49 137 -15 137 55 0 62
-57 97 -117 73z"/>
<path d="M676 890 c-44 -39 -49 -57 -82 -259 -27 -174 -26 -213 8 -256 42 -54
52 -55 505 -55 460 0 461 0 507 63 19 26 21 45 24 224 4 217 0 235 -55 283
l-34 30 -419 0 -419 0 -35 -30z m804 -270 l0 -140 -373 0 -374 0 18 108 c10
59 21 122 24 140 l6 32 349 0 350 0 0 -140z"/>
</g>
</svg>
