<?xml version="1.0" standalone="no"?>
<!DOCTYPE svg PUBLIC "-//W3C//DTD SVG 20010904//EN"
 "http://www.w3.org/TR/2001/REC-SVG-20010904/DTD/svg10.dtd">
<svg version="1.0" xmlns="http://www.w3.org/2000/svg"
 width="512.000000pt" height="512.000000pt" viewBox="0 0 512.000000 512.000000"
 preserveAspectRatio="xMidYMid meet">
<metadata>
Created by potrace 1.16, written by Peter Selinger 2001-2019
</metadata>
<g transform="translate(0.000000,512.000000) scale(0.100000,-0.100000)"
fill="#000000" stroke="none">
<path d="M820 5100 c-17 -17 -20 -33 -20 -119 l0 -98 -62 -13 c-106 -23 -232
-93 -313 -174 -110 -111 -185 -275 -185 -405 0 -51 0 -51 -32 -51 -72 -1 -161
-66 -192 -142 -22 -52 -20 -153 3 -203 23 -49 74 -99 123 -119 22 -10 67 -16
108 -16 l70 0 0 -1640 0 -1640 -140 0 c-192 0 -180 16 -180 -240 0 -187 1
-201 20 -220 20 -20 33 -20 2540 -20 2507 0 2520 0 2540 20 19 19 20 33 20
220 0 256 12 240 -180 240 l-140 0 0 800 0 800 140 0 c192 0 180 -16 180 240
0 187 -1 201 -20 220 -19 19 -33 20 -360 20 l-340 0 0 105 c0 179 -50 355
-146 517 -67 114 -238 285 -352 352 -186 110 -332 146 -597 146 l-186 0 3 81
3 82 42 12 c143 42 260 186 271 333 4 57 1 71 -16 92 -28 34 -84 33 -136 -3
-136 -94 -304 70 -211 207 34 51 39 79 21 115 -19 37 -48 46 -123 38 -117 -12
-241 -105 -299 -222 -27 -56 -29 -68 -29 -175 0 -105 2 -120 27 -170 52 -104
128 -174 231 -210 l52 -18 3 -81 3 -81 -186 0 c-265 0 -411 -36 -597 -146
-114 -67 -285 -238 -352 -352 -96 -162 -146 -338 -146 -517 l0 -105 -120 0
-120 0 0 600 0 600 70 0 c41 0 86 6 108 16 49 20 100 70 123 119 23 50 25 151
3 203 -31 76 -120 141 -191 142 -33 0 -33 0 -33 51 0 130 -75 294 -185 405
-81 81 -207 151 -312 174 l-63 13 0 98 c0 117 -13 139 -80 139 -27 0 -47 -7
-60 -20z m205 -410 c180 -62 325 -246 325 -412 l0 -38 -470 0 -470 0 0 38 c0
167 150 356 328 413 80 25 211 25 287 -1z m1878 -422 c38 -91 173 -188 261
-188 35 0 37 -2 25 -17 -40 -48 -164 -68 -237 -37 -49 20 -100 70 -123 119
-33 72 -20 184 29 238 16 18 17 17 23 -29 4 -27 13 -66 22 -86z m-1358 -202
c61 -26 61 -106 0 -132 -51 -21 -1279 -21 -1330 0 -60 25 -61 106 -2 131 48
21 1282 22 1332 1z m-265 -1946 l0 -1640 -80 0 -80 0 0 1020 c0 1007 0 1020
-20 1040 -19 19 -33 20 -220 20 -187 0 -201 -1 -220 -20 -20 -20 -20 -33 -20
-1040 l0 -1020 -80 0 -80 0 0 1640 0 1640 400 0 400 0 0 -1640z m2279 1371
c393 -100 648 -415 676 -833 l6 -98 -1201 0 -1201 0 6 98 c10 142 38 252 95
367 135 274 395 454 700 486 41 4 246 6 455 4 349 -2 387 -4 464 -24z m-2599
-2051 l0 -960 -80 0 -80 0 0 960 0 960 80 0 80 0 0 -960z m4000 880 l0 -80
-1760 0 -1760 0 0 80 0 80 1760 0 1760 0 0 -80z m-320 -1040 l0 -800 -80 0
-80 0 0 395 c0 375 -1 397 -21 450 -97 260 -501 260 -598 0 -20 -53 -21 -75
-21 -450 l0 -395 -80 0 -80 0 0 451 c0 508 -1 514 -73 654 -78 151 -236 276
-403 319 -81 21 -247 21 -328 0 -167 -43 -325 -168 -403 -319 -72 -140 -73
-146 -73 -654 l0 -451 -80 0 -80 0 0 395 c0 375 -1 397 -21 450 -97 260 -501
260 -598 0 -20 -53 -21 -75 -21 -450 l0 -395 -80 0 -80 0 0 800 0 800 1600 0
1600 0 0 -800z m-1455 450 c147 -50 263 -170 311 -320 15 -48 18 -109 22 -492
l4 -438 -482 0 -482 0 4 438 c4 383 7 444 22 492 48 151 169 274 314 321 80
25 211 25 287 -1z m-1185 -403 c19 -12 43 -38 54 -57 20 -33 21 -53 24 -412
l3 -378 -161 0 -161 0 3 378 c3 359 4 379 24 412 46 78 144 105 214 57z m2240
0 c19 -12 43 -38 54 -57 20 -33 21 -53 24 -412 l3 -378 -161 0 -161 0 3 378
c3 359 4 379 24 412 46 78 144 105 214 57z m720 -1087 l0 -80 -2400 0 -2400 0
0 80 0 80 2400 0 2400 0 0 -80z"/>
<path d="M775 3581 c-22 -10 -54 -34 -72 -52 -61 -64 -63 -78 -63 -399 0 -277
1 -291 20 -310 19 -19 33 -20 220 -20 187 0 201 1 220 20 19 19 20 33 20 313
0 263 -2 296 -19 332 -23 49 -74 99 -123 119 -52 22 -153 20 -203 -3z m145
-161 c33 -17 40 -66 40 -266 l0 -194 -80 0 -80 0 0 194 c0 196 6 240 37 264
20 14 57 16 83 2z"/>
</g>
</svg>
