<?xml version="1.0" standalone="no"?>
<!DOCTYPE svg PUBLIC "-//W3C//DTD SVG 20010904//EN"
 "http://www.w3.org/TR/2001/REC-SVG-20010904/DTD/svg10.dtd">
<svg version="1.0" xmlns="http://www.w3.org/2000/svg"
 width="512.000000pt" height="512.000000pt" viewBox="0 0 512.000000 512.000000"
 preserveAspectRatio="xMidYMid meet">
<metadata>
Created by potrace 1.16, written by Peter Selinger 2001-2019
</metadata>
<g transform="translate(0.000000,512.000000) scale(0.100000,-0.100000)"
fill="#000000" stroke="none">
<path d="M2240 5105 c-389 -48 -766 -188 -1091 -404 -504 -335 -871 -825
-1043 -1395 -41 -132 -81 -333 -96 -468 -13 -125 -13 -431 0 -556 108 -1014
825 -1880 1804 -2176 132 -41 333 -81 468 -96 125 -13 431 -13 556 0 592 63
1141 332 1563 766 289 299 494 645 613 1038 74 244 106 468 106 748 0 460
-110 881 -331 1266 -408 710 -1108 1176 -1919 1277 -151 18 -480 18 -630 0z
m578 -176 c421 -45 829 -208 1182 -471 122 -91 367 -336 458 -458 263 -353
426 -761 471 -1182 14 -122 14 -395 1 -513 -47 -424 -210 -832 -471 -1182 -94
-126 -336 -368 -462 -462 -350 -261 -758 -424 -1182 -471 -118 -13 -391 -13
-513 1 -421 45 -829 208 -1182 471 -122 91 -367 336 -458 458 -263 353 -426
761 -471 1182 -14 125 -14 391 0 516 45 421 208 829 471 1182 91 122 336 367
458 458 346 258 759 425 1165 470 114 13 419 14 533 1z"/>
<path d="M2395 4264 c-208 -24 -441 -88 -475 -131 -45 -57 -8 -143 61 -143 18
0 73 13 123 29 202 65 454 86 656 56 208 -31 215 -31 244 -2 57 57 23 137 -67
157 -155 33 -406 49 -542 34z"/>
<path d="M1472 3817 c-22 -23 -22 -26 -22 -447 l0 -423 125 -127 125 -126 -36
-699 c-19 -385 -34 -736 -32 -781 5 -90 28 -141 90 -201 78 -76 212 -98 318
-52 63 27 132 102 154 166 21 63 21 78 -19 873 l-35 694 125 126 125 127 0
425 0 425 -23 21 c-34 32 -96 30 -128 -4 l-24 -26 -3 -381 -3 -381 -124 -127
-125 -127 0 -54 c0 -29 16 -361 35 -738 19 -377 35 -709 35 -738 0 -48 -4 -58
-34 -88 -28 -28 -42 -34 -76 -34 -34 0 -48 6 -76 34 -31 31 -34 39 -34 93 0
32 16 364 35 738 19 374 35 704 35 733 l0 54 -125 127 -124 127 -3 381 -3 381
-24 26 c-33 35 -98 36 -129 3z"/>
<path d="M1732 3820 c-11 -11 -24 -35 -27 -52 -3 -18 -5 -192 -3 -385 3 -351
3 -353 26 -375 31 -32 92 -31 126 1 l26 24 0 379 0 379 -25 24 c-31 32 -91 34
-123 5z"/>
<path d="M1985 3815 l-25 -24 0 -379 0 -379 26 -24 c34 -32 95 -33 126 -1 23
22 23 24 26 375 2 193 0 367 -3 385 -13 71 -100 98 -150 47z"/>
<path d="M3094 3831 c-96 -23 -204 -112 -247 -203 -31 -64 -93 -275 -107 -361
-13 -80 -13 -244 1 -327 19 -124 104 -257 194 -306 l36 -19 -6 -90 c-10 -159
-55 -1202 -55 -1283 0 -99 20 -160 72 -213 59 -61 134 -92 221 -91 59 0 80 5
136 34 72 36 123 93 141 156 5 20 10 76 10 123 0 86 -44 1117 -55 1279 l-5 85
36 20 c88 47 174 183 193 305 14 83 14 247 1 327 -14 87 -75 292 -106 358 -43
91 -128 165 -228 198 -51 18 -174 21 -232 8z m207 -197 c65 -36 91 -78 133
-217 49 -162 59 -231 54 -356 -7 -159 -46 -232 -157 -291 -32 -17 -64 -42 -71
-55 -10 -19 -6 -162 21 -768 29 -651 31 -749 19 -772 -27 -51 -102 -70 -158
-41 -60 31 -59 -3 -23 812 27 608 31 750 21 769 -7 13 -39 38 -71 55 -113 60
-151 132 -157 300 -4 130 6 194 62 373 38 122 69 166 137 200 53 26 132 22
190 -9z"/>
<path d="M3752 3683 c-17 -7 -42 -57 -42 -86 0 -13 22 -53 49 -89 119 -157
189 -285 245 -448 64 -190 79 -281 80 -495 0 -219 -12 -299 -75 -489 -67 -198
-167 -372 -304 -526 -85 -95 -100 -128 -81 -173 16 -39 62 -63 103 -52 31 7
108 86 192 195 170 222 268 444 327 745 29 141 26 462 -4 614 -41 205 -120
411 -219 571 -59 95 -160 227 -179 234 -18 7 -74 7 -92 -1z"/>
<path d="M1202 3593 c-17 -7 -99 -130 -154 -233 -249 -464 -263 -1047 -37
-1529 73 -156 188 -325 303 -443 50 -52 60 -58 96 -58 54 0 90 34 90 84 0 28
-11 47 -50 93 -136 158 -213 272 -277 410 -221 478 -182 1038 103 1470 48 72
58 96 59 131 0 34 -5 48 -24 63 -22 18 -79 24 -109 12z"/>
<path d="M2308 1008 c-38 -36 -37 -80 0 -118 24 -24 39 -29 107 -35 110 -11
345 -1 375 15 14 7 30 20 37 29 27 35 7 115 -31 128 -12 3 -120 7 -241 7
l-220 1 -27 -27z"/>
</g>
</svg>
