<?xml version="1.0" standalone="no"?>
<!DOCTYPE svg PUBLIC "-//W3C//DTD SVG 20010904//EN"
 "http://www.w3.org/TR/2001/REC-SVG-20010904/DTD/svg10.dtd">
<svg version="1.0" xmlns="http://www.w3.org/2000/svg"
 width="512.000000pt" height="512.000000pt" viewBox="0 0 512.000000 512.000000"
 preserveAspectRatio="xMidYMid meet">
<metadata>
Created by potrace 1.16, written by Peter Selinger 2001-2019
</metadata>
<g transform="translate(0.000000,512.000000) scale(0.100000,-0.100000)"
fill="#000000" stroke="none">
<path d="M2255 4914 c-710 -96 -1324 -489 -1709 -1094 -123 -193 -248 -497
-300 -732 -73 -328 -76 -711 -7 -1028 118 -538 408 -1009 834 -1352 347 -279
779 -458 1222 -508 138 -15 436 -12 577 6 159 20 395 81 543 138 561 220 1005
624 1269 1156 121 245 198 495 231 759 24 185 17 534 -14 706 -54 306 -163
590 -325 853 -32 51 -56 95 -55 97 2 1 47 24 99 50 52 26 106 57 118 69 85 77
85 235 0 312 -48 45 -82 54 -192 54 -82 0 -117 4 -156 20 -90 35 -252 43 -339
15 -15 -5 -41 9 -103 52 -333 237 -685 374 -1093 428 -143 19 -460 18 -600 -1z
m630 -154 c318 -48 634 -169 899 -346 69 -46 84 -60 74 -69 -33 -31 -273 -166
-287 -162 -9 2 -159 59 -334 126 -174 66 -324 121 -333 121 -8 0 -25 -5 -37
-12 -24 -12 -191 -157 -219 -190 -18 -20 -24 -74 -10 -94 4 -6 85 -79 180
-162 l172 -151 -37 -24 c-21 -13 -204 -124 -407 -246 l-369 -223 -91 43 c-84
40 -97 44 -171 44 -91 0 -149 -21 -222 -81 -37 -31 -43 -41 -43 -74 0 -36 6
-44 88 -118 351 -320 375 -336 504 -337 l78 0 485 243 c326 162 487 238 490
230 3 -7 37 -125 75 -263 72 -261 84 -285 135 -285 35 0 298 116 312 137 7 10
25 169 42 372 17 195 32 355 33 356 2 2 112 57 246 124 l242 121 51 -77 c69
-108 169 -309 213 -427 37 -96 98 -322 110 -402 l6 -40 -96 -12 c-222 -28
-366 -71 -604 -179 -214 -98 -288 -123 -380 -130 -97 -6 -181 12 -345 75 -257
99 -410 107 -558 29 -92 -48 -149 -131 -176 -257 -8 -34 -16 -232 -21 -525
-10 -494 -16 -562 -60 -662 -23 -53 -61 -98 -100 -118 -14 -7 -70 -30 -125
-50 -344 -128 -529 -289 -576 -500 -11 -49 -15 -55 -33 -49 -42 13 -204 98
-298 157 -91 57 -98 64 -128 124 -35 72 -65 92 -113 75 -26 -10 -33 -5 -140
101 -354 350 -576 784 -647 1266 -25 171 -27 450 -4 613 18 129 62 328 73 328
4 0 52 -32 106 -70 127 -90 193 -121 270 -128 95 -7 162 17 235 84 81 75 120
158 164 344 19 80 44 166 54 190 55 127 137 192 383 304 165 74 227 155 231
293 1 37 -2 113 -6 168 -7 97 2 203 24 286 l10 36 127 31 c71 17 164 36 208
43 182 27 469 27 650 -1z m-1163 -192 c-7 -55 -8 -145 -3 -309 4 -147 -6 -160
-197 -243 -237 -104 -360 -222 -421 -402 -11 -34 -30 -106 -42 -160 -38 -178
-89 -273 -165 -309 -69 -33 -130 -11 -283 98 -47 34 -97 69 -111 78 l-24 16
24 59 c42 107 130 272 209 391 220 331 516 591 876 769 72 35 133 64 137 64 4
0 4 -24 0 -52z m2623 -294 c49 -21 76 -25 150 -24 50 1 98 1 107 1 44 -2 65
-73 31 -103 -10 -8 -178 -96 -373 -195 l-355 -181 6 77 c3 42 4 83 1 91 -10
31 -36 50 -66 50 -45 0 -605 -316 -626 -352 -13 -24 -12 -34 4 -100 11 -40 21
-78 23 -84 5 -13 -965 -504 -994 -504 -57 0 -97 26 -244 155 -85 74 -155 139
-157 144 -3 10 32 21 69 21 14 0 72 -23 128 -50 56 -27 116 -50 132 -50 21 0
276 149 924 539 491 297 909 548 927 557 89 48 208 50 313 8z m-942 -194 c12
-10 -261 -173 -278 -166 -8 3 -81 63 -161 133 l-146 128 51 46 50 47 238 -90
c131 -50 242 -94 246 -98z m314 -740 l-32 -375 -45 -21 c-90 -42 -81 -50 -122
104 -21 75 -62 223 -91 328 l-53 191 185 104 186 104 2 -30 c2 -16 -12 -199
-30 -405z m1065 -692 c30 -867 -442 -1674 -1207 -2065 -324 -165 -650 -244
-1014 -244 -227 0 -440 30 -639 91 l-73 22 6 42 c29 182 188 314 528 441 157
59 208 100 262 208 68 137 75 203 85 732 5 284 13 491 20 522 15 66 58 126
112 155 36 19 58 23 138 23 99 -1 112 -4 362 -99 170 -64 340 -72 496 -21 46
14 161 62 255 105 180 82 318 129 452 154 111 21 124 23 172 25 l42 1 3 -92z"/>
<path d="M4397 3432 c-23 -25 -21 -71 4 -134 12 -29 32 -84 45 -122 26 -74 44
-95 85 -96 43 0 74 32 73 76 -1 44 -75 247 -100 276 -23 24 -85 24 -107 0z"/>
<path d="M1619 2813 c-62 -59 -69 -70 -69 -104 0 -46 30 -79 73 -79 22 0 45
16 98 67 62 59 69 70 69 105 0 47 -28 78 -71 78 -25 0 -45 -14 -100 -67z"/>
<path d="M1398 2539 c-15 -8 -122 -177 -162 -256 -22 -43 -21 -96 2 -116 25
-22 85 -22 104 1 8 9 51 81 97 159 86 149 90 164 53 206 -16 19 -67 22 -94 6z"/>
<path d="M1128 2010 c-19 -11 -65 -149 -93 -274 -14 -64 -15 -79 -3 -102 19
-40 70 -54 105 -28 21 16 32 43 58 139 18 66 38 142 46 168 12 42 11 52 -2 75
-11 21 -23 28 -54 29 -22 2 -48 -2 -57 -7z"/>
<path d="M1010 1430 c-17 -17 -20 -33 -20 -113 0 -140 18 -257 43 -285 29 -32
83 -27 110 9 18 25 18 33 8 109 -6 46 -11 120 -11 165 0 68 -4 87 -21 109 -26
33 -79 36 -109 6z"/>
</g>
</svg>
