<?xml version="1.0" standalone="no"?>
<!DOCTYPE svg PUBLIC "-//W3C//DTD SVG 20010904//EN"
 "http://www.w3.org/TR/2001/REC-SVG-20010904/DTD/svg10.dtd">
<svg version="1.0" xmlns="http://www.w3.org/2000/svg"
 width="512.000000pt" height="512.000000pt" viewBox="0 0 512.000000 512.000000"
 preserveAspectRatio="xMidYMid meet">
<metadata>
Created by potrace 1.16, written by Peter Selinger 2001-2019
</metadata>
<g transform="translate(0.000000,512.000000) scale(0.100000,-0.100000)"
fill="#000000" stroke="none">
<path d="M2425 5101 c-70 -23 -114 -52 -168 -110 -66 -70 -98 -140 -112 -243
l-6 -48 90 0 91 0 0 28 c1 36 35 110 68 145 69 73 192 95 278 49 211 -110 160
-412 -76 -452 -36 -6 -73 -17 -82 -24 -24 -18 -38 -60 -38 -116 0 -48 -1 -49
-37 -59 -21 -6 -139 -35 -263 -66 -124 -31 -233 -58 -242 -61 -14 -4 -18 1
-18 23 0 60 -20 103 -54 120 -32 15 -52 12 -487 -67 -250 -45 -468 -86 -484
-91 -20 -6 -173 -151 -458 -437 l-427 -428 0 -44 0 -44 338 -339 c195 -197
351 -345 370 -353 19 -8 43 -12 55 -8 12 3 68 52 125 107 l102 102 0 -268 0
-267 -317 0 c-336 0 -374 -4 -462 -49 -66 -34 -138 -112 -174 -189 -30 -63
-32 -74 -32 -177 0 -103 2 -114 31 -176 18 -36 51 -87 76 -112 l44 -46 -43
-42 c-24 -23 -57 -71 -75 -107 -28 -56 -33 -78 -36 -157 -3 -70 0 -106 13
-146 21 -63 75 -149 115 -182 l28 -24 -44 -43 c-24 -23 -58 -72 -76 -108 -28
-56 -33 -78 -36 -157 -5 -101 8 -157 55 -240 32 -58 109 -127 181 -162 l57
-28 1565 -3 1565 -2 352 352 353 353 0 990 0 990 103 -102 c56 -55 112 -104
124 -107 12 -4 36 0 55 8 19 8 175 156 371 353 l337 339 0 44 0 44 -427 429
c-332 332 -436 430 -463 437 -93 27 -926 170 -952 165 -37 -9 -57 -40 -65
-104 -5 -41 -9 -50 -22 -47 -9 3 -117 30 -241 61 -302 75 -300 75 -300 84 0 5
26 18 59 30 226 82 329 341 225 571 -28 63 -113 153 -173 184 -93 48 -240 60
-336 27z m423 -1052 c158 -40 290 -75 293 -78 12 -11 -71 -111 -139 -167 -71
-59 -152 -101 -248 -131 -45 -13 -92 -18 -194 -18 -102 0 -149 5 -194 18 -96
30 -177 73 -249 132 -61 51 -133 134 -137 160 -1 7 522 148 573 154 4 1 137
-31 295 -70z m-1099 9 c60 -267 290 -482 596 -558 125 -31 305 -31 430 0 219
54 389 171 506 349 44 66 99 204 99 248 0 8 6 13 13 11 6 -3 184 -36 395 -74
l382 -69 372 -373 373 -372 -268 -267 -267 -268 -260 260 -260 260 -62 -63
-63 -62 113 -113 112 -112 0 -1013 0 -1012 -304 0 -303 0 -27 -26 -26 -27 0
-303 0 -304 -364 0 -365 0 30 58 c78 152 52 339 -65 469 l-44 48 46 50 c144
160 144 401 -2 562 l-44 48 46 50 c202 223 109 578 -176 674 -59 20 -82 21
-632 21 l-570 0 0 352 0 353 112 112 113 113 -63 62 -62 63 -260 -260 -260
-260 -268 268 -267 267 372 372 373 373 387 71 c214 40 391 72 394 73 3 0 11
-23 18 -51z m531 -2089 c105 -22 190 -127 190 -233 0 -65 -34 -140 -83 -183
-74 -65 -44 -63 -1067 -63 -1046 0 -997 -3 -1074 74 -89 88 -99 215 -24 317
28 37 97 80 147 90 62 12 1854 10 1911 -2z m-11 -659 c228 -43 272 -343 67
-453 l-41 -22 -954 -3 c-1076 -3 -1017 -7 -1096 73 -65 64 -90 158 -63 236 29
84 90 142 176 165 59 16 1829 20 1911 4z m-8 -660 c236 -45 285 -341 75 -453
l-41 -22 -954 -3 c-1077 -3 -1017 -7 -1096 73 -139 138 -67 366 128 405 63 12
1823 12 1888 0z m1569 7 c0 -1 -81 -83 -180 -182 l-180 -180 0 183 0 182 180
0 c99 0 180 -1 180 -3z"/>
<path d="M330 1735 l0 -85 995 0 995 0 0 85 0 85 -995 0 -995 0 0 -85z"/>
<path d="M330 1075 l0 -85 950 0 950 0 0 85 0 85 -950 0 -950 0 0 -85z"/>
<path d="M330 415 l0 -85 950 0 950 0 0 85 0 85 -950 0 -950 0 0 -85z"/>
</g>
</svg>
