<?xml version="1.0" standalone="no"?>
<!DOCTYPE svg PUBLIC "-//W3C//DTD SVG 20010904//EN"
 "http://www.w3.org/TR/2001/REC-SVG-20010904/DTD/svg10.dtd">
<svg version="1.0" xmlns="http://www.w3.org/2000/svg"
 width="512.000000pt" height="512.000000pt" viewBox="0 0 512.000000 512.000000"
 preserveAspectRatio="xMidYMid meet">

<g transform="translate(0.000000,512.000000) scale(0.100000,-0.100000)"
fill="#000000" stroke="none">
<path d="M1450 4787 c-24 -12 -28 -29 -117 -542 -51 -292 -99 -545 -108 -563
-18 -39 -73 -66 -116 -57 -44 10 -79 58 -79 108 0 23 27 196 60 385 33 189 60
348 60 353 0 18 -103 59 -150 59 -89 0 -194 -74 -220 -155 -5 -16 -37 -190
-70 -385 -34 -195 -64 -364 -66 -376 -5 -20 -2 -20 51 -16 138 11 297 -134
348 -318 38 -138 29 -228 -38 -388 -25 -58 -44 -106 -42 -107 1 -1 31 -12 67
-25 283 -100 543 -319 695 -585 25 -44 45 -91 45 -105 0 -68 -80 -125 -142
-101 -28 11 -37 22 -131 166 -69 107 -202 239 -310 310 -99 64 -243 127 -343
151 -37 8 -76 20 -86 25 -22 12 -48 60 -48 89 0 12 30 99 67 193 61 157 67
179 67 247 0 62 -4 84 -26 126 -49 94 -135 145 -208 124 -55 -16 -104 -56
-260 -217 -204 -209 -274 -318 -320 -498 -65 -252 -27 -376 207 -664 204 -252
244 -306 290 -399 42 -83 47 -101 51 -176 5 -102 -18 -219 -89 -451 -49 -160
-146 -443 -200 -585 -16 -41 -29 -78 -29 -82 0 -5 366 -8 813 -8 l813 0 13 92
c33 252 109 523 200 713 27 57 92 179 145 272 105 187 142 269 177 395 l24 83
3 905 c2 601 0 917 -7 940 -14 47 -64 106 -110 129 -42 22 -111 37 -111 25 0
-12 -160 -917 -166 -935 -11 -38 -56 -69 -98 -69 -50 0 -83 21 -102 65 -12 30
-3 92 116 756 72 398 128 729 125 736 -2 7 -22 21 -44 33 -87 44 -194 35 -205
-18 -3 -15 -46 -259 -96 -542 -49 -283 -94 -532 -100 -552 -29 -103 -180 -105
-206 -3 -4 16 38 278 111 693 64 367 118 676 118 687 2 15 -12 27 -52 48 -60
30 -128 36 -171 14z"/>
<path d="M3528 4790 c-50 -15 -96 -49 -92 -68 18 -78 234 -1330 234 -1357 0
-54 -44 -95 -102 -95 -45 0 -81 18 -97 49 -6 10 -51 263 -101 562 -50 299 -94
554 -97 566 -6 28 -70 48 -126 39 -41 -7 -111 -39 -122 -55 -3 -6 51 -331 120
-723 69 -393 125 -728 125 -746 0 -46 -44 -92 -95 -99 -34 -4 -46 -1 -73 22
-17 14 -35 41 -40 58 -5 18 -44 233 -87 480 l-79 447 -26 0 c-38 -1 -101 -33
-137 -71 -65 -69 -63 -38 -69 -821 -10 -1138 4 -1251 200 -1561 192 -306 330
-696 362 -1024 l7 -73 813 0 c448 0 814 3 814 8 0 4 -10 32 -21 62 -110 287
-243 701 -279 870 -53 244 -13 351 252 672 264 320 317 425 305 603 -12 167
-65 305 -176 451 -32 44 -133 151 -223 240 -142 140 -169 162 -209 172 -111
28 -212 -57 -238 -201 -14 -78 -4 -123 68 -302 95 -234 88 -254 -104 -311 -66
-20 -148 -49 -183 -65 -182 -87 -367 -253 -461 -415 -29 -49 -65 -101 -79
-116 -58 -62 -172 -18 -172 67 0 69 105 237 233 372 146 154 360 289 543 343
l42 13 -24 54 c-47 105 -75 223 -76 308 0 140 62 284 164 377 67 62 119 82
198 76 l61 -4 -6 25 c-3 14 -34 192 -69 394 -73 421 -78 436 -174 489 -79 45
-187 39 -254 -13 -17 -13 -14 -36 48 -391 63 -366 65 -378 49 -412 -23 -49
-75 -72 -126 -57 -69 21 -54 -40 -225 933 l-38 217 -29 11 c-35 12 -90 12
-129 0z"/>
</g>
</svg>
