<?xml version="1.0" standalone="no"?>
<!DOCTYPE svg PUBLIC "-//W3C//DTD SVG 20010904//EN"
 "http://www.w3.org/TR/2001/REC-SVG-20010904/DTD/svg10.dtd">
<svg version="1.0" xmlns="http://www.w3.org/2000/svg"
 width="512.000000pt" height="512.000000pt" viewBox="0 0 512.000000 512.000000"
 preserveAspectRatio="xMidYMid meet">

<g transform="translate(0.000000,512.000000) scale(0.100000,-0.100000)"
fill="#000000" stroke="none">
<path d="M2510 4803 c-62 -168 -60 -166 -147 -213 -388 -212 -698 -507 -847
-807 -51 -103 -100 -242 -111 -316 l-7 -47 1162 0 1162 0 -7 47 c-20 133 -119
357 -222 501 -164 229 -431 455 -726 616 -98 54 -95 49 -157 219 -24 64 -46
117 -50 117 -4 0 -26 -53 -50 -117z"/>
<path d="M412 4653 c-240 -239 -323 -363 -330 -495 -6 -91 15 -143 77 -201 94
-88 90 -87 429 -87 l299 0 61 40 c103 66 149 148 139 249 -10 105 -77 222
-219 378 -92 102 -272 273 -288 273 -5 0 -81 -71 -168 -157z"/>
<path d="M4429 4715 c-249 -229 -383 -416 -396 -556 -10 -101 36 -183 139
-249 l61 -40 299 0 c339 0 335 -1 429 87 62 58 83 111 77 200 -5 81 -41 162
-119 268 -52 70 -362 385 -378 385 -5 0 -56 -43 -112 -95z"/>
<path d="M280 3535 l0 -225 305 0 305 0 -2 223 -3 222 -302 3 -303 2 0 -225z"/>
<path d="M4237 3753 c-4 -3 -7 -105 -7 -225 l0 -218 305 0 305 0 0 225 0 225
-298 0 c-164 0 -302 -3 -305 -7z"/>
<path d="M1380 2805 l0 -505 190 0 190 0 0 233 c0 127 5 249 9 271 19 79 107
136 187 121 49 -9 108 -67 123 -120 6 -24 11 -134 11 -272 l0 -233 155 0 155
0 0 253 c0 226 2 256 19 287 55 104 198 116 269 22 l27 -35 3 -264 3 -263 154
0 155 0 0 231 c0 136 5 248 11 274 14 55 72 111 124 121 79 14 167 -44 186
-122 4 -22 9 -144 9 -271 l0 -233 190 0 190 0 0 505 0 505 -1180 0 -1180 0 0
-505z"/>
<path d="M60 3067 c32 -68 67 -142 79 -165 l21 -42 424 0 423 0 73 153 c40 83
75 158 77 165 4 9 -115 12 -575 12 l-581 0 59 -123z"/>
<path d="M3963 3178 c2 -7 37 -82 77 -166 l73 -152 425 2 426 3 77 163 78 162
-581 0 c-460 0 -579 -3 -575 -12z"/>
<path d="M280 1465 l0 -1285 165 0 165 0 2 1057 3 1058 138 3 137 3 -2 222 -3
222 -302 3 -303 2 0 -1285z"/>
<path d="M4237 2743 c-4 -3 -7 -104 -7 -224 l0 -218 138 -3 137 -3 3 -1057 2
-1058 165 0 165 0 0 1285 0 1285 -298 0 c-164 0 -302 -3 -305 -7z"/>
<path d="M730 1180 l0 -1000 1830 0 1830 0 0 1000 0 1000 -1830 0 -1830 0 0
-1000z m875 235 c94 -63 164 -132 197 -195 23 -45 23 -47 26 -462 l3 -418
-386 0 -385 0 0 408 0 407 24 51 c42 91 126 167 291 263 l68 40 41 -21 c23
-11 77 -44 121 -73z m1028 54 c94 -54 209 -141 240 -182 13 -18 35 -52 48 -77
l24 -45 3 -412 3 -413 -391 0 -391 0 3 413 3 412 24 45 c36 69 66 103 132 155
47 37 210 140 227 144 2 1 36 -18 75 -40z m1205 -57 c91 -60 159 -129 191
-194 l31 -61 0 -409 0 -408 -385 0 -385 0 0 413 c0 469 -2 453 86 547 57 61
120 108 222 166 l76 44 55 -31 c31 -18 80 -48 109 -67z"/>
</g>
</svg>
